<?xml version="1.0" encoding="utf-8"?>
<!-- Generator: Adobe Illustrator 26.4.1, SVG Export Plug-In . SVG Version: 6.00 Build 0)  -->
<svg version="1.1" id="Слой_1" xmlns="http://www.w3.org/2000/svg" xmlns:xlink="http://www.w3.org/1999/xlink" x="0px" y="0px"
	 viewBox="0 0 248.2 227.2" style="enable-background:new 0 0 248.2 227.2;" xml:space="preserve">
<style type="text/css">
	.st0{fill:#FFC37B;}
	.st1{fill:#E25E54;}
	.st2{fill:#CE413E;}
	.st3{fill:#FF8E55;}
	.st4{fill:#FFA35F;}
	.st5{fill:#FFB469;}
	.st6{fill:#FFE8CA;}
	.st7{fill:#EFCEA8;}
	.st8{fill:#68413C;}
	.st9{fill:#4F2A28;}
	.st10{opacity:0.5;fill:#FFE8CA;enable-background:new    ;}
	.st11{fill:#351817;}
	.st12{fill:#9B6D6A;}
	.st13{opacity:0.7;fill:#C5E5FF;enable-background:new    ;}
	.st14{fill:#182449;}
	.st15{opacity:0.7;fill:#FFFFFF;enable-background:new    ;}
	.st16{fill:#222F4C;}
</style>
<g id="_4">
	<path class="st0" d="M57.6,37.4C56,27.9,56,10.6,52.4,0c5.6,3.6,26.1,24.5,29,45.1L57.6,37.4z"/>
	<path class="st1" d="M61,37.9c-1.2-7.5-1.3-21.1-4-29.4c4.1,2.8,19.3,19.3,21.4,35.5L61,37.9z"/>
	<path class="st2" d="M75.4,43l3,1.1C76.3,27.9,61.1,11.4,57,8.6c0.3,0.9,0.5,1.9,0.8,2.9C63.6,17.8,72.6,30.3,75.4,43z"/>
	<path class="st0" d="M26.3,58.9c-7.9,2.9-16.1-35.3-25.6-40c-4.8-2.4,19.7-5.4,39.9,21.2L26.3,58.9z"/>
	<path class="st1" d="M27.7,56.2C21.4,58.5,14.6,25.4,7,21.6c-3.9-1.9,16-2,32.2,19.5L27.7,56.2z"/>
	<path class="st2" d="M7,21.6c0.5,0.3,1,0.6,1.4,1c5.3,0.9,18.1,5.9,28.7,21.2l2.1-2.8C22.9,19.6,3.1,19.7,7,21.6z"/>
	<path class="st2" d="M27.4,56.2c0.1,0,0.2,0,0.3-0.1l1.7-2.3L27.4,56.2z"/>
	<path class="st3" d="M27.6,195.5l8.4,9.7c-4.1,4.3-17.1,6.9-25.6-5.7C10.4,199.6,20.5,202.3,27.6,195.5z"/>
	<path class="st4" d="M36.1,227.2h5.1c0,0,13.8-18.6,16.5-30.2s-27.3-33.7-35.4-27s8.1,36,10,40.4C34.8,216.6,36.1,227.2,36.1,227.2
		z"/>
	<path class="st4" d="M61.4,227.2h5.1c0,0,18.5-31,23-42.5s-24-20.5-33.1-14s2.6,35.5,3.8,39.8C61.8,216.7,61.4,227.2,61.4,227.2z"
		/>
	<path class="st4" d="M47.5,209.2c16.9,2.5,33.4-6.4,40.7-21.9C98,167,98.9,114,85.7,95.1s-61.3-13.8-63.1-7.6s-16.3,40,0.1,100.4
		C25.2,197,33.2,207,47.5,209.2z"/>
	<path class="st0" d="M48,209c10.4,1.7,28.6-1.6,37.8-21.9s10-73.3-2.2-92.2s-57-13.8-58.7-7.6s-15.1,40,0.1,100.4
		C27.7,198.8,36.8,207.2,48,209z"/>
	<path class="st4" d="M72.1,150.4c18.8-19.7,22.5-9.7,22,14.7c3.4-24.2,1.3-56.2-8.3-70c-13.3-18.9-61.3-13.8-63.1-7.7
		s-16.3,40,0.1,100.4c2.6,9.5,9.9,17,19.3,20c-20.7-14.9-14.8-49.1-3.2-62.7C47.4,135.3,56.7,140.8,72.1,150.4z"/>
	<path class="st5" d="M25.9,137.6c-6.9-2.1-14-30-5.1-42.4S40,119.6,40,119.6S37.3,141.1,25.9,137.6z"/>
	<path class="st4" d="M34.3,119.3c1.6,2.2,3,4.5,4.2,7c0.7-2.2,1.2-4.4,1.5-6.7c0,0-10.4-36.7-19.3-24.3c-2.3,3.5-3.6,7.5-3.9,11.7
		C21.6,106.9,28.6,111.7,34.3,119.3z"/>
	<path class="st5" d="M72.4,146.4c-15.8-5.4-53-40.6-56-60.8S35,43.4,39,40.4s24-6.3,29-4.3S90.8,46.8,99.2,67
		C106.2,94,92.7,120,72.4,146.4z"/>
	<path class="st0" d="M72.3,137.9C57.8,133,23.5,100.6,20.8,82s17.1-38.8,20.8-41.5s22.1-5.8,26.7-3.9S89.3,46.5,97,65
		C103.4,89.8,91,113.7,72.3,137.9z"/>
	<path class="st6" d="M86.6,65.5l-33.5,5.1C35.3,84.3,30.7,99.8,32.7,114c12.9,15.1,30.2,29.1,39.7,32.4
		c15-19.4,26.2-38.6,28.3-58.1C100.4,80.9,91.4,69.3,86.6,65.5z"/>
	<path class="st7" d="M98.7,81.3c-0.6,19.8-13.8,42-26.7,61.3c-9.2-3.1-26.8-24-39.5-38.5c-0.4,3.3-0.4,6.6,0.2,9.9
		c12.9,15.1,30.3,30,39.8,33.2c14.9-19.4,26.1-39.4,28.2-58.9C100.8,85.5,99.4,83.2,98.7,81.3z"/>
	<path class="st7" d="M60.5,69.8c-1.7,4.3,2,16.4,8.5,17.9c9,2.1,12-18.4,12-18.4L60.5,69.8z"/>
	<path class="st8" d="M62.1,67.4c-1.7,4.3,1.4,16.6,7.8,18.7c6,1.9,12.3-18.8,12.3-18.8L62.1,67.4z"/>
	<path class="st2" d="M70.1,72c-1.8-0.5-3.7,0-5.1,1.3c-1.3,1.3-1.7,3.1-1.1,4.8c1.1,3.1,3.1,6,5.9,6.8c2.5,0.8,4-2,5-5.1
		c0.5-1.6,0.3-3.4-0.6-4.9C73.3,73.5,71.9,72.4,70.1,72z"/>
	<path class="st1" d="M68.6,80c-1.2,0-2.5,0.2-3.7,0.5c1,2.1,2.7,3.7,4.8,4.5c2.1,0.6,3.5-1.3,4.5-3.7C72.6,80.4,70.6,80,68.6,80z"
		/>
	<path class="st8" d="M84.5,74.4c-2,1.2-4.3,1.5-6.6,1l1-2.2L84.5,74.4z"/>
	<path class="st8" d="M57.2,72.2c1.4,2.2,3.5,3.8,6,4.4l0.6-2.4L57.2,72.2z"/>
	<path class="st6" d="M77,70.1c-2.2,3.3-7.4,7.2-13.7,5.3s-12.5-6.2-12.9-8.9c-0.7-5.3,14.4-6,19.6-5.6S78.8,67.4,77,70.1z"/>
	<path class="st0" d="M72.1,63.3c-4,0.1-18.9,4.8-25.2,2.8s-7.7,0-8.1-2.7c-0.7-5.3,29.2-8,34.4-7.6S80,63.1,72.1,63.3z"/>
	<path class="st6" d="M76.5,70.1c1.6,3.3,6,7.3,9.9,4.6c12.4-8.6,1.8-16.7-9.7-15.6C73.1,59.5,75.2,67.4,76.5,70.1z"/>
	<path class="st0" d="M74.6,61.2c1.5,3.3,14.5,6.4,18.9,4.5c7.1-3.1-3.8-12.3-11.4-10.8C74.9,56.2,73.4,58.5,74.6,61.2z"/>
	<path class="st8" d="M78.1,70.9c-3.2,0.6-10.5-5-9.6-8c0.7-2.4,15.6-1.9,16.7-0.2C86.2,64.4,81.1,70.4,78.1,70.9z"/>
	<path class="st9" d="M77.2,64.5c-2.9,0-5.9-0.2-8.8-0.6c0.6,3,6.7,7.6,9.7,7c2.4-0.5,6.3-4.5,7.1-6.9
		C82.5,64.4,79.9,64.5,77.2,64.5z"/>
	<path class="st8" d="M53.7,57.8l3.6-0.8c0,0-0.9-5-2.5-4.2S53.7,57.8,53.7,57.8z"/>
	<path class="st8" d="M75,55.6l3.5,0.2c0,0,0.1-5.7-1.6-4.8S75,55.6,75,55.6z"/>
	<path class="st0" d="M46.1,119c-2.5,6.6-9.8,19.2-15.9,18.7s-8.9-3.4-5.7-11.1s20.1-24.7,23.4-23.1S46.1,119,46.1,119z"/>
	<path class="st5" d="M47.9,103.6c-0.4-0.2-0.9-0.2-1.3,0c-0.9,2.2-1.7,3.9-1.7,3.9c-3.1,6.3-11.5,18.3-17.6,17.2
		c-0.6-0.1-1.1-0.2-1.6-0.4c-0.4,0.7-0.8,1.5-1.2,2.3c-3.2,7.6-0.5,10.6,5.7,11.1s13.4-12.1,15.9-18.7
		C46.1,119,51.2,105.3,47.9,103.6z"/>
	<path class="st0" d="M51.7,120.3c-4.3,2.3-8.6-1-8.1-4.3s1.1-12.8,4-13.1C53.3,102.5,60.4,115.6,51.7,120.3z"/>
	<path class="st0" d="M39.4,222.4c6-8.1,15.1-22.7,13.9-27.6S27.2,177,26.8,182.9S39.4,222.4,39.4,222.4z"/>
	<path class="st4" d="M47.9,208.3c0,0,7.8,8.6,19.7-0.3L47.9,208.3z"/>
	<path class="st0" d="M103.6,113.8c-0.8,6.9-2.8,15.7-6.2,18.2c-4.8,3.5-11.4,0.4-10.2-7.7S98,97.4,101.6,98.4
		S103.6,113.8,103.6,113.8z"/>
	<path class="st5" d="M101.6,98.3h-0.2c-2.5,0.2-3,2.3-3.5,4.7c-1.7,8.5-2.6,17-5.3,16.5c-1.3-0.3-2.1-2-2.4-4.7
		c-1.4,3-2.4,6.2-3,9.5c-1.2,8.1,5.4,13.3,10.2,9.8c3.4-2.5,5.4-13.3,6.2-20.2C103.6,113.8,105.2,99.3,101.6,98.3z"/>
	<path class="st0" d="M107.2,115.4c-4,2.7-8.6-0.3-8.6-3.7s-0.5-12.9,2.4-13.4C106.6,97.5,115.2,110.1,107.2,115.4z"/>
	<path class="st4" d="M35.7,216.4c0.5-6.1,0.4-12.3-0.3-18.4l-2.9,7.5L35.7,216.4z"/>
	<path class="st4" d="M33.5,210.4c0.5-6.1,0.4-12.3-0.3-18.4l-2.9,7.5L33.5,210.4z"/>
	<path class="st4" d="M30.5,201.4c0.7-10.8,0.5-17.8,0.5-17.8l-3.8,6.9L30.5,201.4z"/>
	<path class="st4" d="M27.5,190.5c2.2-10.6,4.9-25.1,4.9-25.1l-6.6,13.8L27.5,190.5z"/>
	<polygon class="st4" points="17.9,161.5 19,184.8 22.8,178 	"/>
	<polygon class="st4" points="16.6,148.6 16.1,173.7 19.6,165.6 	"/>
	<polygon class="st4" points="15.9,135 13.9,159.9 17.9,152.1 	"/>
	<path class="st10" d="M52.3,50.1c-1.7,2.3-5.3,2.8-4.2,0.1s6.6-4,7.7-3S54.1,47.6,52.3,50.1z"/>
	<path class="st10" d="M78.8,49.3c1.4,1.5,3.9,1.2,3.4-0.4c-0.5-1.9-6.4-3.5-8.3-2.4C71.7,47.9,76.8,47.2,78.8,49.3z"/>
	<path class="st11" d="M75.9,69.4c-2.3-0.5-4.3-2.2-3.7-3.2s4.4-1,5.7,0S75.9,69.4,75.9,69.4z"/>
	<path class="st12" d="M83,62.8c0-0.5-1.6-0.9-3.6-0.9s-3.6,0.4-3.6,0.9s1.6,0.9,3.6,0.9S83,63.3,83,62.8z"/>
	<path class="st5" d="M61.4,227.2h10.9c0,0-2-3.7-4.2-4.4S61.4,227.2,61.4,227.2z"/>
	<path class="st5" d="M36.3,227.2h10.9c0,0-1.4-3.5-3.6-4.1S36.3,227.2,36.3,227.2z"/>
</g>
<g>
	<path class="st13" d="M43.6,52c1.5,1.8,3,3.6,4.5,5.4c5.6,0.4,11.2,0.8,16.7,1.2c-0.2,0.2-0.3,0.5-0.5,0.7c-4.2,1-8.8,1.9-13.9,2.3
		c-1.1,0.1-2.2,0.2-3.3,0.2c-0.6-0.5-1.2-1-1.8-1.4c-0.7-2.5-1.5-5-2.2-7.6C43.2,52.5,43.4,52.2,43.6,52z"/>
	<path class="st13" d="M71.1,49c0.8,1.8,1.7,3.7,2.5,5.5c5.1,0.6,10.2,1.3,15.2,1.9c-0.2,0.1-0.3,0.2-0.5,0.3
		c-3.5,0.5-7.3,0.8-11.3,1c-1.2,0-2.4,0.1-3.5,0.1c-0.6-0.5-1.2-1-1.8-1.5C71.5,53.9,71.3,51.5,71.1,49z"/>
	<path class="st14" d="M47.9,62.4L47.9,62.4c-0.7-0.1-1.2-0.3-1.7-0.7c-0.9-0.6-1.2-1.5-1.4-2L42.2,51l0.6-0.1
		c8.4-1.1,16.9-1.9,25.3-2.5c6.9-0.5,13.8-0.8,20.7-1h0.5L90,54c0.1,0.2,0.3,1.1-0.3,2.1c-0.5,0.9-1.3,1.2-1.7,1.3h-0.1l-14.2,0.8
		h-0.1c-0.4-0.1-1.1-0.4-1.7-0.9c-0.8-0.8-1-1.6-1.1-2.1c-0.3-2.1-0.7-4.7-0.8-5.8c-0.6,0-1.3,0.1-1.9,0.1c-0.9,0.1-1.8,0.1-2.7,0.2
		l0.9,7.6c0,0.4-0.1,1.1-0.7,1.8c-0.5,0.6-1.1,0.7-1.5,0.8L47.9,62.4z M43.6,52l2.2,7.6c0.1,0.3,0.4,1,1,1.4
		c0.3,0.2,0.7,0.4,1.1,0.5L64.1,59c0.2,0,0.6-0.1,0.9-0.5c0.4-0.4,0.4-0.8,0.4-1l-0.9-7.6C57.5,50.4,50.5,51.1,43.6,52z M71.2,49.3
		c0.1,1.1,0.5,3.5,0.8,5.7c0.1,0.3,0.2,1,0.8,1.5c0.4,0.4,0.8,0.6,1.1,0.6l14-0.8c0.2-0.1,0.7-0.3,1-0.8c0.4-0.6,0.2-1.2,0.2-1.4
		l-0.6-5.8C82.7,48.7,76.9,49,71.2,49.3z"/>
	<path class="st15" d="M55.7,51c2.6-0.2,5.3-0.3,7.9-0.5c0.1,1,0.2,2.1,0.4,3.1c-0.7-0.5-1.4-1-2.1-1.5C59.8,51.7,57.7,51.3,55.7,51
		z"/>
	<path class="st15" d="M81.4,49.2c2.2-0.1,4.5-0.2,6.7-0.3c0.2,0.9,0.3,1.9,0.5,2.8c-0.7-0.4-1.5-0.8-2.2-1.3
		C84.7,50.1,83.1,49.6,81.4,49.2z"/>
	<path class="st14" d="M47.8,62c-0.3,0-0.7-0.2-1.2-0.5c-0.5-0.4-0.8-0.8-1-1.1c-0.3-1.1-0.8-2.6-1.4-4.4c-1.1-3.3-1.7-5-1.9-5
		l2.5,8.7c0.1,0.5,0.5,1.3,1.4,2c0.5,0.4,1,0.6,1.6,0.7h0.1l16.3-2.6h0.1l0,0C58.9,60.6,53.3,61.3,47.8,62z"/>
	<path class="st16" d="M64.4,59.8L64.4,59.8c-0.1,0-0.2,0-0.2,0l-16.3,2.6h-0.1c-0.6-0.1-1.2-0.3-1.6-0.7c-0.9-0.6-1.3-1.5-1.4-2
		L42.3,51c0.3,0,0.8,1.6,1.9,5c0.6,1.8,1.1,3.3,1.4,4.4c0.1,0.2,0.4,0.7,1,1.1c0.5,0.3,0.9,0.4,1.2,0.5
		C53.3,61.3,58.9,60.6,64.4,59.8z"/>
	<path class="st16" d="M42.3,51.1c-3,1.7-6.2,3.5-9.7,5.2c-2.5,1.3-5,2.4-7.4,3.5c-0.2,2.4-0.4,4.9-0.6,7.3c0.4-0.1,0.8-0.2,1.3-0.3
		c0.2-2.2,0.5-4.3,0.7-6.5c5.5-2.7,11-5.4,16.5-8.2C42.8,51.9,42.5,51.5,42.3,51.1z"/>
</g>
<g>
	<g>
		<path d="M94.1,129.6v-21.4h5l8.9,14.6h-2.6l8.7-14.6h5l0,21.4h-5.6l-0.1-13h0.9l-6.5,10.8h-2.7l-6.6-10.8h1.2v13H94.1z"/>
		<path d="M128.2,130.3l-7.3-17.3h6l5.4,13.4L128.2,130.3z M125.9,135.8c-0.9,0-1.7-0.1-2.6-0.4c-0.9-0.3-1.6-0.6-2.2-1.1l2.1-4
			c0.3,0.3,0.8,0.5,1.2,0.7c0.5,0.2,0.9,0.3,1.4,0.3c0.7,0,1.2-0.1,1.5-0.4s0.7-0.7,0.9-1.4l0.8-1.9l0.5-0.6l5.6-14h5.5l-7.1,17.3
			c-0.6,1.4-1.3,2.5-2,3.4c-0.7,0.8-1.6,1.4-2.5,1.7C128,135.7,127,135.8,125.9,135.8z"/>
		<path d="M148.4,129.6h-6.1v-21.4h16.8v4.7h-10.7V129.6z M147.9,117.6h9.9v4.7h-9.9V117.6z"/>
		<path d="M161.7,129.6V113h5.6v4.9l-0.9-1.4c0.5-1.2,1.3-2.2,2.4-2.8c1.1-0.6,2.4-0.9,4-0.9v5.3c-0.3,0-0.5-0.1-0.7-0.1
			c-0.2,0-0.4,0-0.6,0c-1.2,0-2.1,0.3-2.9,1c-0.7,0.6-1.1,1.7-1.1,3.1v7.6H161.7z"/>
		<path d="M178.2,111.2c-1.1,0-1.9-0.3-2.6-0.9c-0.6-0.6-1-1.3-1-2.2s0.3-1.6,1-2.2c0.6-0.6,1.5-0.9,2.6-0.9c1.1,0,1.9,0.3,2.6,0.8
			s1,1.3,1,2.1c0,0.9-0.3,1.7-1,2.3C180.1,110.9,179.2,111.2,178.2,111.2z M175.3,129.6V113h5.8v16.6H175.3z"/>
		<path d="M193.6,129.9c-2,0-3.7-0.4-5.2-1.1s-2.6-1.8-3.4-3.1s-1.2-2.8-1.2-4.4c0-1.7,0.4-3.2,1.2-4.5c0.8-1.3,1.9-2.3,3.2-3
			c1.4-0.7,2.9-1.1,4.7-1.1c1.6,0,3.1,0.3,4.5,1c1.3,0.7,2.4,1.7,3.2,2.9s1.2,2.8,1.2,4.7c0,0.2,0,0.4,0,0.7c0,0.3,0,0.5-0.1,0.7
			h-13.1v-3.1h10l-2.2,0.9c0-0.7-0.1-1.4-0.4-1.9s-0.7-1-1.2-1.3c-0.5-0.3-1.1-0.5-1.8-0.5c-0.7,0-1.3,0.2-1.9,0.5
			c-0.5,0.3-0.9,0.7-1.2,1.3s-0.4,1.2-0.4,2v0.9c0,0.8,0.2,1.5,0.5,2.1s0.8,1,1.5,1.4c0.6,0.3,1.4,0.5,2.3,0.5
			c0.8,0,1.5-0.1,2.1-0.4c0.6-0.2,1.1-0.6,1.7-1.1l3,3.2c-0.8,0.9-1.7,1.5-2.9,2C196.5,129.7,195.1,129.9,193.6,129.9z"/>
		<path d="M215.3,112.7c1.3,0,2.4,0.3,3.5,0.8c1,0.5,1.9,1.3,2.5,2.4c0.6,1.1,0.9,2.5,0.9,4.2v9.5h-5.8v-8.5c0-1.2-0.2-2-0.7-2.6
			s-1.1-0.8-1.9-0.8c-0.6,0-1.2,0.1-1.7,0.4c-0.5,0.3-0.9,0.7-1.2,1.3s-0.4,1.3-0.4,2.3v8h-5.8V113h5.6v4.7l-1.1-1.4
			c0.6-1.2,1.5-2.1,2.6-2.7C212.7,113,213.9,112.7,215.3,112.7z"/>
		<path d="M233,129.9c-1.5,0-2.9-0.4-4.1-1.1c-1.2-0.7-2.2-1.7-3-3c-0.7-1.3-1.1-2.8-1.1-4.5c0-1.8,0.4-3.3,1.1-4.6s1.7-2.3,3-3
			c1.2-0.7,2.6-1.1,4.1-1.1c1.4,0,2.6,0.3,3.6,0.9c1,0.6,1.8,1.6,2.3,2.8c0.5,1.3,0.8,2.9,0.8,4.8s-0.2,3.6-0.7,4.8
			c-0.5,1.3-1.2,2.2-2.2,2.8C235.8,129.6,234.5,129.9,233,129.9z M234.3,125.3c0.7,0,1.2-0.2,1.8-0.5c0.5-0.3,0.9-0.8,1.2-1.4
			c0.3-0.6,0.5-1.3,0.5-2.1c0-0.9-0.2-1.6-0.5-2.2c-0.3-0.6-0.7-1-1.2-1.3c-0.5-0.3-1.1-0.5-1.8-0.5c-0.7,0-1.3,0.2-1.8,0.5
			c-0.5,0.3-0.9,0.7-1.2,1.3c-0.3,0.6-0.5,1.3-0.5,2.2c0,0.8,0.2,1.5,0.5,2.1c0.3,0.6,0.7,1.1,1.2,1.4
			C233,125.1,233.6,125.3,234.3,125.3z M237.9,129.6v-2.8l0-5.5l-0.3-5.5v-8.9h5.8v22.7H237.9z"/>
		<path d="M97.6,154.1h-4v-14.3h4V154.1z M103.3,148.6h-6.1v-3.3h6.1V148.6z M103,139.8h4v14.3h-4V139.8z"/>
		<path d="M113.2,154.3c-0.9,0-1.6-0.1-2.2-0.4c-0.6-0.3-1.1-0.7-1.4-1.2c-0.3-0.5-0.5-1.1-0.5-1.7c0-0.7,0.2-1.3,0.5-1.8
			c0.3-0.5,0.9-0.9,1.6-1.2c0.7-0.3,1.7-0.4,2.8-0.4h2.6v2h-2.1c-0.6,0-1.1,0.1-1.3,0.3c-0.3,0.2-0.4,0.5-0.4,0.8
			c0,0.3,0.1,0.6,0.4,0.8c0.3,0.2,0.6,0.3,1.1,0.3c0.4,0,0.8-0.1,1.2-0.3c0.3-0.2,0.6-0.5,0.7-1l0.5,1.4c-0.2,0.8-0.6,1.3-1.2,1.7
			C115,154.1,114.2,154.3,113.2,154.3z M116.5,154.1v-2.1l-0.3-0.5v-3.8c0-0.6-0.2-1.1-0.6-1.4c-0.4-0.3-1-0.5-1.8-0.5
			c-0.5,0-1.1,0.1-1.6,0.3c-0.6,0.2-1,0.4-1.4,0.7l-1.3-2.6c0.6-0.4,1.4-0.7,2.3-1c0.9-0.2,1.8-0.3,2.6-0.3c1.8,0,3.2,0.4,4.2,1.2
			c1,0.8,1.5,2.1,1.5,3.9v6.1H116.5z"/>
		<path d="M122.4,154.1V143h3.9v5.8l4.6-5.8h3.6v11.1h-3.9v-5.8l-4.6,5.8H122.4z M128.2,142c-1.3,0-2.3-0.3-2.9-0.8
			c-0.6-0.6-0.9-1.4-0.9-2.5h2.5c0,0.4,0.1,0.8,0.3,1s0.5,0.4,1,0.4c0.4,0,0.8-0.1,1-0.4s0.3-0.6,0.3-1h2.5c0,1.1-0.3,2-0.9,2.5
			C130.5,141.7,129.5,142,128.2,142z"/>
		<path d="M136,156.4V151h14.2v5.4h-3.6v-2.3h-7v2.3H136z M144.8,152.4v-6.3h-3l0,1.1c0,0.5-0.1,1-0.1,1.5c0,0.5-0.1,0.9-0.2,1.3
			c-0.1,0.4-0.3,0.7-0.5,1s-0.5,0.5-0.8,0.6l-3.8-0.5c0.4,0,0.7-0.1,0.9-0.3c0.2-0.2,0.4-0.5,0.6-0.9c0.1-0.4,0.2-0.8,0.3-1.3
			c0.1-0.5,0.1-1,0.1-1.6l0.1-3.9h10.2v9.4H144.8z"/>
		<path d="M157.6,154.3c-1.3,0-2.5-0.2-3.4-0.7c-1-0.5-1.7-1.2-2.3-2c-0.5-0.9-0.8-1.8-0.8-2.9c0-1.1,0.3-2.1,0.8-3
			c0.5-0.9,1.2-1.5,2.2-2c0.9-0.5,2-0.7,3.1-0.7c1.1,0,2.1,0.2,3,0.7c0.9,0.5,1.6,1.1,2.1,2c0.5,0.9,0.8,1.9,0.8,3.1
			c0,0.1,0,0.3,0,0.5c0,0.2,0,0.3,0,0.5h-8.8v-2h6.7l-1.5,0.6c0-0.5-0.1-0.9-0.3-1.3c-0.2-0.4-0.5-0.7-0.8-0.9
			c-0.3-0.2-0.7-0.3-1.2-0.3c-0.5,0-0.9,0.1-1.2,0.3s-0.6,0.5-0.8,0.9c-0.2,0.4-0.3,0.8-0.3,1.3v0.6c0,0.5,0.1,1,0.3,1.4
			c0.2,0.4,0.5,0.7,1,0.9s0.9,0.3,1.5,0.3c0.6,0,1-0.1,1.4-0.2c0.4-0.2,0.8-0.4,1.1-0.7l2,2.1c-0.5,0.6-1.2,1-1.9,1.3
			C159.5,154.2,158.6,154.3,157.6,154.3z"/>
		<path d="M165.1,154.1V143h4.1l3.9,7.2h-1.6l4.2-7.2h3.7l0,11.1h-3.5v-7.2l0.6,0.4l-3.5,5.8h-1.7l-3.4-6.1l0.7-0.1v7.3H165.1z"/>
		<path d="M187.9,154.1V143h5.9c1.4,0,2.5,0.3,3.4,0.8c0.8,0.5,1.2,1.2,1.2,2.1c0,0.9-0.4,1.6-1.1,2.1c-0.8,0.5-1.8,0.8-3,0.8
			l0.3-0.8c1.3,0,2.4,0.2,3.1,0.7c0.7,0.5,1,1.2,1,2.2c0,1-0.4,1.8-1.1,2.3c-0.8,0.6-1.9,0.9-3.5,0.9H187.9z M191.4,147.5h2.1
			c0.5,0,0.8-0.1,1-0.3c0.2-0.2,0.3-0.4,0.3-0.7c0-0.3-0.1-0.6-0.3-0.7s-0.6-0.2-1-0.2h-2.1V147.5z M191.4,151.6h2.4
			c0.5,0,0.8-0.1,1.1-0.3c0.2-0.2,0.3-0.4,0.3-0.8c0-0.4-0.1-0.6-0.3-0.8s-0.6-0.2-1-0.2h-2.5V151.6z"/>
		<path d="M204,154.3c-0.9,0-1.6-0.1-2.2-0.4c-0.6-0.3-1.1-0.7-1.4-1.2c-0.3-0.5-0.5-1.1-0.5-1.7c0-0.7,0.2-1.3,0.5-1.8
			c0.3-0.5,0.9-0.9,1.6-1.2c0.7-0.3,1.7-0.4,2.8-0.4h2.6v2h-2.1c-0.6,0-1.1,0.1-1.3,0.3c-0.3,0.2-0.4,0.5-0.4,0.8
			c0,0.3,0.1,0.6,0.4,0.8c0.3,0.2,0.6,0.3,1.1,0.3c0.4,0,0.8-0.1,1.2-0.3c0.3-0.2,0.6-0.5,0.7-1l0.5,1.4c-0.2,0.8-0.6,1.3-1.2,1.7
			C205.7,154.1,204.9,154.3,204,154.3z M207.2,154.1v-2.1l-0.3-0.5v-3.8c0-0.6-0.2-1.1-0.6-1.4c-0.4-0.3-1-0.5-1.8-0.5
			c-0.5,0-1.1,0.1-1.6,0.3c-0.6,0.2-1,0.4-1.4,0.7l-1.3-2.6c0.6-0.4,1.4-0.7,2.3-1c0.9-0.2,1.8-0.3,2.6-0.3c1.8,0,3.2,0.4,4.2,1.2
			c1,0.8,1.5,2.1,1.5,3.9v6.1H207.2z"/>
		<path d="M213.2,154.1V143h4.1l3.9,7.2h-1.6l4.2-7.2h3.7l0,11.1h-3.5v-7.2l0.6,0.4l-3.5,5.8h-1.7L216,147l0.7-0.1v7.3H213.2z"/>
		<path d="M92.1,178.6l0.2-3.1c0.1,0,0.2,0,0.2,0c0.1,0,0.1,0,0.2,0c0.4,0,0.6-0.1,0.8-0.3c0.2-0.2,0.3-0.4,0.4-0.7
			c0.1-0.3,0.2-0.7,0.2-1.1c0-0.4,0.1-0.8,0.1-1.3l0.2-4.6h10v11.1h-3.9v-8.8l0.9,0.9h-4.5l0.8-0.9l-0.1,2.6c0,1-0.1,1.9-0.3,2.7
			c-0.1,0.8-0.3,1.5-0.6,2.1s-0.6,1-1.1,1.3c-0.5,0.3-1.1,0.5-1.8,0.5c-0.3,0-0.6,0-0.9-0.1C92.9,178.8,92.5,178.7,92.1,178.6z"/>
		<path d="M110.7,179.1l-4.9-11.6h4l3.6,9L110.7,179.1z M109.2,182.8c-0.6,0-1.2-0.1-1.8-0.3c-0.6-0.2-1.1-0.4-1.5-0.7l1.4-2.7
			c0.2,0.2,0.5,0.3,0.8,0.5c0.3,0.1,0.6,0.2,0.9,0.2c0.4,0,0.8-0.1,1-0.3s0.4-0.5,0.6-0.9l0.5-1.3l0.3-0.4l3.8-9.3h3.7l-4.8,11.5
			c-0.4,1-0.8,1.7-1.3,2.2s-1,0.9-1.6,1.1S109.9,182.8,109.2,182.8z"/>
		<path d="M127.2,174.5c-0.4,0.2-0.8,0.4-1.3,0.6c-0.5,0.2-1.1,0.2-1.8,0.2c-1.5,0-2.7-0.3-3.5-1c-0.8-0.7-1.2-1.8-1.2-3.3v-3.5h3.9
			v3.2c0,0.6,0.1,1.1,0.4,1.3s0.7,0.4,1.3,0.4c0.4,0,0.8,0,1.2-0.1c0.4-0.1,0.7-0.2,1-0.4V174.5z M127,178.6v-11.1h3.9v11.1H127z"/>
		<path d="M141.1,175.5l-0.8,0.9v-8.9h3.9v8.9l-0.9-0.9h4.7l-0.8,0.9v-8.9h3.8v11.1h-17.5v-11.1h3.9v8.9l-0.8-0.9H141.1z"/>
		<path d="M159.3,178.8c-1.3,0-2.5-0.2-3.4-0.7c-1-0.5-1.7-1.2-2.3-2c-0.5-0.9-0.8-1.8-0.8-2.9c0-1.1,0.3-2.1,0.8-3
			c0.5-0.9,1.2-1.5,2.2-2c0.9-0.5,2-0.7,3.1-0.7c1.1,0,2.1,0.2,3,0.7c0.9,0.5,1.6,1.1,2.1,2c0.5,0.9,0.8,1.9,0.8,3.1
			c0,0.1,0,0.3,0,0.5c0,0.2,0,0.3,0,0.5H156v-2h6.7l-1.5,0.6c0-0.5-0.1-0.9-0.3-1.3c-0.2-0.4-0.5-0.7-0.8-0.9
			c-0.3-0.2-0.7-0.3-1.2-0.3c-0.5,0-0.9,0.1-1.2,0.3s-0.6,0.5-0.8,0.9c-0.2,0.4-0.3,0.8-0.3,1.3v0.6c0,0.5,0.1,1,0.3,1.4
			c0.2,0.4,0.5,0.7,1,0.9s0.9,0.3,1.5,0.3c0.6,0,1-0.1,1.4-0.2c0.4-0.2,0.8-0.4,1.1-0.7l2,2.1c-0.5,0.6-1.2,1-1.9,1.3
			C161.3,178.7,160.3,178.8,159.3,178.8z"/>
		<path d="M166.8,178.6v-11.1h9.3v3.1h-6.2l0.8-0.8v8.8H166.8z"/>
		<path d="M183.1,178.8c-1.2,0-2.3-0.2-3.2-0.7c-0.9-0.5-1.7-1.2-2.2-2c-0.5-0.9-0.8-1.8-0.8-2.9c0-1.1,0.3-2.1,0.8-3
			c0.5-0.9,1.3-1.5,2.2-2c0.9-0.5,2-0.7,3.2-0.7c1.2,0,2.3,0.2,3.2,0.7c0.9,0.5,1.7,1.2,2.2,2s0.8,1.9,0.8,3c0,1.1-0.3,2.1-0.8,2.9
			c-0.5,0.9-1.3,1.5-2.2,2C185.3,178.6,184.3,178.8,183.1,178.8z M183.1,175.7c0.4,0,0.8-0.1,1.2-0.3s0.6-0.5,0.8-0.9
			c0.2-0.4,0.3-0.9,0.3-1.4c0-0.6-0.1-1-0.3-1.4c-0.2-0.4-0.5-0.7-0.8-0.9s-0.7-0.3-1.2-0.3s-0.8,0.1-1.2,0.3
			c-0.3,0.2-0.6,0.5-0.8,0.9c-0.2,0.4-0.3,0.9-0.3,1.4c0,0.6,0.1,1,0.3,1.4c0.2,0.4,0.5,0.7,0.8,0.9
			C182.2,175.6,182.6,175.7,183.1,175.7z"/>
		<path d="M93.3,207.1v-15H97v1.9l0,3.7l0.2,3.7v5.8H93.3z M100.2,203.3c-0.9,0-1.7-0.2-2.4-0.6s-1.2-1-1.5-1.9
			c-0.3-0.8-0.5-1.9-0.5-3.2c0-1.3,0.2-2.4,0.5-3.3c0.3-0.8,0.8-1.5,1.5-1.9s1.5-0.6,2.5-0.6c1,0,1.9,0.2,2.7,0.7
			c0.8,0.5,1.5,1.1,2,2c0.5,0.9,0.7,1.9,0.7,3.1c0,1.2-0.2,2.2-0.7,3c-0.5,0.9-1.1,1.5-2,2C102.2,203.1,101.2,203.3,100.2,203.3z
			 M99.4,200.2c0.4,0,0.8-0.1,1.2-0.3c0.3-0.2,0.6-0.5,0.8-0.9s0.3-0.9,0.3-1.4c0-0.6-0.1-1.1-0.3-1.5c-0.2-0.4-0.5-0.7-0.8-0.9
			c-0.3-0.2-0.7-0.3-1.2-0.3c-0.4,0-0.8,0.1-1.2,0.3c-0.3,0.2-0.6,0.5-0.8,0.9c-0.2,0.4-0.3,0.9-0.3,1.5c0,0.5,0.1,1,0.3,1.4
			s0.5,0.7,0.8,0.9C98.6,200.1,99,200.2,99.4,200.2z"/>
		<path d="M113.2,203.3c-1.3,0-2.5-0.2-3.4-0.7c-1-0.5-1.7-1.2-2.3-2c-0.5-0.9-0.8-1.8-0.8-2.9c0-1.1,0.3-2.1,0.8-3
			c0.5-0.9,1.2-1.5,2.2-2c0.9-0.5,2-0.7,3.1-0.7c1.1,0,2.1,0.2,3,0.7c0.9,0.5,1.6,1.1,2.1,2c0.5,0.9,0.8,1.9,0.8,3.1
			c0,0.1,0,0.3,0,0.5c0,0.2,0,0.3,0,0.5h-8.8v-2h6.7l-1.5,0.6c0-0.5-0.1-0.9-0.3-1.3c-0.2-0.4-0.5-0.7-0.8-0.9
			c-0.3-0.2-0.7-0.3-1.2-0.3c-0.5,0-0.9,0.1-1.2,0.3s-0.6,0.5-0.8,0.9c-0.2,0.4-0.3,0.8-0.3,1.3v0.6c0,0.5,0.1,1,0.3,1.4
			c0.2,0.4,0.5,0.7,1,0.9s0.9,0.3,1.5,0.3c0.6,0,1-0.1,1.4-0.2c0.4-0.2,0.8-0.4,1.1-0.7l2,2.1c-0.5,0.6-1.2,1-1.9,1.3
			C115.2,203.2,114.3,203.3,113.2,203.3z"/>
		<path d="M120.8,203.1V192h11.4v11.1h-3.9v-8.8l0.9,0.8h-5.4l0.8-0.8v8.8H120.8z"/>
		<path d="M140.6,203.3c-1.3,0-2.5-0.2-3.4-0.7c-1-0.5-1.7-1.2-2.3-2c-0.5-0.9-0.8-1.8-0.8-2.9c0-1.1,0.3-2.1,0.8-3
			c0.5-0.9,1.2-1.5,2.2-2c0.9-0.5,2-0.7,3.1-0.7c1.1,0,2.1,0.2,3,0.7c0.9,0.5,1.6,1.1,2.1,2c0.5,0.9,0.8,1.9,0.8,3.1
			c0,0.1,0,0.3,0,0.5c0,0.2,0,0.3,0,0.5h-8.8v-2h6.7l-1.5,0.6c0-0.5-0.1-0.9-0.3-1.3c-0.2-0.4-0.5-0.7-0.8-0.9
			c-0.3-0.2-0.7-0.3-1.2-0.3c-0.5,0-0.9,0.1-1.2,0.3s-0.6,0.5-0.8,0.9c-0.2,0.4-0.3,0.8-0.3,1.3v0.6c0,0.5,0.1,1,0.3,1.4
			c0.2,0.4,0.5,0.7,1,0.9s0.9,0.3,1.5,0.3c0.6,0,1-0.1,1.4-0.2c0.4-0.2,0.8-0.4,1.1-0.7l2,2.1c-0.5,0.6-1.2,1-1.9,1.3
			C142.5,203.2,141.6,203.3,140.6,203.3z"/>
		<path d="M150.5,203.1v-8.8l0.9,0.9H147V192h11v3.1h-4.4l0.9-0.9v8.8H150.5z"/>
		<path d="M159.5,203.1V192h3.9v5.8l4.6-5.8h3.6v11.1h-3.9v-5.8l-4.6,5.8H159.5z"/>
		<path d="M176.6,203.1v-8.8l0.9,0.9h-4.4V192h11v3.1h-4.4l0.9-0.9v8.8H176.6z"/>
		<path d="M191,203.3c-1.2,0-2.3-0.2-3.2-0.7c-0.9-0.5-1.7-1.2-2.2-2c-0.5-0.9-0.8-1.8-0.8-2.9c0-1.1,0.3-2.1,0.8-3
			c0.5-0.9,1.3-1.5,2.2-2c0.9-0.5,2-0.7,3.2-0.7c1.2,0,2.3,0.2,3.2,0.7c0.9,0.5,1.7,1.2,2.2,2s0.8,1.9,0.8,3c0,1.1-0.3,2.1-0.8,2.9
			c-0.5,0.9-1.3,1.5-2.2,2C193.3,203.1,192.2,203.3,191,203.3z M191,200.2c0.4,0,0.8-0.1,1.2-0.3s0.6-0.5,0.8-0.9
			c0.2-0.4,0.3-0.9,0.3-1.4c0-0.6-0.1-1-0.3-1.4c-0.2-0.4-0.5-0.7-0.8-0.9s-0.7-0.3-1.2-0.3s-0.8,0.1-1.2,0.3
			c-0.3,0.2-0.6,0.5-0.8,0.9c-0.2,0.4-0.3,0.9-0.3,1.4c0,0.6,0.1,1,0.3,1.4c0.2,0.4,0.5,0.7,0.8,0.9
			C190.2,200.1,190.6,200.2,191,200.2z"/>
		<path d="M199.1,207.1v-15h3.7v1.9l0,3.7l0.2,3.7v5.8H199.1z M206,203.3c-0.9,0-1.7-0.2-2.4-0.6s-1.2-1-1.5-1.9
			c-0.3-0.8-0.5-1.9-0.5-3.2c0-1.3,0.2-2.4,0.5-3.3c0.3-0.8,0.8-1.5,1.5-1.9s1.5-0.6,2.5-0.6c1,0,1.9,0.2,2.7,0.7
			c0.8,0.5,1.5,1.1,2,2c0.5,0.9,0.7,1.9,0.7,3.1c0,1.2-0.2,2.2-0.7,3c-0.5,0.9-1.1,1.5-2,2C207.9,203.1,207,203.3,206,203.3z
			 M205.2,200.2c0.4,0,0.8-0.1,1.2-0.3c0.3-0.2,0.6-0.5,0.8-0.9s0.3-0.9,0.3-1.4c0-0.6-0.1-1.1-0.3-1.5c-0.2-0.4-0.5-0.7-0.8-0.9
			c-0.3-0.2-0.7-0.3-1.2-0.3c-0.4,0-0.8,0.1-1.2,0.3c-0.3,0.2-0.6,0.5-0.8,0.9c-0.2,0.4-0.3,0.9-0.3,1.5c0,0.5,0.1,1,0.3,1.4
			s0.5,0.7,0.8,0.9C204.4,200.1,204.8,200.2,205.2,200.2z"/>
		<path d="M216.6,203.3c-0.9,0-1.6-0.1-2.2-0.4c-0.6-0.3-1.1-0.7-1.4-1.2c-0.3-0.5-0.5-1.1-0.5-1.7c0-0.7,0.2-1.3,0.5-1.8
			c0.3-0.5,0.9-0.9,1.6-1.2c0.7-0.3,1.7-0.4,2.8-0.4h2.6v2h-2.1c-0.6,0-1.1,0.1-1.3,0.3c-0.3,0.2-0.4,0.5-0.4,0.8
			c0,0.3,0.1,0.6,0.4,0.8c0.3,0.2,0.6,0.3,1.1,0.3c0.4,0,0.8-0.1,1.2-0.3c0.3-0.2,0.6-0.5,0.7-1l0.5,1.4c-0.2,0.8-0.6,1.3-1.2,1.7
			C218.3,203.1,217.6,203.3,216.6,203.3z M219.9,203.1v-2.1l-0.3-0.5v-3.8c0-0.6-0.2-1.1-0.6-1.4c-0.4-0.3-1-0.5-1.8-0.5
			c-0.5,0-1.1,0.1-1.6,0.3c-0.6,0.2-1,0.4-1.4,0.7l-1.3-2.6c0.6-0.4,1.4-0.7,2.3-1c0.9-0.2,1.8-0.3,2.6-0.3c1.8,0,3.2,0.4,4.2,1.2
			c1,0.8,1.5,2.1,1.5,3.9v6.1H219.9z"/>
		<path d="M226,197.9l-0.8-9.1h4.6l-0.8,9.1H226z M227.6,203.3c-0.7,0-1.2-0.2-1.7-0.6c-0.4-0.4-0.7-0.9-0.7-1.5
			c0-0.6,0.2-1.1,0.7-1.5c0.4-0.4,1-0.6,1.7-0.6s1.2,0.2,1.7,0.6c0.4,0.4,0.6,0.9,0.6,1.5c0,0.6-0.2,1.1-0.6,1.5
			S228.3,203.3,227.6,203.3z"/>
	</g>
</g>
</svg>
