<?xml version="1.0" encoding="utf-8"?>
<!-- Generator: Adobe Illustrator 24.2.1, SVG Export Plug-In . SVG Version: 6.00 Build 0)  -->
<svg version="1.1" id="Слой_1" xmlns="http://www.w3.org/2000/svg" xmlns:xlink="http://www.w3.org/1999/xlink" x="0px" y="0px"
	 viewBox="0 0 187.8 120.5" style="enable-background:new 0 0 187.8 120.5;" xml:space="preserve">
<style type="text/css">
	.st0{fill:#FFA35F;}
	.st1{fill:#FFC37B;}
	.st2{fill:#E25E54;}
	.st3{fill:#CE413E;}
	.st4{fill:#FFB469;}
	.st5{fill:#FFE8CA;}
	.st6{fill:#F94343;}
	.st7{fill:#E52525;}
	.st8{fill:#68413C;}
	.st9{fill:#4F2A28;}
	.st10{fill:#351817;}
	.st11{fill:#9B6D6A;}
	.st12{opacity:0.5;fill:#FFE8CA;enable-background:new    ;}
	.st13{fill:#AC6DC6;}
</style>
<path class="st0" d="M53.8,56.1c0,0-12.4-3.7-16.3,10l10.3,2.5C46.8,64.6,47.5,58.8,53.8,56.1z"/>
<path class="st1" d="M127.9,51.5C128,26.5,146.2,11.4,145,0c0,0,13,16.3,0.6,48.9L127.9,51.5z"/>
<path class="st2" d="M129.3,50.7c2-20.9,16.4-34.9,17.3-42.4c0,0,4.6,15.3-4.6,40.3L129.3,50.7z"/>
<path class="st3" d="M147.4,13c-0.1-1.6-0.4-3.2-0.8-4.8c-0.9,7.6-15.3,21.6-17.3,42.4l1.9-0.3C133.7,33,144.5,20.7,147.4,13z"/>
<path class="st1" d="M161.7,47c10.2-8.1,11.8-28.4,14.8-34.1c0,0,15.8,19.6-4.7,50.4L161.7,47z"/>
<path class="st2" d="M163,48.2c8.6-6.2,11.3-23.2,14-27.8c0,0,9.6,15.9-6.4,41.5L163,48.2z"/>
<path class="st3" d="M177.7,21.9c-0.2-0.5-0.4-0.9-0.7-1.4c-2.7,4.5-5.4,21.5-14,27.8l2.4,4.2C172.6,46.5,175.2,28.8,177.7,21.9z"/>
<path class="st0" d="M19.7,97.1c-5.4-5.7,8.3-32.9,18.7-34.7s19.5,10,23.4,12.3s18.5,7.7,41.3-7.2s-3.6,50.1-3.6,50.1L19.7,97.1z"/>
<path class="st1" d="M55.9,69.7c6.2,9.5,5.7,29.6,14.3,31.8s22.7-28.2,22.7-28.2C74.8,79.8,64.9,78.6,55.9,69.7z"/>
<path class="st1" d="M58.1,104.5c3.5-11.5,3.7-34.3-11.6-41.1c-13-5.8-21.3,7.8-24.7,17.7C16,98.1,58.1,104.5,58.1,104.5z"/>
<path class="st1" d="M90.9,119.4c-5.9-10-5.1-34.9,10.5-57.5c0,0,28.5-19.5,44.4-19.3S169.4,46,172,55.3s9.5,33.4,8,44.9
	S101.1,122.3,90.9,119.4z"/>
<path class="st4" d="M172.3,56.5c1.8,12.2,3.1,29.1,2,37.5c-1.4,10.7-67.8,20.5-85.8,19.7c0.5,2,1.2,3.9,2.3,5.8
	c10.3,2.8,87.5-7.7,89.1-19.3C181.4,89.1,175.1,66.6,172.3,56.5z"/>
<path class="st5" d="M145.7,94.2c-4.1,10.4-17.8,10-21,10.5s-17.3-5.1-19.3-9s-4.5-6.9-14.1-2.2c-1.4,0.7-2.5,1.8-3.3,3.1
	c-1.2,9.8,0.1,18,3,22.8c8.2,2.3,59.6-4.1,80.4-12.6C167,85.3,149.8,83.8,145.7,94.2z"/>
<path class="st6" d="M19,120.5h151c0,0,23.9-21.6,16.4-26s-41.5,22.2-64.4,20.9s-63.3-5.9-84-19.7S1.4,75.1,0.1,86.6
	C-1.6,101.8,19,120.5,19,120.5z"/>
<path class="st7" d="M88.2,111.9l-3.3,8.7H72c0,0-4.1-3,4.3-9.6L88.2,111.9z"/>
<path class="st7" d="M3.1,81.5c-1.7,0.9-2.7,2.5-3,5.1C-1.6,101.8,19,120.5,19,120.5h22.4C28.3,117.9-3.6,94.7,3.1,81.5z"/>
<path class="st7" d="M186.3,94.5c-1-0.5-2.1-0.6-3.2-0.4c7.3,5.4-17.4,22.8-30.9,26.4h17.7C169.9,120.5,193.8,99,186.3,94.5z"/>
<path class="st8" d="M112.7,110.1c-2.4-0.7-14.5-9.3-13.3-11.8c2.4-4.6,11.2-5.2,14.2-4s11.6,8.1,11.6,10.2S115.7,111,112.7,110.1z"
	/>
<path class="st8" d="M128.9,85.9l0.2-0.3c0,0.1,4.8,5.4,13.1,2.7v1.8C135.8,91.5,130.9,88.8,128.9,85.9z"/>
<path class="st8" d="M109.2,79.4l0.7-2.3c0,0.1,3.8,7.5,12.3,5.7l0.1,0.4C115.9,84.6,111.2,82.3,109.2,79.4z"/>
<path class="st8" d="M122.1,110.5c-2.1,0-4.2-0.2-6.3-0.7l0.2-0.8c9.1,2.1,25.1-0.8,30.5-11.7l0.7,0.3
	C142.7,106.7,131.2,110.5,122.1,110.5z"/>
<path class="st8" d="M146.1,97.4c0.6,0.1,0.9,1.5,0.8,3.1c0,0.1,0.1,0.2,0.2,0.3c0.1,0,0.2-0.1,0.3-0.2c0.2-0.6,0.3-1.1,0.3-1.7
	c0-1.7-0.8-2.8-1.4-2.8c-0.2,0-0.5,0.2-0.7,0.6c-0.1,0.2-0.1,0.3,0,0.5C145.8,97.3,146,97.4,146.1,97.4L146.1,97.4z"/>
<path class="st9" d="M106.8,103.5c-1.9-0.4-3.7-0.9-5.5-1.6c3.3,3.4,9.7,7.8,11.4,8.3c3,0.8,12.5-3.5,12.5-5.6
	c-0.2-0.9-0.8-1.8-1.5-2.4C120.4,104.4,113.9,105,106.8,103.5z"/>
<path class="st10" d="M114.2,109.4c-1.7,0-6.8-3.4-5.7-4s8.5,1.8,8.5,1.8C116.7,108.5,115.5,109.4,114.2,109.4z"/>
<path class="st11" d="M109.9,95.3c0-1.4-3.6-0.2-6.1,0.6c-2.2,0.7-3.4,2-3.1,3s1.9,1.4,3.8,1C106.8,99.6,109.9,96.6,109.9,95.3z"/>
<path class="st12" d="M130.8,76.6c0,0,5.9,7.9,15.7,6.1c0.1-1.3,0.7-4.3,0.7-4.3c-5.3,1-10.8-0.3-15.1-3.6L130.8,76.6z"/>
<path class="st12" d="M124.9,73.3c0,0-9.4,3.1-16.3-4.1c0.6-1.3,1.2-2.6,1.9-3.9c3.7,3.9,8.9,6,14.3,5.8L124.9,73.3z"/>
<path class="st1" d="M63.5,110.9c0.3,5.4,8.7,10.9,14.5,5.3c2.8-2.6,6.4-4.1,10.2-4.3l-0.9-7C74.5,103,63.3,106.8,63.5,110.9z"/>
<path class="st4" d="M87.4,104.9c-1.6-0.2-3.3-0.4-4.9-0.5c-0.6,2.8-1.6,5.5-2.8,8c-0.8,1.6-1.6,3.2-2.6,4.6
	c0.4-0.3,0.8-0.6,1.1-0.9c2.8-2.6,6.4-4.1,10.2-4.3L87.4,104.9z"/>
<path class="st13" d="M93.1,45.6c0.4-0.3,0.8-0.6,1.2-0.9c1.2,1.1,2.5,2.2,3.7,3.3c-1-4.2-1.9-8.4-2.9-12.7
	c4.4-2.7,8.7-5.4,13.1-8.1c0.4,1.4,0.9,2.8,1.3,4.2c-3.9,1.5-7.7,3.1-11.6,4.6c1,5,2,10,3,15c-0.6,0.5-1.2,0.9-1.8,1.4
	C97.1,50.2,95.1,47.9,93.1,45.6z"/>
<path class="st13" d="M75.8,31.7c1.1-0.7,2.2-1.4,3.4-2.1c-0.8,3.2-1.6,6.4-2.4,9.6c1.2,0.4,2.4,0.8,3.5,1.2
	c0.7-4.7,1.5-9.5,2.2-14.2c-0.7-0.1-1.4-0.3-2.1-0.4c-1.9,1.4-3.7,2.8-5.6,4.2C75.1,30.6,75.5,31.1,75.8,31.7z"/>
<path class="st13" d="M80.2,10.2c0.6,0,1.2-0.1,1.8-0.1c0.3-1,1-1.7,1.8-1.7c1.2-0.1,2.2,1.5,2.1,2.6c-0.1,1-1.1,1.2-2.4,2.7
	c-0.9,1-1.4,2-1.7,2.7c2.3,0.1,4.5,0.2,6.8,0.4c-0.1-0.9-0.2-1.8-0.3-2.8c-1.2,0.3-2.4,0.5-3.6,0.8c0.4-0.2,1.8-0.9,2.5-2.6
	c0.5-1.4,0.5-3.3-0.8-4.7c-1.1-1.1-3.2-1.9-4.8-0.9C80.6,7.3,80,8.7,80.2,10.2z"/>
</svg>
