<?xml version="1.0" encoding="utf-8"?>
<!-- Generator: Adobe Illustrator 24.2.1, SVG Export Plug-In . SVG Version: 6.00 Build 0)  -->
<svg version="1.1" id="Слой_1" xmlns="http://www.w3.org/2000/svg" xmlns:xlink="http://www.w3.org/1999/xlink" x="0px" y="0px"
	 viewBox="0 0 197 168.5" style="enable-background:new 0 0 197 168.5;" xml:space="preserve">
<style type="text/css">
	.st0{fill:#FFC37B;}
	.st1{fill:#CE413E;}
	.st2{fill:#E25E54;}
	.st3{fill:#FFA35F;}
	.st4{fill:#FFB469;}
	.st5{fill:#FFE8CA;}
	.st6{fill:#F7D9B5;}
	.st7{fill:#68413C;}
	.st8{fill:#659969;}
	.st9{fill:#CFE3E8;stroke:#628789;stroke-width:5.000000e-02;stroke-miterlimit:10;}
	.st10{fill:#141428;}
	.st11{fill:#EDEDED;}
	.st12{fill:#4F2A28;}
	.st13{fill:#351817;}
	.st14{fill:#9B6D6A;}
	.st15{opacity:0.5;fill:#FFE8CA;enable-background:new    ;}
</style>
<path class="st0" d="M114.1,24.2c-2.7-4.1-5.3-17.7-14.7-21.5c-2.8-1.1-2.2-3.6,4.5-2.4s23.3,6.1,33,25.8L114.1,24.2z"/>
<path class="st1" d="M125.2,27.6C120,13.8,102.3,1.7,104.8,1.5c3.2,0.2,22.3,7.7,30.8,26.4L125.2,27.6z"/>
<path class="st2" d="M121.7,23.2c-4.1-10.9-18.1-20.5-16.2-20.6c2.5,0.1,17,7.2,23.6,22L121.7,23.2z"/>
<path class="st0" d="M95.6,38.2c-1.7-0.7-5.4-19.6-20.7-27.1c-7.6-3.7,25.9-6.3,38.8,16.7L95.6,38.2z"/>
<path class="st1" d="M97.4,36.3c-1.4-0.7-5-16.3-17.3-23.6c-6.2-3.7,21.9-1.4,31.1,18.9L97.4,36.3z"/>
<path class="st2" d="M96.8,35.6c-1.3-0.8-3.7-14.2-15.7-22.1c-6-3.9,18.2,1.8,26.8,20.3L96.8,35.6z"/>
<path class="st3" d="M41,168.5c0-3.1,3.5-13.1,14.1-20.3l-10.3-14.1l-13,5.7c0,0-1.4,16.5,4.7,28.7L41,168.5z"/>
<path class="st3" d="M36.9,168.5h9c0,0-0.5-4.3-3.4-3.9S36.9,168.5,36.9,168.5z"/>
<path class="st0" d="M22.2,150.1c7.9,0,93.9,8.4,107.5-14.1s-10.3-70.1-11.1-70.1s-33.3-4.1-33.3-4.1S72.5,76.7,60.9,82.7
	c-19.4,10.1-52,8.7-50.1,24.9S22.2,150.1,22.2,150.1z"/>
<path class="st3" d="M118.6,65.9c-0.8,0-33.3-4.1-33.3-4.1S72.5,76.7,60.9,82.7c-0.4,0.2-0.9,0.4-1.3,0.7c7.2,8,14.4,29.6,14.4,35.6
	c0,12.6-5.5,23.2-25.1,22.8c-12.9-0.2-24.2-6-32.9-11.1c3,10.6,6.3,19.5,6.3,19.5c7.9,0,93.9,8.4,107.5-14.1S119.4,65.9,118.6,65.9z
	"/>
<path class="st0" d="M101.3,138.1c0,0-9,27.7-9.5,30.4h-5.5c-2.5-9.8-5.5-19.4-9-28.8c-2.3-5.8-0.9-21.8,9.2-24.9
	C93.1,112.8,101.3,138.1,101.3,138.1z"/>
<path class="st3" d="M84.7,145.1c3.4-0.8,7.8,5.2,9.8,13.4c0,0.2,0.1,0.3,0.1,0.5c2.8-9,6.7-20.9,6.7-20.9s-8.2-25.3-14.9-23.2
	c-10.1,3.1-11.4,19-9.2,24.9c1.5,3.8,2.8,7.7,4,11.4C81.7,147.9,82.9,145.6,84.7,145.1z"/>
<path class="st0" d="M127.7,135c0,0-13.6,30.8-14.2,33.5H108c0,0-2.6-22.3-6.5-27.2s-2.8-22.2,7.3-25.3
	C115.4,114,127.7,135,127.7,135z"/>
<path class="st3" d="M109.9,163.7c2.6-4.8,6.2-8.2,9.2-8.8c4-9.3,8.7-19.9,8.7-19.9s-12.3-21-18.9-19c-10.1,3.1-11.2,20.4-7.3,25.3
	c3.7,4.6,6.2,24.8,6.5,27C108.4,166.7,109.1,165.1,109.9,163.7z"/>
<path class="st0" d="M112.1,152.7c0,0-45.1-46.1-42.1-76.1S95,35.9,100.7,31s21.1-12.2,28.4-9.2s31.1,7.3,25.4,67.4
	C147.8,118.7,135.3,141.2,112.1,152.7z"/>
<path class="st4" d="M112.1,152.7c0,0-45.1-46.1-42.1-76.1S95,35.9,100.7,31s20.7-10.5,28-7.5c7.3,3,31.5,5.6,25.8,65.7
	C147.8,118.7,135.3,141.2,112.1,152.7z"/>
<path class="st0" d="M115.9,142.5c0,0-42.4-36.3-40.1-63.3c2.6-30.1,21.5-45.2,26.7-49.5s22.4-9.6,29-6.9s28.1,8.6,22.9,62.7
	C148.2,111.8,136.9,132.1,115.9,142.5z"/>
<path class="st5" d="M130.3,55.5c-22.7-21.4-23.6,19.4-23.6,19.4c-16,11.5-22.5,26.5-22.4,42.6c8.2,12.6,17.5,24.3,27.8,35.2
	c23.2-11.5,35.7-34,42.5-63.5c0.9-8.3,1.1-16.7,0.6-25.1C147.3,67.1,138.2,63,130.3,55.5z"/>
<path class="st6" d="M116.8,145c0,0-18.1-18.9-31.8-37c-0.5,3.1-0.8,6.3-0.8,9.5c8.4,12.8,17.7,25.1,27.8,36.6
	c12.8-6.3,22.3-17.4,29.4-29.7C135.6,132.3,126.7,140.6,116.8,145z"/>
<path class="st4" d="M9.1,106.9c-3.8-1.3-9.5-10.8-5.2-18.3c0,0,5.2,9.1,14.1,9.1L9.1,106.9z"/>
<path class="st7" d="M137.8,70.6c-0.5-0.2-12.9-4.1-16.2-7.2c-3.3-3.6-3.4-9.1-0.2-12.8l1.6,1.5c-2.8,3.1-2.8,7.7,0,10.8
	c3.1,2.9,14.9,7.2,15,7.2L137.8,70.6z"/>
<g>
	<path class="st8" d="M165.6,53.3c9.4,6,18.8,11.9,28.2,17.9c-13.9,8.8-27.8,17.7-41.7,26.5c-9.4-5.8-18.9-11.6-28.3-17.4
		L165.6,53.3z"/>
	<g>
		<path class="st9" d="M165.6,53.2c9.4,6,18.8,11.9,28.2,17.9c-13.9,8.8-27.8,17.7-41.7,26.5c-9.4-5.8-18.9-11.6-28.3-17.4
			L165.6,53.2z"/>
		<path class="st9" d="M165.6,52.8c9.4,6,18.8,11.9,28.2,17.9c-13.9,8.8-27.8,17.7-41.7,26.5c-9.4-5.8-18.9-11.6-28.3-17.4
			L165.6,52.8z"/>
		<path class="st9" d="M165.6,52.4c9.4,6,18.8,11.9,28.2,17.9C179.9,79.2,166,88,152.1,96.8c-9.4-5.8-18.9-11.6-28.3-17.4
			L165.6,52.4z"/>
		<path class="st9" d="M165.6,52.1C175,58,184.4,64,193.8,70c-13.9,8.8-27.8,17.7-41.7,26.5c-9.4-5.8-18.9-11.6-28.3-17.4
			L165.6,52.1z"/>
		<path class="st9" d="M165.6,51.7c9.4,6,18.8,11.9,28.2,17.9c-13.9,8.8-27.8,17.7-41.7,26.5c-9.4-5.8-18.9-11.6-28.3-17.4
			L165.6,51.7z"/>
		<path class="st9" d="M165.6,51.3c9.4,6,18.8,11.9,28.2,17.9c-13.9,8.8-27.8,17.7-41.7,26.5c-9.4-5.8-18.9-11.6-28.3-17.4
			L165.6,51.3z"/>
		<path class="st9" d="M165.6,50.9c9.4,6,18.8,11.9,28.2,17.9c-13.9,8.8-27.8,17.7-41.7,26.5c-9.4-5.8-18.9-11.6-28.3-17.4
			L165.6,50.9z"/>
	</g>
	<path class="st8" d="M165.6,50.7c9.4,6,18.8,11.9,28.2,17.9c-13.9,8.8-27.8,17.7-41.7,26.5c-9.4-5.8-18.9-11.6-28.3-17.4
		L165.6,50.7z"/>
	<g>
		<path class="st10" d="M153.8,93.2c-0.2,0-0.4,0-0.5,0.1c0,0-0.1,0,0-0.1c0-0.1,0.1-0.1,0.2-0.1c0.2,0,0.5,0,0.7,0
			c0.7,0.3,1.3,2.4,0.5,3c-0.1,0.1-0.3,0.2-0.4,0.2c0,0,0.1,0,0.2-0.1C155.2,95.7,154.7,93.4,153.8,93.2z"/>
		<path class="st10" d="M156,91.9c-0.2,0-0.4,0-0.5,0.1c0,0-0.1,0,0-0.1c0-0.1,0.1-0.1,0.2-0.1c0.2,0,0.5,0,0.7,0
			c0.7,0.3,1.3,2.4,0.5,3c-0.1,0.1-0.3,0.2-0.4,0.2c0,0,0.1,0,0.2-0.1C157.3,94.3,156.9,92.1,156,91.9z"/>
		<path class="st10" d="M158.1,90.5c-0.2,0-0.4,0-0.5,0.1c0,0-0.1,0,0-0.1c0-0.1,0.1-0.1,0.2-0.1c0.2,0,0.5,0,0.7,0
			c0.7,0.3,1.3,2.4,0.5,3c-0.1,0.1-0.3,0.2-0.4,0.2c0,0,0.1,0,0.2-0.1C159.4,93,159,90.7,158.1,90.5z"/>
		<path class="st10" d="M160.2,89.1c-0.2,0-0.4,0-0.5,0.1c0,0-0.1,0,0-0.1c0-0.1,0.1-0.1,0.2-0.1c0.2,0,0.5,0,0.7,0
			c0.7,0.3,1.3,2.4,0.5,3c-0.1,0.1-0.3,0.2-0.4,0.2c0,0,0.1,0,0.2-0.1C161.6,91.6,161.1,89.4,160.2,89.1z"/>
		<path class="st10" d="M162.4,87.8c-0.2,0-0.4,0-0.5,0.1c0,0-0.1,0,0-0.1c0-0.1,0.1-0.1,0.2-0.1c0.2,0,0.5,0,0.7,0
			c0.7,0.3,1.3,2.4,0.5,3c-0.1,0.1-0.3,0.2-0.4,0.2c0,0,0.1,0,0.2-0.1C163.7,90.2,163.2,88,162.4,87.8z"/>
		<path class="st10" d="M164.5,86.4c-0.2,0-0.4,0-0.5,0.1c0,0-0.1,0,0-0.1c0-0.1,0.1-0.1,0.2-0.1c0.2,0,0.5,0,0.7,0
			c0.7,0.3,1.3,2.4,0.5,3c-0.1,0.1-0.3,0.2-0.4,0.2c0,0,0.1,0,0.2-0.1C165.8,88.9,165.4,86.7,164.5,86.4z"/>
		<path class="st10" d="M166.6,85.1c-0.2,0-0.4,0-0.5,0.1c0,0-0.1,0,0-0.1c0-0.1,0.1-0.1,0.2-0.1c0.2,0,0.5,0,0.7,0
			c0.7,0.3,1.3,2.4,0.5,3c-0.1,0.1-0.3,0.2-0.4,0.2c0,0,0.1,0,0.2-0.1C168,87.5,167.5,85.3,166.6,85.1z"/>
		<path class="st10" d="M168.8,83.7c-0.2,0-0.4,0-0.5,0.1c0,0-0.1,0,0-0.1c0-0.1,0.1-0.1,0.2-0.1c0.2,0,0.5,0,0.7,0
			c0.7,0.3,1.3,2.4,0.5,3c-0.1,0.1-0.3,0.2-0.4,0.2c0,0,0.1,0,0.2-0.1C170.1,86.2,169.6,83.9,168.8,83.7z"/>
		<path class="st10" d="M170.9,82.4c-0.2,0-0.4,0-0.5,0.1c0,0-0.1,0,0-0.1c0-0.1,0.1-0.1,0.2-0.1c0.2,0,0.5,0,0.7,0
			c0.7,0.3,1.3,2.4,0.5,3c-0.1,0.1-0.3,0.2-0.4,0.2c0,0,0.1,0,0.2-0.1C172.2,84.8,171.8,82.6,170.9,82.4z"/>
		<path class="st10" d="M173,81c-0.2,0-0.4,0-0.5,0.1c0,0-0.1,0,0-0.1c0-0.1,0.1-0.1,0.2-0.1c0.2,0,0.5,0,0.7,0
			c0.7,0.3,1.3,2.4,0.5,3c-0.1,0.1-0.3,0.2-0.4,0.2c0,0,0.1,0,0.2-0.1C174.4,83.5,173.9,81.2,173,81z"/>
		<path class="st10" d="M175.2,79.6c-0.2,0-0.4,0-0.5,0.1c0,0-0.1,0,0-0.1c0-0.1,0.1-0.1,0.2-0.1c0.2,0,0.5,0,0.7,0
			c0.7,0.3,1.3,2.4,0.5,3c-0.1,0.1-0.3,0.2-0.4,0.2c0,0,0.1,0,0.2-0.1C176.5,82.1,176,79.9,175.2,79.6z"/>
		<path class="st10" d="M177.3,78.3c-0.2,0-0.4,0-0.5,0.1c0,0-0.1,0,0-0.1c0-0.1,0.1-0.1,0.2-0.1c0.2,0,0.5,0,0.7,0
			c0.7,0.3,1.3,2.4,0.5,3c-0.1,0.1-0.3,0.2-0.4,0.2c0,0,0.1,0,0.2-0.1C178.6,80.7,178.2,78.5,177.3,78.3z"/>
		<path class="st10" d="M179.4,76.9c-0.2,0-0.4,0-0.5,0.1c0,0-0.1,0,0-0.1c0-0.1,0.1-0.1,0.2-0.1c0.2,0,0.5,0,0.7,0
			c0.7,0.3,1.3,2.4,0.5,3c-0.1,0.1-0.3,0.2-0.4,0.2c0,0,0.1,0,0.2-0.1C180.7,79.4,180.3,77.2,179.4,76.9z"/>
		<path class="st10" d="M181.6,75.6c-0.2,0-0.4,0-0.5,0.1c0,0-0.1,0,0-0.1c0-0.1,0.1-0.1,0.2-0.1c0.2,0,0.5,0,0.7,0
			c0.7,0.3,1.3,2.4,0.5,3c-0.1,0.1-0.3,0.2-0.4,0.2c0,0,0.1,0,0.2-0.1C182.9,78,182.4,75.8,181.6,75.6z"/>
		<path class="st10" d="M183.7,74.2c-0.2,0-0.4,0-0.5,0.1c0,0-0.1,0,0-0.1c0-0.1,0.1-0.1,0.2-0.1c0.2,0,0.5,0,0.7,0
			c0.7,0.3,1.3,2.4,0.5,3c-0.1,0.1-0.3,0.2-0.4,0.2c0,0,0.1,0,0.2-0.1C185,76.7,184.6,74.4,183.7,74.2z"/>
		<path class="st10" d="M185.8,72.9c-0.2,0-0.4,0-0.5,0.1c0,0-0.1,0,0-0.1c0-0.1,0.1-0.1,0.2-0.1c0.2,0,0.5,0,0.7,0
			c0.7,0.3,1.3,2.4,0.5,3c-0.1,0.1-0.3,0.2-0.4,0.2c0,0,0.1,0,0.2-0.1C187.1,75.3,186.7,73.1,185.8,72.9z"/>
		<path class="st10" d="M188,71.5c-0.2,0-0.4,0-0.5,0.1c0,0-0.1,0,0-0.1c0-0.1,0.1-0.1,0.2-0.1c0.2,0,0.5,0,0.7,0
			c0.7,0.3,1.3,2.4,0.5,3c-0.1,0.1-0.3,0.2-0.4,0.2c0,0,0.1,0,0.2-0.1C189.3,74,188.8,71.7,188,71.5z"/>
		<path class="st10" d="M190.1,70.2c-0.2,0-0.4,0-0.5,0.1c0,0-0.1,0,0-0.1c0-0.1,0.1-0.1,0.2-0.1c0.2,0,0.5,0,0.7,0
			c0.7,0.3,1.3,2.4,0.5,3c-0.1,0.1-0.3,0.2-0.4,0.2c0,0,0.1,0,0.2-0.1C191.4,72.6,191,70.4,190.1,70.2z"/>
		<path class="st10" d="M192.2,68.8c-0.2,0-0.4,0-0.5,0.1c0,0-0.1,0,0-0.1c0-0.1,0.1-0.1,0.2-0.1c0.2,0,0.5,0,0.7,0
			c0.7,0.3,1.3,2.4,0.5,3c-0.1,0.1-0.3,0.2-0.4,0.2c0,0,0.1,0,0.2-0.1C193.5,71.3,193.1,69,192.2,68.8z"/>
	</g>
	<path class="st11" d="M142.9,70.6c0,0.5,0.3,0.7,0.4,0.8c5.5,2.8,10.9,5.6,16.4,8.4c0.5,0.2,1.4,0.6,2.6,0.5c0.8,0,1.4-0.2,1.9-0.3
		c5.8-3.4,11.6-6.8,17.4-10.2c0.4-0.2,0.7-0.7,0.6-1.2c0-0.7-0.7-1-0.7-1c-4.6-2.6-9.2-5.3-13.8-7.9c-0.2-0.2-0.7-0.5-1.5-0.6
		c-0.7-0.1-1.2,0.1-1.4,0.2c-7.2,3.5-14.4,7-21.6,10.4C143.1,69.9,142.9,70.2,142.9,70.6z"/>
</g>
<polygon class="st0" points="148.1,41.2 166.7,50.1 156.1,60.9 "/>
<path class="st5" d="M123.8,57.1c2.3,5.8,11.4,13.4,18.3,13.7c4.9,0.2,20.6-3.8,21.4-6.4c0.3-0.8-11.4-7.1-15.6-4.9
	c-3.8,1.9-14.8-2.2-20.1-6.4C124.6,50.8,122.1,52.9,123.8,57.1z"/>
<path class="st7" d="M163,65.4c-3.1,2-16.2-3.8-15.3-6.6s17.3-11,20.6-9.2S168.1,62.1,163,65.4z"/>
<path class="st12" d="M159.6,59c-4.8,1.2-9.3,0.8-11.7-0.8c-0.1,0.1-0.2,0.3-0.3,0.5c-0.9,2.8,12.2,8.6,15.3,6.6
	c3.6-2.3,6.4-8.3,6.5-12.3C168,55.5,164.3,57.9,159.6,59z"/>
<path class="st13" d="M160.6,64.8c-2.4,0.4-7.9-1.6-7.1-2.9s5.7-0.9,7.5,0S161.8,64.6,160.6,64.8z"/>
<path class="st14" d="M168.5,50.8c-1.4-1.1-3.3-1.1-4.7,0.1c-1.4,1.4-1.4,4-0.5,4.9s2.8,0.4,4.2-1S169.4,51.7,168.5,50.8z"/>
<path class="st14" d="M161.1,53.6c0.6-0.4,0.9-1.1,0.6-1.6s-1-0.4-1.7,0s-0.9,1.1-0.6,1.6S160.4,54,161.1,53.6z"/>
<path class="st7" d="M132,43.5c-2.8,1.2-4.3-1-2.3-1.5S136.4,41.6,132,43.5z"/>
<path class="st7" d="M145.4,41.1c-2,0.6-2.7-1.9-1.3-2S148.6,40.2,145.4,41.1z"/>
<path class="st0" d="M87.4,168.5h9c0,0,0.9-3.2-3.3-3.1C89.9,165.5,87.4,168.5,87.4,168.5z"/>
<path class="st0" d="M108.4,168.5h9c0,0,0.9-3.2-3.3-3.1C110.8,165.5,108.4,168.5,108.4,168.5z"/>
<path class="st0" d="M16.3,168.5h5.4c0,0-0.5-7.6,1.1-10.8s14.1-13.3,14.1-13.3s-7-50.9-16-49.3s-23,22.5-20.6,34.9
	S16.3,168.5,16.3,168.5z"/>
<path class="st3" d="M16.4,153.9c-6.1-1.1-15.1-15.4-16-30.4c-0.4,2.2-0.4,4.5,0,6.6c2.4,12.4,16,38.4,16,38.4h5.4
	c0,0-0.5-7.6,1.1-10.8s15-13.3,15-13.3c-0.4-1.1-0.6-2.1-0.9-3.2C29.2,148.3,20.3,154.6,16.4,153.9z"/>
<path class="st3" d="M16.7,168.5h10.1c0,0-0.5-4.3-3.8-3.9S16.7,168.5,16.7,168.5z"/>
<path class="st15" d="M125.7,39.7c-2.3,2.8-4.3-1.4-3.2-2.5s5.2-3.9,6.8-3.6s1.2,1.6,0.8,1.9C128.5,36.8,127,38.2,125.7,39.7z"/>
<path class="st15" d="M142.5,34.2c4.1,1,1.9-3.2,0.5-3.4s-5.4,0.1-6.4,1c-1,0.9-0.3,1.6,0.2,1.7C138.7,33.5,140.6,33.8,142.5,34.2z"
	/>
<path class="st3" d="M29.2,148.1c4.3-3.2,5.3-11.5,2.2-22.3c0,0,6.8,6.4,6.3,14.6S29.2,148.1,29.2,148.1z"/>
<path class="st4" d="M88.5,42.9l6-7.5c-4.5,1.2-8.4,3.9-11.1,7.6L88.5,42.9z"/>
<path class="st4" d="M84.4,48.2l5.8-7.1c0,0-6.9,1.6-10.9,7.3L84.4,48.2z"/>
<path class="st4" d="M81.1,53.9l4.7-7.5c0,0-6.9,1.7-10,7.6L81.1,53.9z"/>
<path class="st4" d="M76.8,59.4l4.4-7.1c0,0-6.2,2.3-9.1,7.8L76.8,59.4z"/>
<path class="st4" d="M72.7,65.9l4.1-6.7c0,0-6,2.3-8.8,7.4L72.7,65.9z"/>
<path class="st4" d="M71,71.1l3-6.7c0,0-5.5,2.7-7.3,7.8L71,71.1z"/>
<path class="st4" d="M71.2,76.1l0.1-7.1c-2.2,2.5-3.4,5.8-3.3,9.1L71.2,76.1z"/>
<path class="st4" d="M72.2,81.8l-1.9-6.6c0,0-2.6,6.5-0.8,11.2L72.2,81.8z"/>
<path class="st4" d="M74.8,90.1l-2.7-9.2c-1.6,4.3-1.7,9-0.2,13.3L74.8,90.1z"/>
<path class="st4" d="M76.7,96.5l-2.5-8.9c-1.6,4.2-1.7,8.7-0.3,12.9L76.7,96.5z"/>
<path class="st4" d="M79.5,102.5l-3.4-8.2c0,0-2.6,6.5,0.5,12.5L79.5,102.5z"/>
<path class="st4" d="M81.6,109.2l-3.3-7.7c0,0-1.7,6.3,1.2,11.9L81.6,109.2z"/>
<path class="st4" d="M84.2,113.5l-2.8-4.4c0,0-0.9,5.4,3,11.6L84.2,113.5z"/>
<path class="st6" d="M92.3,126.5l-7.9-12.4c0.1,6.4,2.2,12.5,6,17.6L92.3,126.5z"/>
<path class="st6" d="M97.1,133.8l-6.5-10.3c-0.2,5.4,1.4,10.7,4.6,15L97.1,133.8z"/>
<path class="st6" d="M102.1,139.7l-6.5-8.2c-0.3,4.7,1.4,9.3,4.6,12.7L102.1,139.7z"/>
<path class="st6" d="M106.4,144.1l-6-5.2c0.1,4,1.7,7.7,4.3,10.7L106.4,144.1z"/>
<path class="st6" d="M110.5,148l-6.1-5.7c0,0,1.7,8.1,6.7,12.3L110.5,148z"/>
</svg>
