<?xml version="1.0" encoding="utf-8"?>
<!-- Generator: Adobe Illustrator 24.2.1, SVG Export Plug-In . SVG Version: 6.00 Build 0)  -->
<svg version="1.1" id="Слой_1" xmlns="http://www.w3.org/2000/svg" xmlns:xlink="http://www.w3.org/1999/xlink" x="0px" y="0px"
	 viewBox="0 0 189.2 187.9" style="enable-background:new 0 0 189.2 187.9;" xml:space="preserve">
<style type="text/css">
	.st0{fill:#FF9255;}
	.st1{fill:#FFC37B;}
	.st2{fill:#FFA35F;}
	.st3{fill:#FFB469;}
	.st4{fill:#FFE8CA;}
	.st5{fill:#EFCEA8;}
	.st6{fill:#4F2A28;}
	.st7{fill:#E25E54;}
	.st8{fill:#CE413E;}
	.st9{fill:#EDC4A9;}
	.st10{fill:#C4937A;}
	.st11{fill:#D8AC93;}
	.st12{fill:#1C1C99;}
	.st13{fill:#2D2DBA;}
	.st14{fill:#3C3CD3;}
	.st15{fill:#68413C;}
	.st16{opacity:0.5;fill:#FFE8CA;enable-background:new    ;}
	.st17{fill:#331717;}
	.st18{fill:#895B58;}
</style>
<path class="st0" d="M130.3,172.2l-0.4-0.2l-0.9,14.6c19.6,0.5,19.8-14.5,19.8-14.5C139.7,178.3,135.5,175.3,130.3,172.2z"/>
<path class="st0" d="M127.5,187.9c7.2-10.1,15.9-39.5-4.9-44.9l-7.5-36.9l-56.7,15.3l14.1,66.5H127.5z"/>
<path class="st1" d="M74.1,187.9c2.3-9.6,1.5-23.9-4-34.6c-1.2-2.4,0.4-19.9,0.4-19.9l-17.3-20.2c0,0,0.6,35.1,2,43.9
	c0,0,12.2,14.4,11,30.9H74.1z"/>
<path class="st2" d="M73,164.5c1,3.3,1.7,6.6,2.2,10c-0.3-7.1-1.4-15.3-4.7-21.6c-1.2-2.4,1.4-19.4,1.4-19.4l-19.9-21
	c0,0,1.3,15.2,1.9,27.8C60,138.5,68.5,149.3,73,164.5z"/>
<path class="st1" d="M74.1,187.9H59.2c0,0,0.9-6.1,3-6.8s8.7,1.7,8.7,1.7L74.1,187.9z"/>
<path class="st1" d="M101.2,187.9c-2.1-9.5-1.5-26.5,4.3-37.2c1.3-2.4,0.6-17,0.6-17l16.2-23.7c0,0,2.6,36.7,1.1,45.4
	c0,0-15,16.1-14.3,32.4L101.2,187.9z"/>
<path class="st2" d="M100.1,175.1c0.5-4.9,1.7-9.7,3.3-14.3c5.2-14.4,14.2-22.9,20.3-20.7l0.1,0.1c-0.3-13.5-0.1-32.7-0.1-32.7
	l-19.4,25c0,0,2,15.4,0.7,17.8C101.3,156.9,100.3,166.8,100.1,175.1z"/>
<path class="st3" d="M84.7,160c-12.7-5.7-44.9-39.5-45.4-63.9c0,0,21.2-46.7,36.1-55.1c11.9-6.7,29.1,0.1,34.1,6.1
	s18.7,40.5,21.4,52.9C130.9,100,101.5,151.7,84.7,160z"/>
<path class="st1" d="M84.7,158.7c-11.4-5.7-38.3-39.1-38.7-63.3c0,0,16.8-46.2,30.3-54.5c10.8-6.6,26.4,0.1,30.9,6s15,40,17.5,52.3
	C124.7,99.3,100,150.5,84.7,158.7z"/>
<path class="st3" d="M62.8,56.1c-4.4,2.3-8.3,5.5-11.5,9.3l9.3-2.9L62.8,56.1z"/>
<path class="st3" d="M58,62.2c-4.2,2.5-7.8,5.7-10.7,9.7l9-3.3L58,62.2z"/>
<path class="st3" d="M54,67.7c-3.7,2.9-6.8,6.5-9,10.6l8.2-4.1L54,67.7z"/>
<path class="st3" d="M50.4,74.6c-3.4,3-6.2,6.7-8.1,10.9l7.8-4.4L50.4,74.6z"/>
<path class="st3" d="M46.2,84.1c-3.4,3-6.1,6.7-8,10.8l7.5-4.3L46.2,84.1z"/>
<path class="st3" d="M42.8,90.4c-2.6,3.6-4.4,7.8-5.4,12.1l6.3-5.6L42.8,90.4z"/>
<path class="st3" d="M40.6,98.4c-0.8,4.4-0.7,8.9,0.4,13.2l3.2-7.7L40.6,98.4z"/>
<path class="st3" d="M111.8,55.1c4.1,2.7,7.7,6.2,10.5,10.3l-9-3.7L111.8,55.1z"/>
<path class="st3" d="M116,61.6c3.9,2.8,7.2,6.4,9.7,10.6l-8.6-4.1L116,61.6z"/>
<path class="st3" d="M119.4,67.5c3.4,3.2,6.1,7,8,11.3l-7.8-4.8L119.4,67.5z"/>
<path class="st3" d="M122.4,74.6c3.1,3.3,5.5,7.2,7.1,11.6l-7.2-5L122.4,74.6z"/>
<path class="st3" d="M125.7,84.4c3.1,3.3,5.4,7.2,6.9,11.4l-7-4.9L125.7,84.4z"/>
<path class="st3" d="M128.6,91c2.3,3.9,3.7,8.1,4.2,12.6l-5.7-6.2L128.6,91z"/>
<path class="st3" d="M129.9,99.2c0.4,4.4-0.1,8.9-1.5,13.1l-2.5-7.9L129.9,99.2z"/>
<path class="st4" d="M104.3,81.3l-42.8-5.1c-11.9,8.4-14.9,22.7-14.9,22.7c-0.6,9.6,2.5,21,7.4,31.7c10.4,14.2,23.4,24.4,30.5,27.6
	c6.7-3.3,15.5-11.5,23.5-22.5c4.2-9.9,7.6-20.2,10-30.7C115.3,94.3,104.3,81.3,104.3,81.3z"/>
<path class="st5" d="M110,130.4c-8.7,11-18.1,21.1-25.3,24.4c-7.5-3.1-21.3-14.5-32.4-28.2c0.5,1.3,1.1,2.7,1.7,4
	c10.3,14.2,23.5,26.2,30.6,29.4c6.7-3.3,15.3-13.4,23.3-24.4c1-2.2,1.8-4.4,2.7-6.6L110,130.4z"/>
<path class="st6" d="M74.1,89c0,1.2-0.2,3.1,2.8,4.1s6.3,1.4,7,1.2s3.6-3.3,3.6-3.3l-5.7-3.3L74.1,89z"/>
<path class="st1" d="M68.8,46.5c-1.7-0.8-4.3-2.6-5-5.2C62.5,36.9,71.6,4.5,78.3,0c0,0,8.1,27.2,5.9,39.5L68.8,46.5z"/>
<path class="st7" d="M69.3,42.5c-1.7-0.7-3.1-2.1-3.8-3.9c-1-3.4,5.9-27.8,10.9-31.2c0,0,6.1,20.5,4.5,29.8L69.3,42.5z"/>
<path class="st1" d="M94.2,39C91.4,34.7,99,8.6,97.3,0.1c0,0,9.1,6.1,12,17.2s6.6,33.2,2.4,32.5S94.2,39,94.2,39z"/>
<path class="st8" d="M96.1,37c-2.3-3.6,4-25.5,2.6-32.6c4.5,3.4,7.7,8.2,9,13.6c2.4,9.3,5.6,28.3,2.1,27.7S96.1,37,96.1,37z"/>
<g>
	<path class="st9" d="M169.5,107.8c-4.5-0.1-9-0.2-13.6-0.4c-0.5-0.5-1.1-1-1.7-1.4c-8.3-1-16.5-1.9-24.8-2.9c-2-0.1-4-0.2-6-0.2
		c-0.2,0.2-0.4,0.5-0.6,0.8c-1.4-1.5-1.9-3.2-1.3-4.7c0.9-2.4,4.8-4,9-3.2C143.6,99.8,156.6,103.9,169.5,107.8z"/>
	<path class="st10" d="M155.9,107.5c-9-0.2-18-0.5-27-0.7c-2.6-0.4-4.7-1.6-6-3.1c0.2-0.3,0.4-0.5,0.6-0.8c2,0.1,4,0.2,6,0.2
		c8.3,1,16.5,1.9,24.8,2.9C154.9,106.5,155.5,107,155.9,107.5z"/>
	<path class="st11" d="M125.7,100.1c0.8-0.8,2.6-1.1,4.4-0.5c7.9,1.8,15.8,3.5,23.7,5.3c0.1,0.4,0.3,0.8,0.4,1.2
		c-8.3-1-16.5-1.9-24.8-2.9c-2.1,0.2-3.9-0.6-4.3-1.6C124.9,100.9,125.6,100.2,125.7,100.1z"/>
	<path class="st12" d="M129,106.8L12.3,88.3c-0.4-0.7-1.1-2.1-1.2-3.9l118.5,18.7c-1.4,0.1-2.3,0.9-2.2,1.8
		C127.3,105.7,128,106.4,129,106.8z"/>
	<path class="st13" d="M129.5,103.2L11.1,84.5c0-0.6,0-1.3,0.1-1.9l0-0.1c0.1-0.6,0.3-1.1,0.5-1.6l118.5,18.7
		c-0.2,0.1-1.3,0.5-1.5,1.6C128.4,102.2,129.4,103.1,129.5,103.2z"/>
	<path class="st14" d="M130.1,99.6L11.6,80.8c0.7-1.7,1.8-2.9,2.4-3.4l116.7,18.4c-0.1,0-1.7,0.4-1.9,1.5
		C128.6,98.1,129.1,99,130.1,99.6z"/>
	<path class="st14" d="M149.3,101.6c-0.4,0.5-1.1,1.3-1.3,2.6c-0.3,1.4,0.2,2.6,0.4,3.1c7,0.2,14.1,0.4,21.1,0.6
		C162.8,105.8,156,103.7,149.3,101.6z"/>
</g>
<path class="st5" d="M83.5,88.4c-2.9,2.9-12.4,4.3-18.1-0.9s-5.4-9-2.2-12.3s17.1-0.8,19.1,1.6S83.5,88.4,83.5,88.4z"/>
<path class="st5" d="M79.4,88c1.7,3.7,10.1,10.8,17.2,7.8s9.6-11.3,7.7-15.6s-16.2-4-18.9-2.4S79.4,88,79.4,88z"/>
<path class="st4" d="M84.2,87.3c-2.9,2.8-12.4,4.1-18.2-0.8s-5.4-8.5-2.2-11.6S81,74.1,83,76.4S84.2,87.3,84.2,87.3z"/>
<path class="st4" d="M80.1,86.9c1.7,3.5,10.1,10.2,17.2,7.4s9.6-10.7,7.7-14.7s-16.2-3.8-19-2.3S80.1,86.9,80.1,86.9z"/>
<path class="st1" d="M82.1,79.2c3.2,1.4,14.6,7.1,21.1,5.1s1.8-9-1.7-10.7s-16.5-0.4-18.8,0.6S82.1,79.2,82.1,79.2z"/>
<path class="st1" d="M85,78.2c-3.3,1.2-14.5,2.3-20.7-0.5s-2.9-6.3,0.8-7.7c3.7-1.4,17.7,1.4,19.9,2.7S85,78.2,85,78.2z"/>
<path class="st15" d="M98.5,66.4c0.4-1.6,0.3-3-0.4-3.2s-1.5,1.1-1.9,2.7s-0.2,3,0.4,3.2S98.1,68,98.5,66.4z"/>
<path class="st15" d="M75.6,62.9c0.2-1.7-0.2-3-0.9-3.1s-1.3,1.3-1.5,2.9c-0.2,1.7,0.2,3,0.9,3.1S75.4,64.6,75.6,62.9z"/>
<path class="st5" d="M72,97.8c1.3,0.8,3.3,1.8,5.8,2.3c3.5,0.8,6.5,0.3,8.2-0.1c-2.7-0.4-5.3-0.8-8-1.3C76,98.4,74,98.1,72,97.8z"/>
<path class="st2" d="M116.4,187.9h14.9c0,0-0.7-6.1-2.8-6.8s-8.7,1.7-8.7,1.7L116.4,187.9z"/>
<path class="st1" d="M101.2,187.9h14.9c0,0-0.7-6.1-2.8-6.8s-8.7,1.7-8.7,1.7L101.2,187.9z"/>
<path class="st16" d="M67.4,55.8c-1.1,0.9,0.1,3.8,2.1,2.1c5-4.2,8.7-0.6,8.6-2.5S71.4,52.6,67.4,55.8z"/>
<path class="st16" d="M106.5,60.4c0.8,1.1-1,3.7-2.4,1.5c-3.5-5.3-7.8-2.6-7.2-4.4S103.7,56.4,106.5,60.4z"/>
<path class="st15" d="M83.1,86.3c-4.3-0.6-10.9-6.6-10.3-10.5s21.7-0.5,22.6,1.3S88.9,87.1,83.1,86.3z"/>
<path class="st6" d="M84.3,79c-4.9-0.6-9.1-1.9-11.4-3.4c0,0.1,0,0.1-0.1,0.2c-0.6,4,6,9.9,10.3,10.5c4.7,0.7,10.5-4.6,12-7.6
	C91.6,79.4,87.9,79.5,84.3,79z"/>
<path class="st17" d="M79.8,83.6c-2.3-0.7-5.9-4.1-4.9-4.8s3.9,0.6,4.5,1.2S79.8,83.6,79.8,83.6z"/>
<path class="st17" d="M84.9,84.8c2.7-0.2,7.3-2.7,6.4-3.6s-4.5-0.3-5.2,0.2S84.9,84.8,84.9,84.8z"/>
<path class="st18" d="M94,77.6c0-0.6-1.3-1.2-3.3-1.5c-2.5-0.3-4.8,0.1-4.3,1s2.7,1.4,4.8,1.4C92.8,78.6,94,78.2,94,77.6z"/>
<path class="st18" d="M84.6,76.8c0-0.4-0.8-0.8-2.1-1c-1.6-0.2-3,0.1-2.7,0.7s1.7,0.9,3,0.9C83.9,77.5,84.6,77.2,84.6,76.8z"/>
<path class="st8" d="M76.4,7.4c-1.2,0.8-2.4,2.7-3.7,5.3l0,0c2.8,0.5,6.7,14.4,6.2,25.4l1.9-0.9C82.5,28,76.4,7.4,76.4,7.4z"/>
<path class="st7" d="M107.8,18.1c-0.9-3.4-2.5-6.6-4.7-9.4c-3.1,4-4.2,17.6-1.4,29.4c0.3,1.3,0.6,2.6,1,3.8c2.8,1.9,5.7,3.7,7.2,4
	C113.4,46.4,110.2,27.4,107.8,18.1z"/>
<path class="st10" d="M117,33.8v2.8C117,35.7,117,34.8,117,33.8L117,33.8z"/>
</svg>
