<?xml version="1.0" encoding="utf-8"?>
<!-- Generator: Adobe Illustrator 24.2.1, SVG Export Plug-In . SVG Version: 6.00 Build 0)  -->
<svg version="1.1" id="Слой_1" xmlns="http://www.w3.org/2000/svg" xmlns:xlink="http://www.w3.org/1999/xlink" x="0px" y="0px"
	 viewBox="0 0 235.6 122.1" style="enable-background:new 0 0 235.6 122.1;" xml:space="preserve">
<style type="text/css">
	.st0{fill:#FFC37B;}
	.st1{fill:#FFA35F;}
	.st2{fill:#FFB469;}
	.st3{fill:#E25E54;}
	.st4{fill:#CE413E;}
	.st5{fill:#FFE8CA;}
	.st6{fill:#EFCEA8;}
	.st7{fill:#68413C;}
	.st8{fill:#AA533F;}
	.st9{fill:#4F2A28;}
	.st10{fill:#381C1B;}
	.st11{fill:#89615D;}
	.st12{opacity:0.5;fill:#FFE8CA;enable-background:new    ;}
	.st13{clip-path:url(#SVGID_2_);}
	.st14{fill:#C5D1D8;}
	.st15{fill:#AA513C;}
	.st16{fill:#823D22;}
	.st17{fill:#999999;}
	.st18{fill:#FFFFFF;}
	.st19{fill:#C019D8;}
</style>
<path class="st0" d="M147.6,122.5l-55.8-0.2c0,0,10.2-11.3,22.9-11.1c7.4,0,14.7,1.8,21.3,5.2C136.1,116.3,146.4,112.5,147.6,122.5z
	"/>
<path class="st1" d="M7.7,121.9l108.2,0.4c0,0,10-25.1,6.5-37.3S80.1,48.3,72.9,59.5S60.4,81.3,43.6,79.4S8.7,77.3,2.5,90
	C-5.3,106,7.7,121.9,7.7,121.9z"/>
<path class="st2" d="M58.3,122.2l12.2-9.3c0,0-9.5-9.9-14.8-7C46.2,111,58.3,122.2,58.3,122.2z"/>
<path class="st2" d="M32.7,119.6c-0.1-6.5-6.2-44.2-14-34.3c-22.3,28.2,4.8,36.7,4.8,36.7L32.7,119.6z"/>
<path class="st2" d="M45.8,122.1c0,0-0.5-6.3-5.5-6.8S23.5,122,23.5,122L45.8,122.1z"/>
<path class="st2" d="M93.6,38.7c0,0-6.8-33.4-4.4-37.9c0.7-1.3,24.1,14.5,23,44.3C112.1,48.6,93.6,38.7,93.6,38.7z"/>
<path class="st3" d="M103.3,39.9c0,0-11.4-31.3-9.8-35.1c0.5-1.1,18,14.5,17.6,38.1C111.1,45.8,103.3,39.9,103.3,39.9z"/>
<path class="st4" d="M93.5,4.7c-0.3,0.7-0.2,2.5,0.3,4.9c4.3,3.6,14.9,16.3,15.8,33.9c0.9,0.2,1.5,0.1,1.5-0.7
	C111.5,19.3,94,3.6,93.5,4.7z"/>
<path class="st0" d="M83.7,35.3c-5.3,2.8-23.4,21.6-23.4,60c0,0,5.6,18.8,49.4,24.3c0,0,14.8-10.8,20.1-23.7c0,0,4.6-39.5-19.4-56.3
	C104.4,35.4,91.8,31,83.7,35.3z"/>
<path class="st2" d="M67,94.7c0-31.3,10.1-50.7,17.4-59.8c-0.3,0.1-0.5,0.2-0.8,0.3c-5.3,2.8-23.4,21.6-23.4,60
	c0,0,4.9,16.2,40.8,22.9C71.3,110.1,67,94.7,67,94.7z"/>
<path class="st5" d="M94,80.7c-10.5,7.5-19.6,20.6-18.7,29c13.7,8.8,25.8,8.8,34.4,9.8c0,0,15.2-10.8,20.6-23.5
	C135.8,83.8,108,91.9,94,80.7z"/>
<path class="st6" d="M110.5,116.2c-8.7-1.1-21.1-2.4-34.9-10.7c-0.3,1.4-0.4,2.8-0.3,4.2c13.7,8.8,25.9,9.8,34.4,10.8
	c0,0,15.1-11.8,20.6-24.5c0.5-1,0.7-2.1,0.7-3.2C124.9,104.9,110.5,116.2,110.5,116.2z"/>
<path class="st6" d="M80.2,112v-0.2l-4.8-2.3c0.5,2.3,5.2,5.7,5.2,5.7L80.2,112z"/>
<path class="st6" d="M126.7,101l-0.1-0.2l3.1-4.1c0.6,2.3-2,7.4-2,7.4L126.7,101z"/>
<path class="st6" d="M124.1,105l-0.1-0.2l3.1-4.1c0.6,2.3-2,7.4-2,7.4L124.1,105z"/>
<path class="st6" d="M121.5,108.4v-0.2l3.7-3.7c0.2,2.4-3,7-3,7L121.5,108.4z"/>
<path class="st6" d="M118.5,111.4v-0.2l3.7-3.7c0.2,2.4-3,7-3,7L118.5,111.4z"/>
<path class="st6" d="M115.4,114.6v-0.2l3.7-3.7c0.2,2.4-3,7-3,7L115.4,114.6z"/>
<path class="st6" d="M112.1,118v-0.2l3.7-3.7c0.3,2.4-3,7-3,7L112.1,118z"/>
<path class="st0" d="M75.9,46.3c3.3,1.5,20.6-1.7,14.7-12.5C88.1,29.2,62.5,2.9,59,4.6C56.6,5.7,66.1,41.8,75.9,46.3z"/>
<path class="st3" d="M75.2,42.4c2.6,1.2,16.2-1.3,11.5-9.9C84.8,29,64.7,8.3,61.9,9.6C60,10.5,67.5,39,75.2,42.4z"/>
<path class="st0" d="M114,122.3l-55.8-0.2c0,0,5.8-11,18.5-10.8c7.4,0,14.7,1.8,21.3,5.2C98,116.5,112.8,112.4,114,122.3z"/>
<path class="st2" d="M74.2,114.6c0-1.2,0.4-2.4,1.3-3.2c-11.8,0.5-17.2,10.8-17.2,10.8l55.8,0.2c0-0.2-0.1-0.4-0.1-0.6
	C101.8,122.6,74.5,119.2,74.2,114.6z"/>
<path class="st7" d="M105.8,65.6c0-1.5-0.7-3.2-1.6-3.2s-1.6,1.8-1.7,3.2s0.8,1.8,1.7,1.8S105.7,67.1,105.8,65.6z"/>
<path class="st7" d="M118.5,64.2c0-1.4-0.7-2.6-1.5-2.6s-1.4,1.1-1.4,2.5c0,1.4,0.6,1.7,1.4,1.7S118.5,65.7,118.5,64.2z"/>
<path class="st1" d="M3.1,74C-0.6,79.7,1.2,88.1,5,89.4l7.3-4.9C8.9,83.8,3.1,74,3.1,74z"/>
<path class="st0" d="M125,71.8c0,0,12.5,7.3,13.3,10.4c0.6,2.4-21.6-2.1-21.6-2.1S121.7,70.7,125,71.8z"/>
<path class="st5" d="M94,80.7c0.7,6.9,21.1,22.7,32.2,9.8c3.4-3.9-3.7-8.4-3.7-8.4S109.6,87.2,94,80.7z"/>
<path class="st5" d="M120.7,90.4c0.7,4.8,6.4,6.6,10.3,4.5c3.9-2.2,8.7-8,5.6-13.1C134,77.4,120,85.6,120.7,90.4z"/>
<path class="st7" d="M130.5,92c-3.3,0.4-14.1-6.7-13.2-9.1s11.8-4.2,14.6-3.7c4.7,0.8,7.8,2.4,8.5,4.3C141.6,86.6,136,91.3,130.5,92
	z"/>
<path class="st8" d="M90.3,76.9l2.4-1.4c0.1,0.2,5.5,20.8,27.1,20.2v0.6C106.8,96.7,95,89,90.3,76.9z"/>
<path class="st9" d="M117.7,82.4c-0.2,0.1-0.3,0.3-0.4,0.5c-0.9,2.4,9.9,9.5,13.2,9.1c5-0.6,10.1-4.7,10.1-7.7
	C136.6,85.7,121.2,85.6,117.7,82.4z"/>
<path class="st10" d="M129.8,90.8c-1.5,0.3-7-2.5-6.2-3.5s7.5-0.7,8.6,0S130.5,90.6,129.8,90.8z"/>
<path class="st11" d="M138.5,83c0-0.7-1.7-1.2-3.8-1.2s-3.8,0.5-3.8,1.2s1.7,1.2,3.8,1.2S138.5,83.6,138.5,83z"/>
<path class="st4" d="M86.7,32.6C84.8,29,64.7,8.3,61.9,9.6c-0.2,0.1-0.3,0.7-0.3,1.6c4,0.8,21,21.2,22.7,24.7
	c0.8,1.5,0.9,3.2,0.4,4.7C87.3,39,88.8,36.4,86.7,32.6z"/>
<path class="st8" d="M87.7,77.4c0,0,4.2,0.6,6.8-3.9l-1.8-1.2c0,0-1.9,3.8-4.7,4.5L87.7,77.4z"/>
<path class="st12" d="M105.3,56.4c-2.1,0-7,2.5-8,7.1l-3.6-2c0,0,1.4-7.7,11-6.7L105.3,56.4z"/>
<path class="st12" d="M110.3,56.8c1.7-0.8,7.9-1.1,10.6,2.7l0.6-3.4c-3.2-2.8-7.8-3.2-11.4-1L110.3,56.8z"/>
<path class="st2" d="M72.8,107v-0.2l-4.8-2.3c0.5,2.3,5.2,5.7,5.2,5.7L72.8,107z"/>
<path class="st2" d="M69,104.3v-0.2l-4.4-3.5c0.4,2.2,3.8,6.9,3.8,6.9L69,104.3z"/>
<path class="st2" d="M65.6,100.9l-5.3-6.1c0.4,3.8,5,10.4,5,10.4L65.6,100.9z"/>
<path class="st2" d="M62.7,83.1l0.9-13.5c-1.5,3.3-4.3,16.6-4.3,16.6L62.7,83.1z"/>
<path class="st2" d="M63,93.2l-1.9-9.6C60,87.1,59.3,98,59.3,98L63,93.2z"/>
<g>
	<defs>
		<rect id="SVGID_1_" x="104.3" y="23.5" width="124.2" height="98.6"/>
	</defs>
	<clipPath id="SVGID_2_">
		<use xlink:href="#SVGID_1_"  style="overflow:visible;"/>
	</clipPath>
	<g class="st13">
		<path class="st14" d="M192.6,58.5c5.8-3.6,11.5-7.1,17.3-10.7c2.5,0.2,5,0.3,7.6,0.5c-5.5,5.4-11,10.8-16.6,16.2
			C198.1,62.5,195.3,60.5,192.6,58.5z"/>
		<path class="st14" d="M192.6,58.5c-5.8-2.1-10.8-1.8-14.9-1.6c-7.2,0.5-8.6,2-16.3,2.4c-3.7,0.2-6.8,0-8.8-0.1
			c0,0.4-0.1,1.1-0.5,1.9c-0.4,0.9-1,1.4-1.4,1.7c1.6,1.1,4.3,2.9,7.8,4.5c3.4,1.6,20.8,9.4,34.1,1.1c1.7-1.1,4.3-3,6.8-6.4
			C197.9,61,195.6,59.6,192.6,58.5z"/>
		<path class="st15" d="M171,135.6c-15.1,0.3-30.3,0.7-45.4,1c8.2-24.6,16.3-49.2,24.5-73.9c16-0.5,32.1-1,48.1-1.5
			C189.1,86.1,180.1,110.9,171,135.6z"/>
		<path class="st16" d="M194.6,115.7c-7.8,6.6-15.7,13.3-23.5,19.9c9.1-24.8,18.1-49.6,27.2-74.3c6.7-4.5,13.4-9.1,20.2-13.6
			C210.4,70.4,202.5,93,194.6,115.7z"/>
		<g>
			<path class="st17" d="M153.2,73.8c-1.4,3.6-2.7,7.3-4.1,10.9c1.1,0.3,2.2,0.7,3.3,1c0.5-2.1,1.1-4.1,1.6-6.2
				c0.4,1.4,0.8,2.9,1.2,4.3c1.1-1.2,2.1-2.4,3.2-3.6c-0.3,2.1-0.6,4.1-0.9,6.2c1.1,0.1,2.2,0.1,3.2,0.2c0.3-4.1,0.5-8.3,0.8-12.4
				c-0.9,0.3-1.8,0.6-2.8,0.9c-0.8,1.4-1.7,2.8-2.5,4.1c-0.5-1.4-0.9-2.8-1.4-4.2C154.3,74.6,153.7,74.2,153.2,73.8z"/>
			<path class="st17" d="M171.8,85c-0.4-3.6-0.7-7.1-1.1-10.7c-0.8,0.1-1.7,0.1-2.5,0.2c-1.3,3.8-2.6,7.6-3.9,11.4
				c0.7-0.2,1.4-0.3,2.2-0.5c0.5-1.3,0.9-2.6,1.4-3.9c0.5,0.2,1,0.3,1.5,0.5c-0.1,1.4-0.1,2.7-0.2,4.1L171.8,85z M168.2,79.9
				c0.3-1.1,0.7-2.2,1-3.2c0.1,1.2,0.1,2.4,0.2,3.6C169.1,80.1,168.7,80,168.2,79.9z"/>
			<path class="st17" d="M174.3,73.7c0,0.8,0,1.5,0,2.3c1,0.1,2,0.1,3,0.2c-1,3.4-1.9,6.8-2.9,10.2c0.6,0.2,1.1,0.3,1.7,0.5
				c1-3.5,2-6.9,3.1-10.4c0.5,0.3,1.1,0.5,1.6,0.8c0.2-0.8,0.4-1.6,0.6-2.4C179.1,74.4,176.7,74,174.3,73.7z"/>
			<path class="st17" d="M141.3,101.6c0,0.7,0,1.4,0,2.1c0.9,0.1,1.8,0.1,2.7,0.2c-0.9,3.1-1.8,6.2-2.6,9.3c0.5,0.1,1,0.3,1.6,0.4
				c0.9-3.2,1.9-6.3,2.8-9.5c0.5,0.2,1,0.5,1.5,0.7c0.2-0.7,0.4-1.5,0.6-2.2C145.7,102.2,143.5,101.9,141.3,101.6z"/>
			<path class="st17" d="M176.5,86.1"/>
			<path class="st17" d="M183.7,73.8c-1.3,3.9-2.6,7.8-3.9,11.7c2.3,0.4,4.6,0.8,6.8,1.2c0.4-0.9,0.8-1.8,1.2-2.7
				c-1.5-0.2-3.1-0.3-4.6-0.5c0.3-0.8,0.5-1.5,0.8-2.3c1.1,0,2.2,0.1,3.2,0.1c0.2-0.8,0.5-1.7,0.7-2.5c-1.2-0.1-2.3-0.1-3.5-0.2
				c0.5-0.9,1-1.8,1.4-2.7c0.9,0,1.9,0.1,2.8,0.1c0.3-0.6,0.5-1.3,0.8-1.9C187.6,74,185.7,73.9,183.7,73.8z"/>
			<path class="st17" d="M151.7,97.5c1,0.1,1.9,0.2,2.9,0.3c0.5-1.7,1-3.5,1.6-5.2c0,2.7,0,5.5,0,8.2c1.2-2.4,2.4-4.7,3.7-7.1
				c0,1.7,0.1,3.3,0.1,5c0.9,0.2,1.9,0.3,2.8,0.5c0.2-3.4,0.3-6.9,0.5-10.3c-0.9,0-1.9,0.1-2.8,0.1c-0.7,0.8-1.5,1.5-2.2,2.3
				c-0.3-1.1-0.6-2.3-0.9-3.4c-1-0.4-2.1-0.8-3.1-1.3C153.4,90.3,152.5,93.9,151.7,97.5z"/>
			<path class="st17" d="M172.3,88.6c-0.8,0.1-1.7,0.2-2.5,0.3c-1.7,3.5-3.4,6.9-5.1,10.4c0.9,0,1.7,0.1,2.6,0.1
				c0.4-1.4,0.7-2.7,1.1-4.1l2,0.3c0.1,1.3,0.1,2.5,0.2,3.8c0.7-0.1,1.4-0.1,2-0.2C172.5,95.7,172.4,92.1,172.3,88.6z M170.4,94.2
				c-0.5,0-1.1-0.1-1.6-0.1c0.3-0.8,0.6-1.7,1-2.5c0.3,0,0.6-0.1,0.8-0.1C170.5,92.4,170.5,93.3,170.4,94.2z"/>
			<path class="st17" d="M176.6,101.8c-1,0.1-2,0.2-3,0.4c-2,4.1-4,8.2-6,12.3c1,0,2.1,0.1,3.1,0.1c0.4-1.6,0.8-3.2,1.3-4.8l2.4,0.4
				c0.1,1.5,0.2,3,0.2,4.4c0.8-0.1,1.6-0.2,2.4-0.2C176.8,110.2,176.7,106,176.6,101.8z M174.3,108.4c-0.6-0.1-1.2-0.1-1.9-0.1
				c0.4-1,0.8-2,1.1-3c0.3,0,0.7-0.1,1-0.1C174.5,106.3,174.4,107.4,174.3,108.4z"/>
			<path class="st17" d="M151.2,101.9c-0.6,3.3-1.2,6.6-1.8,9.9c0.8,0.1,1.6,0.3,2.4,0.4c1.1-1.5,2.3-3,3.4-4.4
				c-0.4,2.2-0.8,4.3-1.2,6.5c0.7-0.1,1.4-0.2,2.1-0.2c0.7-3.9,1.5-7.8,2.2-11.7c-1,0-1.9,0-2.9,0c-1.1,2-2.3,4.1-3.4,6.1
				c0.5-2.1,1-4.1,1.5-6.2C152.8,102.1,152,102,151.2,101.9z"/>
			<path class="st17" d="M162.2,101.8c0.9,0,1.8,0,2.6-0.1c-0.5,1.7-1,3.4-1.5,5.1c1.7-1.5,3.5-3,5.2-4.5c0.5,0.7,1,1.5,1.4,2.2
				c-1.5,1.4-3.1,2.8-4.6,4.2c0.5,1.6,1,3.1,1.5,4.7c-0.7,0.4-1.3,0.8-2,1.2c-0.7-1.9-1.3-3.7-2-5.6c-0.5,1.7-0.9,3.4-1.4,5.1
				c-0.7-0.3-1.5-0.6-2.2-0.9C160.2,109.5,161.2,105.6,162.2,101.8z"/>
		</g>
		<g>
			<path class="st18" d="M152.5,72.3c-1.4,3.6-2.7,7.3-4.1,10.9c1.1,0.3,2.2,0.7,3.3,1c0.5-2.1,1.1-4.1,1.6-6.2
				c0.4,1.4,0.8,2.9,1.2,4.3c1.1-1.2,2.1-2.4,3.2-3.6c-0.3,2.1-0.6,4.1-0.9,6.2c1.1,0.1,2.2,0.1,3.2,0.2c0.3-4.1,0.5-8.3,0.8-12.4
				c-0.9,0.3-1.8,0.6-2.8,0.9c-0.8,1.4-1.7,2.8-2.5,4.1c-0.5-1.4-0.9-2.8-1.4-4.2C153.6,73.1,153.1,72.7,152.5,72.3z"/>
			<path class="st18" d="M171.2,83.6c-0.4-3.6-0.7-7.1-1.1-10.7c-0.8,0.1-1.7,0.1-2.5,0.2c-1.3,3.8-2.6,7.6-3.9,11.4
				c0.7-0.2,1.4-0.3,2.2-0.5c0.5-1.3,0.9-2.6,1.4-3.9c0.5,0.2,1,0.3,1.5,0.5c-0.1,1.4-0.1,2.7-0.2,4.1L171.2,83.6z M167.6,78.5
				c0.3-1.1,0.7-2.2,1-3.2c0.1,1.2,0.1,2.4,0.2,3.6C168.4,78.7,168,78.6,167.6,78.5z"/>
			<path class="st18" d="M173.7,72.2c0,0.8,0,1.5,0,2.3c1,0.1,2,0.1,3,0.2c-1,3.4-1.9,6.8-2.9,10.2c0.6,0.2,1.1,0.3,1.7,0.5
				c1-3.5,2-6.9,3.1-10.4c0.5,0.3,1.1,0.5,1.6,0.8c0.2-0.8,0.4-1.6,0.6-2.4C178.4,73,176,72.6,173.7,72.2z"/>
			<path class="st18" d="M140.6,100.1c0,0.7,0,1.4,0,2.1c0.9,0.1,1.8,0.1,2.7,0.2c-0.9,3.1-1.8,6.2-2.6,9.3c0.5,0.1,1,0.3,1.6,0.4
				c0.9-3.2,1.9-6.3,2.8-9.5c0.5,0.2,1,0.5,1.5,0.7c0.2-0.7,0.4-1.5,0.6-2.2C145,100.8,142.8,100.4,140.6,100.1z"/>
			<path class="st19" d="M175.8,84.7"/>
			<path class="st18" d="M183,72.3c-1.3,3.9-2.6,7.8-3.9,11.7c2.3,0.4,4.6,0.8,6.8,1.2c0.4-0.9,0.8-1.8,1.2-2.7
				c-1.5-0.2-3.1-0.3-4.6-0.5c0.3-0.8,0.5-1.5,0.8-2.3c1.1,0,2.2,0.1,3.2,0.1c0.2-0.8,0.5-1.7,0.7-2.5c-1.2-0.1-2.3-0.1-3.5-0.2
				c0.5-0.9,1-1.8,1.4-2.7c0.9,0,1.9,0.1,2.8,0.1c0.3-0.6,0.5-1.3,0.8-1.9C186.9,72.6,185,72.4,183,72.3z"/>
			<path class="st18" d="M151,96.1c1,0.1,1.9,0.2,2.9,0.3c0.5-1.7,1-3.5,1.6-5.2c0,2.7,0,5.5,0,8.2c1.2-2.4,2.4-4.7,3.7-7.1
				c0,1.7,0.1,3.3,0.1,5c0.9,0.2,1.9,0.3,2.8,0.5c0.2-3.4,0.3-6.9,0.5-10.3c-0.9,0-1.9,0.1-2.8,0.1c-0.7,0.8-1.5,1.5-2.2,2.3
				c-0.3-1.1-0.6-2.3-0.9-3.4c-1-0.4-2.1-0.8-3.1-1.3C152.7,88.9,151.9,92.5,151,96.1z"/>
			<path class="st18" d="M171.6,87.2c-0.8,0.1-1.7,0.2-2.5,0.3c-1.7,3.5-3.4,6.9-5.1,10.4c0.9,0,1.7,0.1,2.6,0.1
				c0.4-1.4,0.7-2.7,1.1-4.1l2,0.3c0.1,1.3,0.1,2.5,0.2,3.8c0.7-0.1,1.4-0.1,2-0.2C171.8,94.2,171.7,90.7,171.6,87.2z M169.7,92.8
				c-0.5,0-1.1-0.1-1.6-0.1c0.3-0.8,0.6-1.7,1-2.5c0.3,0,0.6-0.1,0.8-0.1C169.9,90.9,169.8,91.9,169.7,92.8z"/>
			<path class="st18" d="M175.9,100.4c-1,0.1-2,0.2-3,0.4c-2,4.1-4,8.2-6,12.3c1,0,2.1,0.1,3.1,0.1c0.4-1.6,0.8-3.2,1.3-4.8l2.4,0.4
				c0.1,1.5,0.2,3,0.2,4.4c0.8-0.1,1.6-0.2,2.4-0.2C176.1,108.7,176,104.6,175.9,100.4z M173.7,107c-0.6-0.1-1.2-0.1-1.9-0.1
				c0.4-1,0.8-2,1.1-3c0.3,0,0.7-0.1,1-0.1C173.8,104.8,173.8,105.9,173.7,107z"/>
			<path class="st18" d="M150.5,100.5c-0.6,3.3-1.2,6.6-1.8,9.9c0.8,0.1,1.6,0.3,2.4,0.4c1.1-1.5,2.3-3,3.4-4.4
				c-0.4,2.2-0.8,4.3-1.2,6.5c0.7-0.1,1.4-0.2,2.1-0.2c0.7-3.9,1.5-7.8,2.2-11.7c-1,0-1.9,0-2.9,0c-1.1,2-2.3,4.1-3.4,6.1
				c0.5-2.1,1-4.1,1.5-6.2C152.1,100.7,151.3,100.6,150.5,100.5z"/>
			<path class="st18" d="M161.5,100.3c0.9,0,1.8,0,2.6-0.1c-0.5,1.7-1,3.4-1.5,5.1c1.7-1.5,3.5-3,5.2-4.5c0.5,0.7,1,1.5,1.4,2.2
				c-1.5,1.4-3.1,2.8-4.6,4.2c0.5,1.6,1,3.1,1.5,4.7c-0.7,0.4-1.3,0.8-2,1.2c-0.7-1.9-1.3-3.7-2-5.6c-0.5,1.7-0.9,3.4-1.4,5.1
				c-0.7-0.3-1.5-0.6-2.2-0.9C159.5,108.1,160.5,104.2,161.5,100.3z"/>
		</g>
	</g>
</g>
</svg>
