<svg xmlns="http://www.w3.org/2000/svg" viewBox="0 0 98.4 147.88"><defs><style>.cls-1{isolation:isolate;}.cls-2{fill:#ffc37b;}.cls-3{fill:#e25e54;}.cls-4{fill:#ce413e;}.cls-5{fill:#ffb469;}.cls-10,.cls-6{fill:#ffe8ca;}.cls-7{fill:#efcea8;}.cls-8{fill:#68413c;}.cls-9{fill:#4f2a28;}.cls-10{opacity:0.5;mix-blend-mode:overlay;}.cls-11{fill:#9b6d6a;}</style></defs><g class="cls-1"><g id="Слой_2" data-name="Слой 2"><g id="_4" data-name="4"><path class="cls-2" d="M56.73,37.6C55.57,28,56.29,10.72,53.15,0c5.41,3.82,25,25.57,27,46.24Z"/><path class="cls-3" d="M60.08,38.24c-.87-7.54-.38-21.09-2.71-29.5,4,3,18.42,20.11,19.93,36.33Z"/><path class="cls-4" d="M74.3,43.88l3,1.19C75.79,28.85,61.35,11.74,57.37,8.74c.26.93.48,1.93.67,3C63.53,18.29,72,31.1,74.3,43.88Z"/><path class="cls-2" d="M24.53,57.75c-8,2.52-14.66-36-24-41-4.7-2.56,19.92-4.57,39,22.89Z"/><path class="cls-3" d="M26.07,55.08c-6.41,2-11.79-31.33-19.26-35.39-3.79-2.06,16-1.3,31.39,20.79Z"/><path class="cls-4" d="M6.81,19.69a6,6,0,0,1,1.38,1.09C13.43,21.88,26,27.41,36,43.17l2.24-2.69C22.83,18.39,3,17.63,6.81,19.69Z"/><path class="cls-5" d="M67,147.09c-15.57-6-51.3-42.75-53.46-63S33.89,42.62,38,39.82s24.26-5.29,29.17-3S89.53,48.46,97.09,69C103,96.12,88.42,121.53,67,147.09Z"/><path class="cls-2" d="M67.26,138.65C52.94,133.11,20.11,99.36,18.12,80.7S36.84,42.63,40.63,40.06s22.3-4.86,26.81-2.8S88,48,94.93,66.87C100.33,91.8,87,115.16,67.26,138.65Z"/><path class="cls-6" d="M84.57,66.83l-33.7,3.66c-18.33,13-23.62,28.36-22.24,42.58,12.27,15.61,29,30.38,38.35,34,15.75-18.78,27.77-37.48,30.71-56.84C97.73,82.81,89.19,70.89,84.57,66.83Z"/><path class="cls-7" d="M95.94,83.12c-1.4,19.8-15.58,41.35-29.24,60.16-9.07-3.51-25.76-25.09-37.88-40.11a32.61,32.61,0,0,0-.19,9.9c12.27,15.61,29.05,31.18,38.44,34.81,15.74-18.77,27.68-38.27,30.62-57.63C97.89,87.41,96.64,85.07,95.94,83.12Z"/><path class="cls-7" d="M58.26,70.11C56.37,74.39,59.52,86.58,66,88.37c8.95,2.46,12.7-17.88,12.7-17.88Z"/><path class="cls-8" d="M60,67.71c-1.88,4.28.67,16.67,7,19,5.9,2.17,13.08-18.24,13.08-18.24Z"/><path class="cls-4" d="M67.83,72.65a5.32,5.32,0,0,0-5.11,1.13,4.58,4.58,0,0,0-1.33,4.78c1,3.15,2.86,6.13,5.56,7.07,2.45.86,4.14-1.87,5.22-4.85a6,6,0,0,0-.36-4.92A6.68,6.68,0,0,0,67.83,72.65Z"/><path class="cls-3" d="M66,80.55a13.11,13.11,0,0,0-3.67.37A8.75,8.75,0,0,0,67,85.63c2.06.72,3.58-1.1,4.66-3.46A11.65,11.65,0,0,0,66,80.55Z"/><path class="cls-8" d="M82.07,75.65a9.2,9.2,0,0,1-6.63.73l1.15-2.18Z"/><path class="cls-8" d="M54.93,72.32A10,10,0,0,0,60.79,77l.66-2.42Z"/><path class="cls-6" d="M74.77,71c-2.36,3.22-7.7,6.91-13.92,4.71S48.57,69,48.32,66.3C47.84,61,63,60.92,68.19,61.51S76.68,68.41,74.77,71Z"/><path class="cls-2" d="M70.15,64c-4-.09-19.05,4-25.27,1.76s-7.7-.31-8-3C36.45,57.46,66.39,56,71.58,56.6S78.07,64.23,70.15,64Z"/><path class="cls-6" d="M74.26,71c1.4,3.37,5.66,7.59,9.71,5,12.72-8.07,2.45-16.64-9-15.95C71.31,60.29,73.12,68.27,74.26,71Z"/><path class="cls-2" d="M72.77,62.07c1.41,3.37,14.2,7,18.66,5.23C98.63,64.45,88.2,54.86,80.5,56,73.26,57.06,71.63,59.33,72.77,62.07Z"/><path class="cls-8" d="M75.83,72c-3.26.46-10.28-5.48-9.27-8.37.82-2.34,15.69-1.22,16.67.49S78.85,71.52,75.83,72Z"/><path class="cls-9" d="M75.24,65.51a58.45,58.45,0,0,1-8.75-1c.43,3.07,6.41,7.84,9.34,7.42,2.47-.35,6.49-4.25,7.35-6.59A61.23,61.23,0,0,1,75.24,65.51Z"/><path class="cls-8" d="M52,57.81l3.61-.67s-.67-5.06-2.31-4.27S52,57.81,52,57.81Z"/><path class="cls-8" d="M73.35,56.49l3.47.3s.36-5.7-1.45-4.82S73.35,56.49,73.35,56.49Z"/><path class="cls-10" d="M51,50c-1.74,2.2-5.4,2.56-4.18-.1s6.8-3.76,7.85-2.66S52.83,47.67,51,50Z"/><path class="cls-10" d="M77.44,50.41c1.34,1.55,3.84,1.36,3.45-.23-.46-1.88-6.23-3.74-8.19-2.72C70.38,48.66,75.54,48.19,77.44,50.41Z"/><path class="cls-11" d="M81.08,64c0-.5-1.58-1-3.58-1s-3.63.25-3.65.74,1.58,1,3.58,1.05S81.06,64.51,81.08,64Z"/></g></g></g></svg>