<?xml version="1.0" encoding="utf-8"?>
<!-- Generator: Adobe Illustrator 24.2.1, SVG Export Plug-In . SVG Version: 6.00 Build 0)  -->
<svg version="1.1" id="Слой_1" xmlns="http://www.w3.org/2000/svg" xmlns:xlink="http://www.w3.org/1999/xlink" x="0px" y="0px"
	 viewBox="0 0 137 137" style="enable-background:new 0 0 137 137;" xml:space="preserve">
<style type="text/css">
	.st0{fill:#FDB65A;}
</style>
<path class="st0" d="M68.5,38.1c-16.8,0-30.3,13.6-30.3,30.3s13.6,30.3,30.3,30.3c16.8,0,30.3-13.6,30.3-30.3
	C98.8,51.7,85.2,38.1,68.5,38.1z M68.5,86C58.8,86,51,78.1,51,68.5C51,58.8,58.8,51,68.5,51c4.8,0,9.2,2,12.4,5.1S86,63.6,86,68.5
	C86,78.1,78.2,86,68.5,86z M99.5,33.6c-3,0-5.5,2.4-5.5,5.4c0,3,2.4,5.5,5.4,5.5c3,0,5.5-2.4,5.5-5.5c0,0,0,0,0,0
	C105,36.1,102.5,33.6,99.5,33.6z M99.5,33.6c-3,0-5.5,2.4-5.5,5.4c0,3,2.4,5.5,5.4,5.5c3,0,5.5-2.4,5.5-5.5c0,0,0,0,0,0
	C105,36.1,102.5,33.6,99.5,33.6z M68.5,38.1c-16.8,0-30.3,13.6-30.3,30.3s13.6,30.3,30.3,30.3c16.8,0,30.3-13.6,30.3-30.3
	C98.8,51.7,85.2,38.1,68.5,38.1z M68.5,86C58.8,86,51,78.1,51,68.5C51,58.8,58.8,51,68.5,51c4.8,0,9.2,2,12.4,5.1S86,63.6,86,68.5
	C86,78.1,78.2,86,68.5,86z M107.7,0H29.3C13.1,0,0,13.1,0,29.3v78.3C0,123.9,13.1,137,29.3,137h78.3c16.2,0,29.3-13.1,29.3-29.3
	V29.3C137,13.1,123.8,0,107.7,0z M110.6,99.9c0,5.9-4.8,10.7-10.7,10.7H37.1c-5.9,0-10.7-4.8-10.7-10.7V37.1
	c0-5.9,4.8-10.7,10.7-10.7h62.8c5.9,0,10.7,4.8,10.7,10.7V99.9z M99.5,33.6c-3,0-5.5,2.4-5.5,5.4c0,3,2.4,5.5,5.4,5.5
	c3,0,5.5-2.4,5.5-5.5c0,0,0,0,0,0C105,36.1,102.5,33.6,99.5,33.6z M68.5,38.1c-16.8,0-30.3,13.6-30.3,30.3s13.6,30.3,30.3,30.3
	c16.8,0,30.3-13.6,30.3-30.3C98.8,51.7,85.2,38.1,68.5,38.1z M68.5,86C58.8,86,51,78.1,51,68.5C51,58.8,58.8,51,68.5,51
	c4.8,0,9.2,2,12.4,5.1S86,63.6,86,68.5C86,78.1,78.2,86,68.5,86z"/>
</svg>
