<?xml version="1.0" encoding="utf-8"?>
<!-- Generator: Adobe Illustrator 24.2.1, SVG Export Plug-In . SVG Version: 6.00 Build 0)  -->
<svg version="1.1" id="Слой_1" xmlns="http://www.w3.org/2000/svg" xmlns:xlink="http://www.w3.org/1999/xlink" x="0px" y="0px"
	 viewBox="0 0 173.6 138.9" style="enable-background:new 0 0 173.6 138.9;" xml:space="preserve">
<style type="text/css">
	.st0{clip-path:url(#SVGID_2_);}
	.st1{fill:#FDB65A;}
	.st2{fill:#FDB65A;stroke:#FDB65A;stroke-miterlimit:10;}
	.st3{fill:#C5D1D8;}
	.st4{fill:#C93A3A;}
	.st5{fill:#A02020;}
</style>
<g id="Слой_2_1_">
	<g id="Слой_1-2">
		<g>
			<g>
				<defs>
					<rect id="SVGID_1_" x="-1.5" y="-1.3" width="175.9" height="125.6"/>
				</defs>
				<clipPath id="SVGID_2_">
					<use xlink:href="#SVGID_1_"  style="overflow:visible;"/>
				</clipPath>
				<g class="st0">
					<path class="st1" d="M96.3,53l6.3-1.5l0.2,0.7l-6.2,1.5L96.3,53z"/>
					<path class="st1" d="M114.7,52.6l6.3-1.5l0.2,0.7l-6.3,1.5L114.7,52.6z"/>
					<path class="st1" d="M105.9,45.8l1,4.2c0.2-0.6,0.8-1,1.4-1.1c1.6-0.4,2.7,1.2,3.1,3s0.1,3.7-1.4,4.1c-0.6,0.2-1.3,0-1.8-0.5
						l-0.2,0.9h-0.2l-2.1-9c-0.1-0.5-0.3-0.6-0.8-0.5l-0.1-0.2L105.9,45.8z M108.1,55c0.4,0.4,0.9,0.6,1.5,0.5
						c1.3-0.3,1.4-1.9,1-3.5s-1.3-3-2.5-2.7c-0.6,0.1-1,0.5-1.1,1.1L108.1,55z"/>
					<path class="st1" d="M115.3,42.3l0.6-0.1l0.9,3.8l2.8-0.7l0.2,0.7l-2.8,0.7l0.9,3.9l-0.6,0.1l-0.9-3.9l-2.8,0.7l-0.2-0.7
						l2.8-0.7L115.3,42.3z"/>
					<path class="st1" d="M131.6,38.6l1,4.2c0.2-0.6,0.7-1,1.4-1.1c1.6-0.4,2.7,1.2,3.1,3s0.1,3.7-1.4,4.1c-0.6,0.2-1.3,0-1.8-0.5
						l-0.3,0.9h-0.2l-2.1-9c-0.1-0.5-0.3-0.6-0.8-0.5l-0.1-0.2L131.6,38.6z M133.8,47.8c0.4,0.4,0.9,0.6,1.5,0.5
						c1.3-0.3,1.4-1.9,1-3.5s-1.3-3-2.5-2.7c-0.6,0.1-1,0.5-1.1,1.1L133.8,47.8z"/>
					<path class="st1" d="M140,41.6l6.3-1.5l0.2,0.7l-6.3,1.5L140,41.6z"/>
					<path class="st1" d="M151.7,44.7l-0.1-0.3c0.8-0.2,1-0.3,0.9-0.9l-0.4-1.8l-3,0.7L149,42l1.6-8l0.3-0.1l1.7,7.2l1.4-0.3
						l0.1,0.4l-1.4,0.3l0.4,1.8c0.1,0.5,0.5,0.5,1.2,0.3l0.1,0.3L151.7,44.7z M150.6,35.5l-1.3,6.3l2.6-0.6L150.6,35.5z"/>
					<path class="st1" d="M161,42c-0.1,0.5-0.3,0.8-0.7,0.9s-0.7-0.3-0.8-0.8c-0.3,0.7-0.9,1.2-1.6,1.4c-0.8,0.2-1.6-0.2-1.9-1
						c0-0.1,0-0.2,0-0.2c-0.3-1.3,0.6-2.5,2.7-3.5l-0.2-1c-0.2-0.8-0.6-1.3-1.3-1.2s-1.1,0.6-1.1,1.3c0,0,0,0,0,0.1
						c0,0.3-0.1,0.7-0.3,0.7s-0.5-0.1-0.6-0.5c-0.2-0.7,0.6-1.5,2-1.9c0.9-0.2,1.7,0.3,2,1.5l0.9,3.9c0.1,0.4,0.2,0.8,0.4,0.7
						s0.3-0.1,0.4-0.5L161,42z M158.8,39.1c-1.4,0.6-2.4,1.6-2.1,2.9c0.1,0.5,0.5,1,1.1,0.9c0.1,0,0.1,0,0.2,0
						c0.7-0.1,1.2-0.6,1.4-1.2L158.8,39.1z"/>
					<path class="st1" d="M166.3,39.6c-0.3,1-0.6,2-1.7,2.3c-1.3,0.3-2.7-0.9-3.2-2.8c-0.5-2.3,0.4-4,1.7-4.4c0.9-0.3,1.8,0.2,2.1,1
						c0.1,0.3,0,0.6-0.3,0.7s-0.5-0.3-0.7-0.7s-0.6-0.7-1.3-0.6c-0.9,0.2-1.4,1.5-0.9,3.5c0.4,1.8,1.4,2.9,2.6,2.6
						c0.6-0.2,1.1-0.5,1.5-1.8L166.3,39.6z"/>
					<path class="st1" d="M134.3,62.2l0.1,2.8l-4.5,1.1l-0.1-0.4c0.2-1.8,0.8-3.6,1.7-5.2c0.7-1,0.9-2.2,0.6-3.3
						c-0.4-1.5-1.2-1.9-2.1-1.7s-1.5,0.8-1.3,1.8s0.5,0.7,0.6,1.2s-0.1,0.7-0.3,0.8s-0.6-0.3-0.8-1c-0.4-1.3,0.4-2.7,1.7-3
						c0,0,0,0,0.1,0c1.6-0.4,2.5,0.4,2.9,2.1c0.3,1.5,0,2.6-1.2,4.3c-0.8,1.1-1.4,2.4-1.6,3.8l2.8-0.7c0.8-0.2,1.1-0.7,1.2-2.3
						L134.3,62.2z"/>
					<path class="st1" d="M141,62.9c-0.1,0.4-0.3,0.8-0.7,0.9s-0.7-0.3-0.8-0.8c-0.3,0.7-0.9,1.2-1.6,1.4c-0.8,0.2-1.6-0.2-1.9-1
						c0-0.1,0-0.2-0.1-0.3c-0.3-1.3,0.6-2.5,2.7-3.5l-0.2-1c-0.2-0.8-0.6-1.3-1.3-1.2c-0.7,0-1.1,0.6-1.1,1.3c0,0,0,0,0,0.1
						c0,0.3-0.1,0.6-0.3,0.7s-0.5-0.1-0.6-0.5c-0.2-0.7,0.6-1.6,2-1.9c0.9-0.2,1.7,0.3,2,1.5l0.9,3.9c0.1,0.4,0.2,0.8,0.4,0.7
						s0.3-0.1,0.4-0.4L141,62.9z M138.8,60c-1.4,0.6-2.4,1.6-2.1,2.9c0.1,0.5,0.5,0.9,1.1,0.9c0.1,0,0.1,0,0.2,0
						c0.7-0.1,1.2-0.6,1.4-1.2L138.8,60z"/>
					<path class="st1" d="M124.2,35.3l0.1,2.2l-3.6,0.8l-0.1-0.3c0.2-1.5,0.6-2.9,1.4-4.2c0.6-0.8,0.7-1.7,0.5-2.7
						c-0.3-1.2-0.9-1.5-1.7-1.4s-1.2,0.6-1,1.4s0.4,0.5,0.5,0.9s-0.1,0.6-0.3,0.6s-0.5-0.3-0.6-0.8c-0.3-1.1,0.3-2.1,1.4-2.4
						c1.3-0.3,2,0.3,2.3,1.7c0.3,1.2,0,2.1-0.9,3.5c-0.6,0.9-1.1,1.9-1.3,3l2.2-0.5c0.6-0.2,0.9-0.5,1-1.9L124.2,35.3z"/>
					<path class="st1" d="M129.3,52.4c-0.2,0-0.4,0-0.6-0.2l-6.5-10.7c-0.1-0.2-0.1-0.6,0.2-0.7c0.2-0.1,0.5-0.1,0.7,0.2l5.2,8.6
						c-0.3-1.7-0.6-4-0.9-6.4c-1.3-9.3-0.9-9.5-0.4-9.7c5-2.3,7.2-2.7,13.6-3.9c4.1-0.8,9.6-1.8,18.7-3.8c0.3-0.1,0.5,0.1,0.6,0.4
						l0,0c0.1,0.3-0.1,0.5-0.4,0.6c-9.1,2-14.6,3.1-18.7,3.8c-6.2,1.2-8.4,1.6-13.2,3.8c-0.2,1.4,0.9,9.9,2.2,17.6
						C129.8,52.1,129.6,52.3,129.3,52.4L129.3,52.4z"/>
					<path class="st1" d="M166,44.8L96.8,61.3c-0.3,0.1-0.5-0.1-0.6-0.4c-0.1-0.3,0.1-0.5,0.4-0.6l0,0l69.2-16.5
						c0.3-0.1,0.6,0.1,0.6,0.4C166.5,44.5,166.3,44.8,166,44.8L166,44.8z"/>
					<path class="st1" d="M86.3,62.9l2.6,3.1l-0.8,0.2l-1.7-2.1l-0.2-0.2L86,63.6l0,0c0,0.1,0,0.1,0,0.2c0,0.1,0,0.2-0.1,0.3
						l-0.6,2.7L84.6,67l1-3.9L83,59.9l0.8-0.2l1.7,2.2c0.1,0.1,0.2,0.2,0.2,0.3l0.2,0.2l0,0l0.1-0.3c0-0.1,0-0.2,0.1-0.3l0.6-2.8
						l0.8-0.2L86.3,62.9z"/>
					<path class="st1" d="M89,60.5l-0.2-0.7l4.8-1.2l0.2,0.7L89,60.5z M89.7,63.3l-0.2-0.7l4.8-1.2l0.2,0.8L89.7,63.3z"/>
					<path class="st1" d="M88.4,112.8c-0.1,0.5-0.2,0.8-0.6,1s-0.8-0.3-0.9-0.8c-0.2,0.8-0.8,1.4-1.6,1.6c-0.8,0.3-1.7-0.1-2-0.9
						c0-0.1-0.1-0.2-0.1-0.3c-0.4-1.3,0.4-2.6,2.5-3.9l-0.3-1c-0.3-0.9-0.8-1.3-1.4-1.1c-0.7,0.1-1.1,0.8-1,1.5l0,0
						c0,0.3,0,0.7-0.3,0.8s-0.5-0.1-0.7-0.5c-0.2-0.7,0.4-1.7,1.9-2.1c1-0.3,1.8,0.1,2.2,1.4l1.3,4c0.1,0.4,0.3,0.8,0.5,0.7
						s0.3-0.2,0.4-0.5L88.4,112.8z M85.8,109.9c-1.4,0.7-2.3,1.9-1.9,3.2c0.1,0.6,0.7,0.9,1.3,0.8h0.1c0.7-0.2,1.2-0.7,1.4-1.4
						L85.8,109.9z"/>
					<path class="st1" d="M90,102.2l0.6-0.2l1.3,3.9l2.9-1l0.2,0.7l-2.9,1l1.3,3.9l-0.6,0.2l-1.3-4l-2.9,1l-0.3-0.7l2.9-1L90,102.2z
						"/>
					<path class="st1" d="M103.2,105.4l0.3,2.9l-4.5,1.5l-0.2-0.4c0-1.9,0.5-3.8,1.4-5.6c0.6-1.1,0.8-2.3,0.3-3.5
						c-0.5-1.5-1.4-1.9-2.4-1.6s-1.5,1-1.2,1.9s0.5,0.7,0.7,1.2s0,0.7-0.3,0.8s-0.7-0.3-0.9-1c-0.5-1.3,0.1-2.8,1.4-3.3h0.1
						c1.6-0.5,2.7,0.2,3.2,1.9c0.5,1.5,0.3,2.7-0.8,4.6c-0.7,1.2-1.2,2.6-1.3,4.1l2.8-0.9c0.8-0.3,1.1-0.8,1-2.6H103.2z"/>
					<path class="st1" d="M110.2,105.5c-0.1,0.5-0.2,0.8-0.6,1s-0.7-0.3-0.9-0.8c-0.2,0.8-0.8,1.4-1.5,1.6c-0.8,0.3-1.7-0.1-2-0.9
						c0-0.1-0.1-0.2-0.1-0.3c-0.4-1.3,0.4-2.6,2.5-3.9l-0.3-1c-0.3-0.9-0.8-1.3-1.4-1.1c-0.7,0.1-1.1,0.8-1,1.5l0,0
						c0,0.3,0,0.7-0.3,0.8s-0.5-0.1-0.6-0.5c-0.2-0.7,0.4-1.7,1.9-2.1c0.9-0.3,1.8,0.1,2.2,1.4l1.3,4c0.1,0.4,0.3,0.8,0.5,0.7
						s0.3-0.2,0.4-0.5L110.2,105.5z M107.7,102.8c-1.4,0.7-2.3,1.9-1.9,3.2c0.1,0.6,0.7,0.9,1.3,0.8h0.1c0.7-0.2,1.2-0.7,1.4-1.4
						L107.7,102.8z"/>
					<path class="st1" d="M109,94.8l1.4,4.3c0.2-0.6,0.7-1.1,1.3-1.3c1.6-0.5,2.9,1,3.5,2.8s0.5,3.8-1.1,4.3
						c-0.6,0.3-1.4,0.1-1.9-0.3l-0.2,1h-0.2l-3-9.1c-0.2-0.5-0.4-0.6-0.9-0.4l-0.1-0.2L109,94.8z M112.1,104.2
						c0.4,0.4,1,0.6,1.6,0.4c1.3-0.4,1.3-2.1,0.8-3.7s-1.6-2.9-2.8-2.5c-0.6,0.2-0.9,0.7-1,1.3L112.1,104.2z"/>
					<path class="st1" d="M119.6,92.3l0.6-0.2l1.3,3.9l2.9-1l0.3,0.7l-2.9,1l1.3,3.9l-0.6,0.2l-1.3-3.9l-2.9,1l-0.2-0.7l2.9-1
						L119.6,92.3z"/>
					<path class="st1" d="M127.4,88.7l1.4,4.2c0.2-0.6,0.7-1.1,1.3-1.3c1.6-0.5,2.9,1,3.5,2.8s0.5,3.8-1.1,4.3
						c-0.6,0.3-1.4,0.1-1.9-0.3l-0.2,1h-0.2l-3-9.1c-0.2-0.5-0.4-0.6-0.9-0.4l-0.1-0.2L127.4,88.7z M130.5,98.1
						c0.4,0.4,1,0.6,1.6,0.4c1.3-0.4,1.3-2.1,0.8-3.7s-1.6-3-2.9-2.5c-0.6,0.2-1,0.7-1.1,1.2L130.5,98.1z"/>
					<path class="st1" d="M134.5,90.2l6.4-2.1l0.3,0.8l-6.4,2.1L134.5,90.2z M135.4,92.9l6.4-2.1l0.3,0.8l-6.3,2.2L135.4,92.9z"/>
					<path class="st1" d="M145.7,81.6c-1.6,4.5,0.1,9.6,4.1,12.3l0.1,0.2c-2.4-0.8-3.9-2.7-4.9-5.4s-0.8-5.2,0.6-7.3L145.7,81.6z"/>
					<path class="st1" d="M155.5,90.4c-0.1,0.5-0.2,0.9-0.6,1s-0.8-0.3-0.9-0.8c-0.2,0.8-0.8,1.4-1.5,1.6c-0.8,0.3-1.7-0.1-2-0.9
						c0-0.1-0.1-0.2-0.1-0.3c-0.4-1.3,0.4-2.6,2.5-3.8l-0.3-1c-0.3-0.9-0.8-1.3-1.4-1.1c-0.7,0.1-1.1,0.8-1,1.5l0,0
						c0,0.3,0,0.7-0.3,0.8s-0.5-0.1-0.6-0.5c-0.2-0.7,0.4-1.7,1.9-2.2c0.9-0.3,1.8,0.1,2.2,1.4l1.3,4c0.1,0.4,0.3,0.8,0.5,0.7
						s0.3-0.2,0.4-0.5L155.5,90.4z M152.9,87.6c-1.4,0.7-2.4,1.9-1.9,3.2c0.1,0.6,0.7,0.9,1.3,0.8h0.1c0.7-0.2,1.2-0.7,1.4-1.4
						L152.9,87.6z"/>
					<path class="st1" d="M157,79.8l0.6-0.2l1.3,3.9l2.9-1l0.3,0.7l-2.9,1l1.3,3.9l-0.6,0.2l-1.3-3.9l-2.9,1l-0.2-0.7l2.9-1
						L157,79.8z"/>
					<path class="st1" d="M163.3,76.7l1.4,4.3c0.2-0.6,0.7-1.1,1.3-1.3c1.6-0.5,2.9,1,3.5,2.8s0.5,3.8-1.1,4.4
						c-0.6,0.3-1.4,0.1-1.9-0.3l-0.2,1h-0.2l-3-9.1c-0.2-0.5-0.4-0.6-0.9-0.4l-0.1-0.2L163.3,76.7z M166.5,86.1
						c0.4,0.4,1,0.6,1.6,0.4c1.3-0.4,1.3-2.1,0.8-3.7s-1.6-3-2.8-2.5c-0.6,0.2-1,0.6-1.1,1.2L166.5,86.1z"/>
					<path class="st1" d="M172.3,86.4c1.6-4.5-0.1-9.6-4.1-12.3l-0.1-0.3c2.4,0.8,4,2.8,4.9,5.5s0.8,5.2-0.6,7.3L172.3,86.4z"/>
					<path class="st1" d="M171,73.5l-0.1-0.4l0.2-0.7c0.6-1.6,0.8-2.4,0.6-3.2c-0.2-0.5-0.5-1-1.1-0.8c-0.3,0.1-0.6,0.4-0.7,0.7
						l-0.3-0.4c0.2-0.4,0.5-0.8,0.9-0.9c0.9-0.3,1.5,0.4,1.7,1.1c0.2,1.1,0.1,2.3-0.4,3.3l-0.2,0.5l0,0l1.8-0.6l0.2,0.6L171,73.5z"
						/>
					<path class="st1" d="M85.1,104.9l-0.1-0.4l0.2-0.7c0.6-1.6,0.8-2.4,0.6-3.2c-0.2-0.5-0.5-1-1.1-0.8c-0.3,0.1-0.6,0.4-0.7,0.7
						l-0.3-0.4c0.2-0.4,0.5-0.8,0.9-0.9c0.9-0.3,1.5,0.4,1.7,1.1c0.2,1.1,0.1,2.3-0.4,3.3l-0.2,0.5l0,0l1.8-0.6l0.2,0.6L85.1,104.9z
						"/>
					<path class="st1" d="M130.2,89.9l-0.1-0.4l0.2-0.7c0.6-1.6,0.8-2.4,0.6-3.2c-0.2-0.5-0.5-1-1.1-0.8c-0.3,0.1-0.6,0.4-0.7,0.7
						l-0.3-0.4c0.2-0.4,0.5-0.8,0.9-0.9c0.9-0.3,1.5,0.4,1.7,1.1c0.2,1.1,0.1,2.3-0.4,3.3l-0.2,0.5l0,0l1.8-0.6l0.2,0.6L130.2,89.9z
						"/>
					<path class="st1" d="M90.8,71.4L7.3,35.8c-0.2-0.1-0.3-0.3-0.2-0.6C7.2,35,7.5,35,7.7,35l83.4,35.6c0.2,0.1,0.3,0.4,0.2,0.6
						C91.2,71.4,91,71.5,90.8,71.4z"/>
					<path class="st1" d="M27.3,65.6c-7.6-3.2-4.3-13.5-1.4-22.5c2-6.1,3.8-11.9,1.3-13.3c-0.5-0.3-1.1-0.4-1.6-0.2
						c-2.2,0.7-4.3,5.3-6.3,9.7c-2.9,6.4-5.9,13-10.3,11.2c-0.2-0.1-0.4-0.3-0.3-0.5s0.3-0.4,0.5-0.3h0.1c3.6,1.5,6.5-4.7,9.2-10.7
						c2.2-4.8,4.3-9.3,6.8-10.2c0.8-0.2,1.6-0.2,2.3,0.3c3.2,1.8,1.3,7.6-0.9,14.3c-2.8,8.7-5.9,18.5,0.9,21.4
						c5.8,2.5,10.7-8.2,15.5-18.5C48.3,35,53.7,23.3,61,26.4c8.5,3.6,2.8,18-1.8,29.6c-2.3,5.9-4.6,11.4-3.7,13.1
						c0.1,0.2,0.3,0.4,0.6,0.4c3.2,0.7,7-5,10.3-10c3.2-4.8,6-9,8.4-7.8c4.5,2.2-1.7,17.3-2.4,19c-0.1,0.2-0.3,0.3-0.5,0.2l0,0l0,0
						c-0.2-0.1-0.3-0.3-0.2-0.6c1.9-4.4,6-16.3,2.8-17.9l0,0c-1.7-0.7-4.5,3.5-7.2,7.6c-3.7,5.5-7.5,11.2-11.2,10.4
						c-0.5-0.1-0.9-0.4-1.2-0.8c-1.1-2,1-7.2,3.7-13.8c4.5-11.2,10.1-25.1,2.3-28.4C54.3,24.6,49.1,36,44,46.9
						C38.7,57.8,33.8,68.4,27.3,65.6z"/>
					<path class="st1" d="M37.4,81.1c-0.2-0.1-0.3-0.4-0.2-0.6l29.3-68.7c0.1-0.2,0.3-0.3,0.6-0.2c0.2,0.1,0.3,0.3,0.2,0.6l0,0
						L37.9,80.9C37.8,81.1,37.6,81.2,37.4,81.1z"/>
					<path class="st2" d="M5.8,29.9l-0.1,0.3C5.3,30,5.1,30,5,30.2c0,0.1,0,0.2,0,0.3L5.3,33l2-1.4c0.1-0.1,0.1-0.1,0.2-0.2
						c0-0.2-0.1-0.4-0.5-0.5l0.1-0.4L9,31.3l-0.1,0.3c-0.4-0.3-1-0.3-1.4,0.1l-2.2,1.5l0.5,3.5c0,0.4,0.3,0.7,0.7,0.8l-0.1,0.3
						L4.2,37l0.2-0.3C4.8,37,5,37,5,36.8c0-0.1,0-0.2,0-0.3l-0.4-2.8l-2.1,1.4c-0.1,0.1-0.2,0.2-0.3,0.4s0.1,0.4,0.5,0.5l-0.2,0.3
						l-2-0.8l0.2-0.3c0.5,0.2,0.8,0.2,1.6-0.3l2.2-1.5l-0.4-3c0-0.4-0.3-0.8-0.7-1L3.6,29L5.8,29.9z"/>
					<path class="st2" d="M68.2,0.7l2,0.9L70,1.8c-0.4-0.2-0.6-0.2-0.7,0c0,0.1-0.1,0.2-0.1,0.3L69,7l3-3.6c0.1-0.1,0.1-0.2,0.2-0.3
						c0.1-0.3,0-0.4-0.5-0.6l0.2-0.3L73.7,3l-0.2,0.4C73,3.1,72.7,3.2,72,3.9l-4.3,5c-0.9,1.1-1.4,1.1-2,0.9
						c-0.4-0.1-0.6-0.5-0.5-0.9V8.8c0.2-0.4,0.5-0.6,0.8-0.5c0.5,0.2,0,0.9,0.4,1.1c0.2,0.1,0.6-0.3,1.1-0.9L68.1,8l0.5-6.2
						c0-0.3,0-0.5-0.6-0.8L68.2,0.7z"/>
					<path class="st3" d="M18.4,66.8C12.8,61.3,7.3,56,1.8,50.5c2.6-0.2,5.1-0.3,7.6-0.5c5.8,3.6,11.5,7.1,17.3,10.7
						C24,62.8,21.2,64.8,18.4,66.8z"/>
					<path class="st3" d="M19.9,64.2c1.8,2.5,4.2,4.7,6.8,6.4c13.3,8.3,30.7,0.5,34.1-1.1c2.7-1.3,5.3-2.8,7.8-4.5
						c-0.6-0.4-1.1-1-1.4-1.7c-0.3-0.6-0.5-1.2-0.5-1.9c-2.9,0.2-5.9,0.2-8.8,0.1c-7.7-0.4-9.1-1.9-16.3-2.4
						c-4.1-0.2-9.1-0.5-14.9,1.6C24.3,61.6,22,62.8,19.9,64.2z"/>
					<path class="st4" d="M21.1,63.4l48.1,1.5c8.2,24.7,16.3,49.3,24.5,73.9c-15.1-0.3-30.3-0.7-45.4-1
						C39.2,113.1,30.2,88.3,21.1,63.4z"/>
					<path class="st5" d="M0.8,49.9C7.6,54.4,14.3,59,21,63.5c4.5,12.4,9.1,24.7,13.6,37.1c2.4,6.7,6.2,17,8.7,23.7
						c-7.8-6.7-15.5-13.3-23.3-20c-2.4-6.8-4.8-13.6-7.2-20.4C8.8,72.5,4.8,61.2,0.8,49.9z"/>
				</g>
			</g>
		</g>
	</g>
</g>
</svg>
