<?xml version="1.0" encoding="utf-8"?>
<!-- Generator: Adobe Illustrator 24.2.1, SVG Export Plug-In . SVG Version: 6.00 Build 0)  -->
<svg version="1.1" id="Слой_1" xmlns="http://www.w3.org/2000/svg" xmlns:xlink="http://www.w3.org/1999/xlink" x="0px" y="0px"
	 viewBox="0 0 33 33" style="enable-background:new 0 0 33 33;" xml:space="preserve">
<style type="text/css">
	.st0{fill:url(#SVGID_1_);}
</style>
<g id="Слой_2_1_">
	<g id="Слой_1-2">
		<g id="Слой_2-2">
			<g id="Слой_1-2-2">
				
					<linearGradient id="SVGID_1_" gradientUnits="userSpaceOnUse" x1="28.4495" y1="760.5696" x2="4.3195" y2="788.6996" gradientTransform="matrix(1 0 0 1 0 -758)">
					<stop  offset="0" style="stop-color:#F7BA77"/>
					<stop  offset="1" style="stop-color:#FDB65A"/>
				</linearGradient>
				<path class="st0" d="M16.6,9.4C16.5,9.4,16.5,9.4,16.6,9.4c-1.3,0-2.2,1-2.2,2.2v0c0,1.2,0.9,2.1,2.1,2.2c0,0,0.1,0,0.1,0
					c1.1,0,2.1-0.8,2.2-2v-0.2C18.7,10.4,17.8,9.4,16.6,9.4z M16.6,9.4C16.5,9.4,16.5,9.4,16.6,9.4c-1.3,0-2.2,1-2.2,2.2v0
					c0,1.2,0.9,2.1,2.1,2.2c0,0,0.1,0,0.1,0c1.1,0,2.1-0.8,2.2-2v-0.2C18.7,10.4,17.8,9.4,16.6,9.4z M30.7,2.3C28.4,0,24.7,0,17.2,0
					h-1.4C8.3,0,4.6,0,2.3,2.3S0,8.4,0,15.8v1.4c0,7.4,0,11.2,2.3,13.5s6,2.3,13.5,2.3h1.4c7.5,0,11.2,0,13.5-2.3s2.3-6,2.3-13.5
					v-1.4C33,8.4,33,4.6,30.7,2.3z M16.5,6.3c2.9,0,5.3,2.4,5.3,5.3c0,2.9-2.4,5.3-5.3,5.3c-2.9,0-5.2-2.3-5.3-5.2
					C11.2,8.7,13.6,6.3,16.5,6.3z M21.6,24.1c0.6,0.6,0.6,1.6,0,2.1c-0.5,0.6-1.4,0.6-2,0.1c0,0-0.1-0.1-0.1-0.1l-3-2.9l-2.8,2.9
					c-0.3,0.3-0.7,0.5-1.1,0.4c-0.4,0-0.8-0.2-1.1-0.4c-0.6-0.6-0.6-1.5,0-2.1l3-2.9c-1.1-0.3-2.2-0.8-3.1-1.4
					c-0.7-0.4-0.9-1.4-0.5-2.1c0.5-0.7,1.4-0.9,2.1-0.5c0,0,0,0,0.1,0c2.2,1.3,4.9,1.3,7,0c0.7-0.5,1.6-0.3,2.1,0.4c0,0,0,0,0.1,0.1
					c0.4,0.7,0.3,1.6-0.4,2.1c-1,0.6-2,1-3.1,1.4L21.6,24.1z M16.4,13.8C16.4,13.8,16.5,13.8,16.4,13.8c1.2,0,2.2-0.8,2.3-2v-0.2
					c0-1.2-0.9-2.2-2.1-2.2c0,0,0,0-0.1,0c-1.2,0-2.2,1-2.2,2.2v0C14.3,12.8,15.2,13.7,16.4,13.8z"/>
			</g>
		</g>
	</g>
</g>
</svg>
