<?xml version="1.0" encoding="utf-8"?>
<!-- Generator: Adobe Illustrator 24.2.1, SVG Export Plug-In . SVG Version: 6.00 Build 0)  -->
<svg version="1.1" id="Слой_1" xmlns="http://www.w3.org/2000/svg" xmlns:xlink="http://www.w3.org/1999/xlink" x="0px" y="0px"
	 viewBox="0 0 133.9 122.7" style="enable-background:new 0 0 133.9 122.7;" xml:space="preserve">
<style type="text/css">
	.st0{clip-path:url(#SVGID_2_);}
	.st1{fill:#FDB65A;}
	.st2{fill:#C5D1D8;}
	.st3{fill:#4C6CE0;}
	.st4{fill:#16218E;}
</style>
<g id="Слой_2_1_">
	<g id="Слой_1-2">
		<g>
			<g>
				<defs>
					<rect id="SVGID_1_" x="-4.8" y="-2.8" width="142.4" height="111"/>
				</defs>
				<clipPath id="SVGID_2_">
					<use xlink:href="#SVGID_1_"  style="overflow:visible;"/>
				</clipPath>
				<g class="st0">
					<path class="st1" d="M11.9,57.7c0-0.1,0.1-0.1,0.2-0.2c0.1-0.1,0.1-0.3,0-0.4c-0.5-0.7-1.5,0.3-1.8,0.7
						c-0.5,0.7-0.9,1.5-1.1,2.4c-0.3,1.1-0.2,2.3,0.3,3.3c0.3,0.5,0.7,1,1.1,1.5c0.2,0.2,0.4,0.4,0.6,0.5c0.2,0.1,0.4,0.1,0.6,0.2
						c0.3,0.2,0.7,0,0.9-0.3v-0.1c0.2-0.5-0.2-0.9-0.6-1.2c-0.3-0.3-0.6-0.6-0.8-0.9c-0.5-0.6-0.8-1.5-0.7-2.3
						c0-1.2,0.5-2.4,1.4-3.4h-0.4l0.2,0.1l-0.1-0.1v0.1C11.7,57.7,11.8,57.7,11.9,57.7C11.8,57.7,11.8,57.7,11.9,57.7L11.9,57.7z"/>
					<path class="st1" d="M14,59.8C14.1,59.8,14,59.8,14,59.8l0.2,0.3c0.1,0.2,0.2,0.4,0.3,0.6c0.2,0.4,0.4,0.9,0.7,1.3
						c0.3,0.4,0.7,0.8,1,1.2l0.1,0.2c0,0,0.1,0.1,0,0l0.2,0.3c0.2,0.3,0.5,0.7,0.9,0.7c0.3,0,0.6-0.2,0.6-0.5
						c0.1-0.4-0.1-0.8-0.4-1.1c-0.2-0.2-0.3-0.4-0.5-0.6c-0.4-0.4-0.8-0.8-1.1-1.2s-0.5-0.8-0.8-1.1c-0.1-0.2-0.3-0.3-0.4-0.5
						c-0.1-0.2-0.3-0.3-0.5-0.3c-0.2-0.1-0.4,0-0.5,0.2C13.8,59.4,13.8,59.6,14,59.8L14,59.8z"/>
					<path class="st1" d="M17.5,59.9c-0.3,0-0.6,0.2-0.9,0.4c-0.2,0.1-0.4,0.4-0.5,0.5c-0.5,0.4-1,0.6-1.5,1
						c-0.6,0.4-1.1,0.9-1.5,1.4c-0.2,0.2-0.4,0.5-0.6,0.7c-0.3,0.4-0.6,0.9-0.3,1.4c0.1,0.2,0.4,0.4,0.6,0.4c0.2,0,0.5-0.1,0.7-0.3
						c0.1-0.1,0.1-0.1,0.2-0.2c0-0.1,0.1-0.1,0,0s0.1-0.1,0.1-0.1s0.2-0.3,0.3-0.4l0.1-0.2c0.2-0.2-0.1,0.1,0.1-0.1
						c0.4-0.5,0.8-0.9,1.3-1.3c0.1-0.1,0.1-0.1,0.2-0.2l0.4-0.3c0.3-0.2,0.5-0.4,0.7-0.6c0.2-0.2,0.4-0.4,0.5-0.6l0.1-0.1
						c0.1-0.1,0,0,0-0.1s-0.1,0,0.1,0h0.1c0.3-0.1,0.4-0.3,0.4-0.6s-0.3-0.5-0.5-0.5L17.5,59.9z"/>
					<path class="st1" d="M18.4,63.6L18.4,63.6l-0.1,0.1c0,0.1-0.1,0.1-0.1,0.2v0.3l-0.1,0.5c0,0.2,0,0.5-0.1,0.7c0,0.1,0,0.2,0,0.3
						c0,0.1,0,0.2,0,0.3c0.1,0.2,0.2,0.3,0.4,0.4c0.2,0.1,0.5,0.1,0.7,0s0.3-0.3,0.4-0.4c0-0.1,0-0.2,0-0.3v-0.3
						c0-0.2,0-0.4-0.1-0.7v-0.5v-0.3c0-0.1,0-0.1-0.1-0.2c0-0.1-0.1-0.1-0.1-0.1c0,0.1,0.1,0.1,0,0c-0.1-0.2-0.4-0.3-0.6-0.2
						C18.5,63.5,18.4,63.6,18.4,63.6L18.4,63.6z"/>
					<path class="st1" d="M19.3,63c0.3,0,0.6-0.4,0.5-0.7c0-0.3-0.3-0.5-0.5-0.5c-0.3,0-0.6,0.4-0.5,0.7C18.8,62.7,19,63,19.3,63z"
						/>
					<path class="st1" d="M21.5,62.8L21.5,62.8l-0.1-0.1L21.5,62.8c0.1,0.1,0.2,0.2,0.3,0.3l0.4,0.3c0.2,0.1,0.3,0.2,0.5,0.3
						c0.2,0,0.4,0,0.5,0l0.2-0.1c0.1,0,0.2-0.1,0.3-0.2c0.1-0.1,0.2-0.2,0.2-0.3c0-0.2-0.1-0.5-0.3-0.6h-0.1l0.1,0.1l-0.1-0.1
						l-0.1-0.1c-0.1-0.1-0.2-0.1-0.2-0.1v-0.1l0.2,0.1l-0.2-0.1l-0.4-0.1l0.2,0.1L22.6,62c-0.1,0-0.2-0.1-0.2-0.1h-0.3h-0.2
						c-0.2,0-0.4,0.2-0.5,0.4c0,0.1,0,0.2,0,0.3S21.5,62.8,21.5,62.8L21.5,62.8z"/>
					<path class="st1" d="M24.2,60.3c-0.2,0.6-0.1,1.3,0.1,1.9c0.3,0.6,0.7,1.3,1.5,1.4c0.6,0,1.2-0.3,1.5-0.8
						c0.5-0.4,0.9-0.9,1.1-1.5c0.1-0.4-0.1-0.9-0.6-1c-0.2,0-0.4,0-0.6,0.1c-0.6,0.5-0.9,1.1-1,1.8c-0.2,0.8-0.4,1.5-0.6,2.3
						l-0.4,1.3c0,0.2-0.1,0.3-0.1,0.5s0,0,0,0s0.4-0.2,0.5-0.1c-0.1-0.1-0.3-0.2-0.3-0.2s-0.3-0.3-0.5-0.4c-0.4-0.4-1-0.6-1.5-0.6
						c-0.4,0.1-0.6,0.4-0.6,0.8c0,0.3,0.1,0.7,0.4,0.9c0.2,0.2,0.4,0.3,0.5,0.4c0.4,0.4,0.8,0.7,1.3,0.9c0.6,0.2,1.3,0.1,1.7-0.4
						c0.3-0.4,0.5-0.9,0.5-1.3c0.2-1,0.5-1.9,0.7-2.9c0.1-0.3,0.1-0.7,0.2-1c0-0.2,0.1-0.4,0.1-0.5l0,0v-0.1l0,0l0.1-0.1L27,60.9
						c-0.1,0.3-0.3,0.6-0.5,0.8c-0.1,0.1-0.2,0.3-0.4,0.4s-0.1,0.1-0.2,0.2s-0.1,0,0,0s-0.1-0.2-0.2-0.2c-0.1-0.2-0.2-0.4-0.3-0.6
						c-0.2-0.4-0.3-0.7-0.5-1.1c-0.1-0.2-0.3-0.3-0.5-0.2C24.3,60.1,24.3,60.1,24.2,60.3z"/>
					<path class="st1" d="M28.1,63.8C28.1,63.8,28.1,63.9,28.1,63.8L28.1,63.8L28,64c-0.1,0.1-0.1,0.3-0.2,0.4
						c-0.1,0.3-0.1,0.6-0.1,0.8c0,0.1,0,0.2,0,0.3c0,0.1,0,0.2,0,0.3l0.1,0.2c0,0.1,0.1,0.3,0.2,0.4c0.3,0.3,0.7,0.4,1.1,0.2
						c0.1-0.1,0.2-0.2,0.3-0.3c0.1-0.1,0.1-0.3,0.1-0.4s0-0.2,0-0.4v0.2c0-0.4-0.2-0.9-0.2-1.3v0.2c0-0.2,0-0.3-0.1-0.4L29,64
						c-0.1-0.1-0.1-0.2-0.2-0.3L29,64v-0.1c-0.1-0.2-0.2-0.3-0.4-0.3C28.4,63.5,28.2,63.6,28.1,63.8L28.1,63.8z"/>
					<path class="st1" d="M28.9,63.8c0.3,0,0.6-0.3,0.6-0.6s-0.3-0.6-0.6-0.6l0,0c-0.3,0-0.6,0.3-0.6,0.6S28.5,63.8,28.9,63.8z"/>
					<path class="st1" d="M30.4,58.4c0,1,0.2,2,0.5,2.9c0.2,1,0.4,2,0.5,3.1c0.1,0.8,0,1.7-0.3,2.4c-0.2,0.3-0.4,0.6-0.7,0.9
						c-0.1,0.1-0.3,0.3-0.4,0.4s-0.5,0.3-0.3,0.3c-0.4,0.1-0.7,0.6-0.5,1c0.1,0.2,0.2,0.3,0.3,0.4c1.1,0.7,2.1-0.3,2.8-1.1
						c0.7-0.9,1-2.1,1-3.2c-0.1-1.2-0.3-2.4-0.7-3.6c-0.3-1.2-1.1-2.3-1.2-3.5c0-0.3-0.2-0.5-0.5-0.5S30.3,58.1,30.4,58.4L30.4,58.4
						z"/>
					<path class="st1" d="M33.1,59.1L33.1,59.1L33.1,59.1C33.2,59.2,33.1,59.1,33.1,59.1L33.1,59.1C33.2,59.2,33.1,59.1,33.1,59.1
						C33.3,59.1,33.2,58.9,33.1,59.1C33.2,59.3,33.3,59.4,33.1,59.1C33.1,59,33.2,59.1,33.1,59.1C33.2,59.3,33.2,59,33.1,59.1
						L33.1,59.1C33.2,59.1,33.2,58.9,33.1,59.1C33.2,59.1,33.2,59.1,33.1,59.1L33.1,59.1L33.1,59.1L33.1,59.1L33.1,59.1
						C33.1,59.3,33.2,59.1,33.1,59.1L33.1,59.1L33,59.4c-0.3,0.3-0.4,0.7-0.6,1.1c-0.2,0.5-0.2,1,0.1,1.4c0.2,0.3,0.5,0.5,0.8,0.7
						c0.5,0.2,1.1,0,1.3-0.5c0.2-0.3,0.1-0.8-0.1-1.1c-0.1-0.1-0.3-0.3-0.5-0.3h-0.2l0.2,0.1h-0.1l0.2,0.2l0,0l0.2,0.2v-0.1
						l-0.1,0.3v-0.1v0.3c0-0.1,0-0.3,0-0.4v0.3c0-0.2,0.1-0.5,0.2-0.7L34.3,61l0.2-0.4l-0.1,0.2c0.1-0.2,0.2-0.4,0.3-0.7
						s0.1-0.6,0-0.9c-0.1-0.4-0.3-0.6-0.7-0.8c-0.3-0.1-0.6,0-0.9,0.1c-0.2,0.1-0.3,0.4-0.2,0.6C33,59,33.1,59.1,33.1,59.1
						L33.1,59.1z"/>
					<path class="st1" d="M1.2,19.5c-1,1.1-1.5,2.7-1.2,4.2c0.1,1.6,0.4,3.1,0.9,4.6s1.5,2.9,2.8,3.8C5,32.8,6.6,33,8,32.6
						c0.8-0.2,1.6-0.6,2.3-1c0.4-0.2,0.8-0.4,1.1-0.7c0.4-0.2,0.8-0.5,1-0.9c0.2-0.3,0-0.8-0.3-0.9C12,29,11.9,29,11.8,29
						c-0.8-0.1-1.7,0.6-2.3,0.9c-0.7,0.3-1.3,0.6-2,0.8c-1.4,0.4-3-0.2-3.8-1.4C2.8,28,2.2,26.4,2,24.8c-0.3-1.5-0.8-3.3,0.1-4.7
						C2.4,19.6,1.7,19,1.2,19.5L1.2,19.5z"/>
					<path class="st1" d="M1.2,21.7c0.2-0.1,0.5-0.1,0.7,0c0.3,0.1,0.7,0.1,1,0c0.6-0.2,1.2-0.3,1.8-0.4c0.6,0,1.2-0.1,1.8-0.2
						S7.8,21,8.4,21c0.4,0,0.7-0.3,0.8-0.6c0-0.4-0.2-0.8-0.5-1c-1.3-0.8-3-0.1-4.3,0.2c-0.7,0.1-1.3,0.5-2,0.7S1.1,20.4,0.6,21
						C0.3,21.4,0.7,22,1.2,21.7L1.2,21.7z"/>
					<path class="st1" d="M1.9,26.8c1.4-0.2,2.7-0.7,4-1.3c0.5-0.3,0.9-0.6,1.4-0.9l0.4-0.2L8,24.2h0.1h0.2c0.1,0,0,0,0.1,0
						s0.2,0,0.1,0c0.4,0.1,0.8-0.2,0.9-0.6c0.1-0.4-0.1-0.8-0.5-0.9c-1.3-0.4-2.6,0.4-3.6,1.1c-0.5,0.4-1.1,0.7-1.7,1
						c-0.8,0.3-1.5,0.6-2.1,1.1c-0.2,0.2-0.2,0.6,0,0.8C1.6,26.8,1.8,26.9,1.9,26.8z"/>
					<path class="st1" d="M13.3,21.8l0.1-0.1c0.1-0.1,0,0,0,0h0.1c0.1,0-0.2,0,0,0s0,0-0.1,0h0.1c0.2,0.1,0.4,0.1,0.5,0.1
						c0.2,0,0.5,0,0.7-0.1c0.3-0.1,0.5-0.2,0.8-0.4c0.1-0.1,0.2-0.1,0.3-0.2c0.2-0.2,0.3-0.5,0.2-0.8c-0.1-0.2-0.2-0.4-0.5-0.4
						c-0.2,0-0.5,0-0.7,0.2l-0.6,0.4l-0.1,0.1c0,0-0.2,0.1-0.1,0s0,0,0,0h0.1H14h-0.3c-0.1,0-0.2,0-0.4,0c-0.3,0.1-0.6,0.3-0.7,0.6
						c-0.1,0.2-0.1,0.6,0.2,0.7C12.9,21.8,13.1,21.8,13.3,21.8L13.3,21.8z"/>
					<path class="st1" d="M14.7,23.6l0.3-0.1L14.7,23.6c0.2-0.1,0.4-0.1,0.5-0.2l0.2-0.1l0.4-0.1l0.5-0.1c0.1,0,0.2-0.1,0.3-0.1
						c0.1,0,0.2-0.1,0.3-0.2c0.2-0.1,0.3-0.3,0.3-0.6c0-0.2-0.1-0.4-0.3-0.5c-0.1-0.1-0.2-0.1-0.3-0.1c-0.2-0.1-0.4-0.1-0.5-0.1
						c-0.2,0-0.5,0.1-0.7,0.1c-0.2,0.1-0.4,0.2-0.6,0.3L14.6,22l-0.1,0.1c-0.1,0.1-0.2,0.2-0.3,0.3l0.1-0.1l-0.2,0.2
						c-0.2,0.2-0.2,0.5-0.1,0.7C14.1,23.5,14.4,23.6,14.7,23.6L14.7,23.6z"/>
					<path class="st1" d="M21,16.7c0.2,1,1.1,1.6,1.5,2.5c0.3,1,0.8,1.9,1.5,2.7c0.3,0.3,0.8,0.4,1.1,0.1c0.7-0.4,1-1.2,0.8-1.9
						c-0.1-0.6-0.4-1.1-0.2-1.7c0.1-0.4,0.2-0.8,0.3-1.2c0-0.4-0.1-0.9,0-1.3c0-0.2,0.2-0.3,0.2-0.5c0,0.1-0.1,0.1,0,0
						s-0.4,0.1-0.2,0.1c0,0-0.2,0-0.2-0.1s0.3,0.2,0.1,0.1s0.1,0.1,0.1,0.1l0.2,0.2c0.2,0.3,0.5,0.7,0.6,1c0.4,0.6,0.7,1.3,1,2
						c0.3,0.5,0.9,0.6,1.4,0.3c0.1,0,0.1-0.1,0.2-0.1c0.5-0.8,0.8-1.8,0.8-2.8c0-0.2,0-0.3,0.1-0.5c0-0.2,0.1-0.4,0.2-0.6
						c-0.1,0.2,0-0.1,0.1-0.1c0.1-0.2-0.1,0,0.1-0.1s0,0,0.1,0c-0.1,0,0.3-0.1,0.1,0L30,14.4c0.5,0.7,1.2,1.3,1.7,2
						c0.3,0.5,0.9,0.6,1.4,0.4c0.5-0.3,0.6-0.9,0.4-1.4l0,0c-0.3-0.6-0.6-1.1-1.1-1.5c-0.4-0.4-0.8-1.1-1.5-1.1
						c-0.8,0-1.6,0.5-2,1.3c-0.3,0.7-0.5,1.5-0.5,2.3c0,0.3,0,0.6-0.1,0.9c0,0.2-0.1,0.3-0.1,0.5c0.1-0.2-0.1,0.2-0.2,0.2h1.7
						c-0.4-0.8-0.8-1.5-1.2-2.2c-0.4-0.9-1.2-1.6-2.1-2c-1.5-0.3-2.3,1.4-2.2,2.7c0.1,0.5,0,1-0.1,1.4s-0.2,0.8-0.2,1.3
						c0,0.3,0.1,0.7,0.2,1c0,0.2,0.1,0.4,0.1,0.5c0,0,0.2-0.2,0.1-0.1l1.1,0.1c-0.6-0.7-1.2-1.4-1.5-2.2c-0.3-0.4-0.6-0.7-0.9-1
						c-0.4-0.3-0.8-0.6-1.1-1c-0.1-0.2-0.4-0.2-0.5-0.1C21,16.3,21,16.5,21,16.7L21,16.7z"/>
					<path class="st1" d="M35.2,15.9c0.4,0,0.7-0.3,0.7-0.7s-0.3-0.7-0.7-0.7s-0.7,0.3-0.7,0.7C34.5,15.6,34.8,15.9,35.2,15.9z"/>
					<path class="st1" d="M39.5,7.6c-0.9,0.2-1.6,0.8-2.1,1.5c-0.4,0.8-0.6,1.7-0.5,2.6c0,1,0.3,1.9,1,2.5c0.9,0.7,2,0.9,3.1,0.4
						c0.6-0.2,1.1-0.6,1.4-1.2c0.2-0.5,0.3-0.9,0.4-1.4c0.1-0.5-0.2-1-0.7-1.2c-0.4-0.1-0.8,0.1-1.1,0.4l-0.2,0.4
						c0,0.1-0.1,0.1-0.1,0.2c-0.1,0.2,0.1-0.2,0,0c-0.1,0.1-0.2,0.2-0.3,0.4c0,0,0.2-0.2,0.1-0.1l-0.1,0.1c0,0-0.2,0.2-0.1,0.1
						s0,0-0.1,0s-0.3,0.1-0.1,0.1s-0.1,0-0.1,0c-0.1,0-0.2,0.1-0.3,0.1c0,0,0.3,0,0.1,0h-0.2c-0.1,0-0.2,0-0.2,0h0.2h-0.1
						c-0.1,0-0.1,0-0.2-0.1c-0.1,0,0.1,0.1,0.1,0.1l-0.1-0.1c0,0-0.1,0-0.1-0.1c0,0,0.2,0.2,0.1,0.1l-0.1-0.1c-0.2-0.2,0.1,0.2,0,0
						l-0.1-0.1c-0.1-0.1,0.1,0.2,0,0.1v-0.1c0-0.1,0-0.1,0-0.2c0-0.1,0-0.2,0-0.2v0.1c0-0.1,0-0.1,0-0.2c0-0.3-0.1-0.7-0.1-1
						c0-0.1,0-0.3,0-0.4s0-0.1,0-0.1s0-0.1,0,0s0,0.1,0,0V10c0-0.2,0.1-0.3,0.2-0.5l0,0c0-0.1-0.1,0.1,0,0s0.1-0.2,0.1-0.2
						c0.2-0.3,0.4-0.6,0.6-0.8c0.2-0.2,0.2-0.5,0-0.7C39.9,7.6,39.7,7.5,39.5,7.6L39.5,7.6z"/>
					<path class="st1" d="M40,1.7C40,1.7,39.9,1.6,40,1.7V1.6c0,0,0,0,0-0.1c0,0.1,0,0,0,0l0,0V1.4c0,0,0,0,0-0.1s0,0.1,0,0.1l0,0
						c0-0.1-0.1,0.1,0,0V1.3c0,0-0.1,0.1,0,0s0,0,0,0h0.1c0.1,0-0.2,0,0,0l0,0c-0.1,0,0,0,0,0s0,0-0.1,0l0,0c-0.1,0-0.1-0.1-0.1-0.1
						L40,1.3c0,0-0.1-0.2-0.1-0.1L40,1.3c0,0.1,0,0.1,0-0.1v0.1c0,0.1,0,0.1,0,0.2S40,1.6,40,1.7c0,0,0,0,0,0.1
						C39.9,1.5,40,1.6,40,1.7c0,0.2,0,0.5,0,0.7c0-0.3,0-0.1,0,0v0.5c0,0.1,0,0.3,0,0.4c0,0.9,0.7,1.7,1.7,1.9
						c0.4,0.1,0.9,0.1,1.3,0c0.2-0.1,0.4-0.1,0.6-0.3c0.4-0.2,0.6-0.6,0.6-1c0-0.2-0.1-0.5-0.3-0.6c-0.2-0.2-0.4-0.2-0.6-0.3
						c-0.1,0-0.3,0-0.4,0c-0.1,0-0.2,0.1-0.3,0.1c-0.2,0.1,0.2-0.1,0.1,0c-0.2,0.1-0.3,0.1-0.5,0.1h0.3c-0.2,0-0.3,0-0.5,0h0.3
						c-0.1,0-0.2-0.1-0.3-0.1c0,0,0.3,0.1,0.1,0H42h-0.1c0,0,0.2,0.2,0.1,0.1l-0.1-0.1C42.1,3.3,42,3.3,42,3.2V3.1
						c0.2,0.2,0.1,0.2,0.1,0.1s0,0,0-0.1s0,0.1,0,0.1v0.1c0-0.3,0-0.5,0-0.8S42,2,42,1.7c-0.1-0.6-0.5-1.1-1-1.5
						c-0.6-0.3-1.4-0.1-1.8,0.5c-0.3,0.5-0.1,1.2,0.3,1.6c0.2,0.1,0.4,0.1,0.5-0.1C40.1,2,40.1,1.8,40,1.7L40,1.7z"/>
					<path class="st1" d="M57,30.4c-0.6,1.4-1.1,2.9-1.3,4.4c-0.3,1.6-0.6,3.2-0.7,4.9c0,2.9,0.3,5.9,1.1,8.7
						c0.4,2.2,0.5,5.9,3.6,5.8c2.7-0.1,4.3-3.3,4.7-5.6c0.3-1.5,0.3-3,0.4-4.5s0.5-3.2,0.7-4.7c0.4-3,0.2-6-1.4-8.7
						c-1.1-1.8-3.9-3.8-5.9-2.3s-2.4,4.7-2.6,7c-0.4,3-0.6,6-0.4,9c0.2,1.7,0.4,3.4,0.7,5.1c0.2,1.4,0.9,2.7,2,3.6
						c0.8,0.5,1.5-0.8,0.7-1.2c-1-0.6-1.4-2.1-1.6-3.1c-0.2-1.3-0.6-2.6-0.7-4c0-2.1,0.1-4.2,0.4-6.2c0.1-2.2,0.4-4.3,0.9-6.4
						c0.3-1,0.7-2.4,1.9-2.5s2.1,0.7,2.8,1.5c0.7,0.9,1.3,2,1.5,3.2c0.3,1.3,0.3,2.7,0.2,4c-0.2,2.3-0.7,4.5-0.9,6.8
						s-0.2,5.2-2.2,6.9c-1.5,1.3-2.8,0.3-3.2-1.3c-0.3-1.2-0.5-2.5-0.8-3.7c-0.6-2.5-0.9-5.2-0.8-7.8c0.1-1.3,0.3-2.6,0.5-3.8
						c0.1-1.6,0.4-3.2,0.9-4.8C57.5,30.4,57.1,30.2,57,30.4L57,30.4z"/>
					<path class="st1" d="M49.2,38.5c0.8,1.1,1.7,2.1,2.8,3c1,0.9,2.1,1.8,3.2,2.7c2.4,1.7,5.1,2.9,8,3.7c1.5,0.6,3,1.1,4.5,1.6
						c1.2,0.3,2.4-0.1,3.2-1c1.6-2.3-0.2-5.3-1.9-6.9c-1.1-0.9-2.3-1.8-3.5-2.5c-1.3-0.9-2.5-1.9-3.7-2.9s-2.4-1.8-3.8-2.5
						c-1.3-0.6-2.6-0.9-4-1c-2.3-0.3-6,0.9-6,3.7c0.1,1.3,0.7,2.4,1.6,3.3c1,1,2.1,1.9,3.2,2.7c2.7,2,5.5,3.8,8.5,5.2
						c1.3,0.6,2.6,1.2,4,1.7c1.3,0.5,2.7,0.5,4,0c0.3-0.2,0.4-0.7,0.1-1C69.3,48,69,47.9,68.7,48c-1,0.4-2.2,0.4-3.2,0
						c-1-0.3-2-0.7-3.1-1.1c-1.1-0.5-2.2-1-3.2-1.7c-1.1-0.7-2-1.5-3-2.2c-1.9-1.1-3.6-2.5-5.1-4c-0.9-1-1.9-2.2-0.9-3.5
						c0.9-0.9,2.2-1.3,3.5-1.2c2.3,0.2,4.5,1.1,6.3,2.5c1.9,1.5,3.8,3,5.8,4.3c1.7,1.2,4.7,3.3,4.1,5.8c-0.4,1.8-2.1,1.4-3.4,1
						s-2.4-0.7-3.6-1.2c-2.5-0.8-4.9-2-7.2-3.5c-1.1-0.8-2.2-1.7-3.3-2.5c-1.1-0.7-2-1.6-2.9-2.5C49.4,38,49.1,38.3,49.2,38.5
						L49.2,38.5z"/>
					<path class="st1" d="M52.4,49.3c1.4-0.1,2.8-0.5,4.1-1c1.5-0.5,3-1.1,4.5-1.7c2.5-1.3,4.8-3,6.8-5c1.6-1.5,5.4-3.5,4-6.2
						c-1.3-2.5-4.8-2.4-7.1-1.7c-1.3,0.5-2.5,1-3.7,1.7c-1.5,0.7-3.1,1.2-4.6,1.8c-1.3,0.5-2.5,1.1-3.6,1.8c-1.2,0.8-2.2,1.8-3,3
						c-1.4,1.8-2.1,5.2,0,6.8c1,0.6,2.3,0.8,3.4,0.6c1.5-0.3,3-0.8,4.5-1.5c1.3-0.6,2.5-1.3,3.8-1.8c1.6-0.7,3.1-1.6,4.5-2.6
						c1.3-1,2.6-1.9,3.8-2.9c1.1-0.8,1.9-2.1,2.1-3.5c0-0.9-1.4-0.9-1.4,0c0,1.1-1,2.2-1.8,2.9s-1.8,1.7-2.8,2.4
						c-2,1.3-4.2,2.4-6.4,3.3L57,46.9c-1.2,0.6-2.4,1-3.7,1.3c-1.2,0.3-2.6,0-3-1.3c-0.2-1.2,0.1-2.5,0.8-3.5
						c1.3-1.9,3.2-3.4,5.3-4.2c2.2-0.9,4.3-1.8,6.5-2.8c1.9-0.9,5.3-2.5,7.2-0.8c1.3,1.2,0.2,2.5-0.8,3.4s-1.8,1.6-2.7,2.4
						c-1.9,1.7-4,3.2-6.2,4.4c-1.3,0.7-2.7,1.2-4.1,1.7c-1.3,0.6-2.6,1-3.9,1.3C52,48.7,52.1,49.2,52.4,49.3L52.4,49.3z"/>
					<path class="st1" d="M68.9,33.1L68.9,33.1l0.3,0.1h-0.1l0.2,0.1l0,0c-0.2-0.2-0.5-0.3-0.8-0.2l0,0h0.2c-0.4,0-0.8,0.2-1,0.5
						s-0.3,0.6-0.3,1s0.2,0.7,0.4,1c0.2,0.2,0.4,0.3,0.6,0.4c0.2,0,0.3,0.1,0.5,0.1c0.3,0,0.6-0.1,0.9-0.2c0.3-0.2,0.6-0.6,0.7-0.9
						c0-0.2,0.1-0.3,0.1-0.5c0-0.1,0-0.1,0-0.2c0-0.3-0.1-0.5-0.1-0.7c-0.1-0.2-0.1-0.3-0.2-0.5c-0.2-0.3-0.5-0.5-0.8-0.6
						c-0.2-0.1-0.5-0.1-0.7-0.1c-0.3,0-0.5,0.1-0.8,0.2c-0.1,0.1-0.3,0.2-0.4,0.3c-0.2,0.2-0.4,0.4-0.5,0.6
						c-0.4,0.7-0.3,1.7,0.3,2.2c0.2,0.2,0.5,0.4,0.8,0.5c0.2,0.1,0.4,0.1,0.6,0.2c0.3,0,0.5-0.1,0.8-0.2c0.1-0.1,0.3-0.2,0.4-0.3
						s0.2-0.3,0.3-0.4c0.1-0.2,0.2-0.5,0.3-0.8c0-0.2,0-0.3,0-0.5s0-0.4-0.1-0.6c0-0.1,0-0.1,0-0.2c-0.1-0.2-0.1-0.3-0.2-0.5
						c-0.2-0.3-0.4-0.5-0.7-0.7c-0.4-0.2-0.9-0.3-1.3-0.1c-0.3,0.1-0.5,0.2-0.7,0.4c-0.3,0.2-0.5,0.4-0.7,0.7
						c-0.1,0.2-0.2,0.5-0.3,0.8c-0.1,0.2-0.1,0.4-0.1,0.5c0,0.2,0,0.4,0.1,0.6c0.1,0.3,0.3,0.6,0.6,0.9c0.2,0.2,0.4,0.3,0.7,0.5
						c0.2,0.1,0.3,0.2,0.5,0.2s0.4,0.1,0.6,0.1c0.3,0,0.5-0.1,0.8-0.2l0.1-0.1c0.1-0.1,0.2-0.2,0.3-0.3c0.4-0.5,0.6-1,0.6-1.7
						c0.1-1-0.4-1.9-1.3-2.2c-0.7-0.1-1.4,0.1-1.9,0.6c-0.2,0.2-0.4,0.4-0.5,0.6c-0.1,0.2-0.2,0.4-0.2,0.7c-0.1,0.2-0.1,0.5,0,0.7
						s0.2,0.5,0.4,0.7c0.1,0.1,0.1,0.1,0.2,0.2l-0.2-0.2l0,0c0.1,0.1,0.2,0.3,0.4,0.4c0.2,0.1,0.4,0.2,0.6,0.1
						c0.4,0,0.7-0.3,0.8-0.7c0-0.1,0-0.1,0-0.2v-0.1c0.1-0.2,0.1-0.4,0-0.6v-0.1v0.3c0-0.1,0-0.2,0-0.2v0.3c0-0.1,0-0.3,0.1-0.4
						l-0.1,0.3l0.1-0.1l-0.1,0.3c0-0.1,0.1-0.2,0.2-0.3l-0.2,0.2c0.1-0.1,0.1-0.2,0.2-0.2l-0.2,0.2c0.1-0.1,0.2-0.1,0.2-0.1L69,34.5
						c0.1,0,0.1-0.1,0.2-0.1h-0.3h0.2h-0.3h0.1l-0.3-0.1l0.1,0.1l-0.2-0.2l0.1,0.1L68.3,34c0,0.1,0.1,0.1,0.1,0.2l-0.1-0.3
						c0,0.1,0.1,0.2,0.1,0.3v-0.3c0,0.2,0,0.3,0,0.5V34c0,0.1,0,0.2-0.1,0.3l0.1-0.3c0,0.1-0.1,0.1-0.1,0.2l0.2-0.2
						c0,0.1-0.1,0.1-0.2,0.2l0.3-0.2h-0.1l0.3-0.1h-0.1H69c-0.1,0-0.2,0-0.3,0H69l-0.2-0.1L69,34c-0.1-0.1-0.2-0.1-0.3-0.2L69,34
						c-0.1-0.1-0.2-0.2-0.3-0.3l0.2,0.2c0,0-0.1-0.1-0.1-0.2l0.1,0.3v-0.1l0.1,0.3c0-0.1,0-0.1,0-0.2l-0.1,0.3c0-0.1,0-0.2,0.1-0.2
						l-0.1,0.3c0.1-0.2,0.1-0.3,0.2-0.5l-0.2,0.3l0.1-0.1l-0.3,0.2l0.2-0.1l0.3-0.2L69,34.2h0.1h-0.3H69h-0.3h0.1l-0.3-0.1l0.1,0.1
						L68.3,34l0.1,0.1l-0.2-0.2l0.1,0.2l-0.1-0.3c0,0.1,0.1,0.3,0.1,0.4v-0.3c0,0.1,0,0.2,0,0.4V34c0,0.1,0,0.3-0.1,0.4l0.1-0.3
						c0,0.1-0.1,0.2-0.1,0.2l0.2-0.2L68.3,34l0.3-0.2h-0.1l0.3-0.1h-0.1H69h-0.2h0.3H69l0.3,0.1c-0.1-0.1-0.2-0.1-0.3-0.2l0.3,0.2
						c-0.1,0-0.1-0.1-0.2-0.2l0.2,0.2l-0.1-0.1l0.1,0.3v-0.1v0.3v-0.1v0.3v-0.1l-0.1,0.3c0-0.1,0.1-0.2,0.1-0.2l-0.2,0.2
						c0.1-0.1,0.2-0.2,0.3-0.4l-0.2,0.2h0.1L69,34.6c0.1,0,0.2,0,0.3,0H69h0.2h-0.3l0,0l-0.3-0.1l0,0l-0.2-0.2l0.1,0.1l-0.2-0.2
						c0,0.1,0.1,0.1,0.1,0.2L68.3,34c0.1,0.1,0.1,0.3,0.1,0.4v-0.3c0,0.1,0,0.2,0,0.3v-0.3c0,0.1,0,0.1,0,0.2l0.1-0.3
						c0,0,0,0.1-0.1,0.1l0.2-0.2L68.5,34l0.2-0.2h-0.1l0.3-0.1h-0.1h0.3h-0.2h0.3c-0.1,0-0.1,0-0.2,0l0.3,0.1c0,0-0.1,0-0.1-0.1
						l0.2,0.2l-0.1-0.1l0.2,0.2l-0.3-0.2l0.2,0.2v0l0.1,0.3v-0.1v0.3c0-0.1,0-0.1,0-0.2v0.3c0-0.2,0-0.4,0-0.6v0.3V34v0.2v-0.1
						l-0.2,0.4l0,0c0.2-0.2,0.3-0.5,0.2-0.8l0,0v0.4l0,0l-0.1,0.2l0,0l-0.3,0.3l0,0c0.3-0.2,0.4-0.5,0.3-0.8c0-0.1-0.1-0.2-0.2-0.3
						s-0.3-0.2-0.5-0.2L68.9,33.1z"/>
					<path class="st1" d="M51.8,33.7L51.8,33.7L51.8,33.7c0-0.2,0-0.2,0-0.3v-0.1c0-0.1-0.1-0.1-0.1-0.2l0,0l0.1,0.1l0,0v0.1l0,0
						v0.2c0-0.1,0-0.2-0.1-0.3l0.1,0.1c0-0.1-0.1-0.3-0.2-0.4c-0.1-0.1-0.1-0.1-0.2-0.1c-0.1-0.1-0.3-0.1-0.4-0.1
						c-0.1,0-0.1,0-0.2,0l0,0c-0.1,0-0.2,0.1-0.3,0.1c-0.1,0.1-0.2,0.1-0.3,0.2c-0.1,0-0.1,0.1-0.2,0.2l0,0l0,0c0,0-0.1,0.2-0.2,0.2
						c-0.1,0.1-0.1,0.2-0.1,0.3v0.1c0,0.1,0,0.2,0,0.3v0.1c0,0.2,0.1,0.5,0.2,0.7L50,35l0.1,0.1l0,0c0.1,0.1,0.1,0.1,0.2,0.2h0.1
						l0.3,0.1l0,0h0.1c0.2,0.1,0.4,0.1,0.7,0h0.1h0.1l0.3-0.1c0.1-0.1,0.2-0.2,0.3-0.3l0.1-0.1c0.1-0.1,0.2-0.2,0.3-0.3
						s0.1-0.3,0.2-0.4v-0.1c0-0.1,0-0.3,0-0.4v-0.1c0-0.1,0-0.2,0-0.4v-0.1c0-0.1-0.1-0.2-0.1-0.3c-0.1-0.1-0.2-0.2-0.3-0.3
						s-0.2-0.2-0.4-0.3c-0.1-0.1-0.2-0.1-0.4-0.2h-0.2h-0.2c0,0,0,0-0.1,0s-0.2,0-0.3,0l0,0l-0.3,0.1l0,0l0,0
						c-0.1,0.1-0.2,0.1-0.3,0.2l0,0l0,0c-0.1,0.1-0.2,0.2-0.2,0.3v0.1C50,32.8,50,32.9,50,33c0,0,0,0,0,0.1s0,0.2,0,0.3s0,0.2,0,0.3
						s0,0.3,0.1,0.4l0,0c0,0,0.1,0.2,0.2,0.3v0.1l0.2,0.3l0,0c0.1,0.1,0.2,0.2,0.3,0.3l0.1,0.1c0.1,0.1,0.2,0.1,0.4,0.2h0.1
						c0.1,0,0.2,0,0.3,0h0.1c0.1,0,0.2,0,0.4,0H52l0.3-0.1h0.1c0.1-0.1,0.2-0.2,0.3-0.3c0.2-0.2,0.3-0.4,0.4-0.7c0-0.2,0-0.3,0-0.5
						c0-0.3-0.1-0.5-0.2-0.8v-0.1l-0.2-0.3l0,0l0,0c-0.1-0.1-0.2-0.1-0.2-0.2l0,0l-0.3-0.1l0,0c-0.1,0-0.3-0.1-0.4,0
						c-0.2,0-0.3,0-0.5,0.1s-0.4,0.2-0.6,0.3l-0.2,0.2l0,0l0,0c-0.1,0.1-0.1,0.2-0.1,0.3s0,0.2,0,0.3l0,0c0,0.2,0,0.3,0.1,0.5
						c0.1,0.1,0.2,0.2,0.3,0.3s0.2,0.1,0.3,0.2c0.2,0,0.4,0,0.5,0l0,0h-0.3h0.1h-0.3h0.1h0.2c0.1,0,0.3,0,0.5,0l0,0h0.2h-0.3h0.1
						h-0.3l0,0l-0.3-0.1l0,0l-0.2-0.2l0.1,0.1l-0.5-0.1l0.1,0.1L50.7,34v0.1v-0.3V34v-0.3v0.1l0.1-0.3v0.1l0.2-0.2
						c0,0,0,0.1-0.1,0.1l0.2-0.2L51,33.4l0.3-0.1h-0.1h0.3h-0.2h0.3h-0.1l0.3,0.1c0,0-0.1,0-0.1-0.1l0.2,0.2l-0.1-0.1l0.2,0.3
						l-0.1-0.1l0.1,0.3v-0.1v0.3V34v0.3c0-0.1,0-0.1,0-0.2l-0.1,0.3c0,0,0-0.1,0.1-0.1l-0.2,0.2l0.1-0.1l-0.2,0.2l0.1-0.1l-0.3,0.1
						h0.1h-0.3h0.1H51h0.1l-0.3-0.2c0,0,0.1,0,0.1,0.1l-0.2-0.2l0.1,0.1L50.7,34c0,0,0,0.1,0.1,0.1l-0.1-0.3v0.1v-0.3
						c0,0.1,0,0.1,0,0.2v-0.3c0,0.1,0,0.1-0.1,0.2l0.1-0.3c0,0.1-0.1,0.1-0.1,0.2l0.2-0.2c0,0.1-0.1,0.1-0.1,0.2l0.2-0.2l-0.1,0.1
						l0.3-0.1H51h0h-0.1h0.3h-0.1l0.3,0.1l-0.1-0.1l0.2,0.2c0,0-0.1,0-0.1-0.1l0.2,0.2v-0.1l0.1,0.2L51.8,33.7L51.7,34
						c0,0,0-0.1,0-0.2v0.3C51.7,34,51.7,33.8,51.8,33.7L51.7,34C51.6,34,51.6,33.9,51.8,33.7L51.6,34c0-0.1,0.1-0.1,0.1-0.2L51.6,34
						c0.1-0.1,0.2-0.3,0.2-0.4l0,0V33.7L51.8,33.7l-0.1,0.2l0,0L51.5,34h0.1h-0.2C51.5,34,51.6,33.9,51.8,33.7L51,33.8l0,0
						c0.1,0.1,0.1,0.1,0.2,0.1c0.1,0,0.1,0,0.2,0C51.5,33.9,51.6,33.9,51.8,33.7L51.8,33.7z"/>
					<path class="st1" d="M64.7,41.3L64.7,41.3l-0.1-0.2c0-0.1-0.1-0.1-0.2-0.2c0,0-0.1-0.1-0.2-0.1s-0.2-0.1-0.3-0.1l0,0h0.2H64
						c-0.2,0-0.3,0-0.5,0l-0.3,0.1c-0.2,0.1-0.4,0.3-0.5,0.5l0.2-0.2c-0.1,0.1-0.1,0.1-0.2,0.2v0.1l-0.1,0.1c0,0.1,0,0.2,0,0.3l0,0
						c0,0.1,0,0.2,0,0.3l0,0c0,0.1,0.1,0.2,0.1,0.3l0,0c0,0,0,0,0,0.1c0.1,0.1,0.1,0.2,0.2,0.3l0.1,0.1l0.3,0.2l0,0l0.1,0.1h0.1l0,0
						H64c0.1,0,0.2,0,0.3,0c0.1,0,0.2-0.1,0.3-0.1l0,0l0.2-0.2c0.1-0.1,0.1-0.1,0.1-0.2c0.1-0.1,0.1-0.2,0.2-0.3s0.1-0.3,0.2-0.4
						c0-0.1,0.1-0.3,0.1-0.5v-0.1c0-0.1,0-0.1,0-0.2c0,0,0-0.1,0-0.2l0,0c-0.1-0.2-0.2-0.4-0.3-0.6c-0.1-0.1-0.2-0.2-0.3-0.3
						L64.6,40c-0.1-0.1-0.2-0.1-0.3-0.2c-0.1,0-0.2,0-0.2,0c-0.2,0-0.4,0-0.5,0s-0.2,0.1-0.4,0.1h-0.1l-0.3,0.2h-0.1
						c0,0-0.1,0.1-0.2,0.2c0,0-0.1,0.1-0.1,0.2c-0.1,0.1-0.1,0.2-0.1,0.3c-0.1,0.2-0.1,0.3-0.1,0.5v0.1c0,0.1,0,0.3,0,0.4l0,0l0,0
						c0,0.1,0.1,0.2,0.1,0.3s0,0,0,0c0.1,0.1,0.1,0.2,0.2,0.3l0.1,0.1c0.1,0.1,0.2,0.2,0.3,0.2c0.1,0.1,0.2,0.1,0.4,0.2h0.1h0.4l0,0
						c0.1,0,0.3,0,0.4,0h0.1l0.3-0.1l0,0l0,0l0.3-0.2H65c0.1-0.1,0.2-0.2,0.2-0.3l0,0c0.1,0,0.2-0.1,0.4-0.2c0-0.1,0-0.3,0.1-0.4
						v-0.1c0-0.1,0-0.1,0-0.2c0,0,0-0.1,0-0.2s0,0,0,0c0-0.1,0-0.1-0.1-0.2c0-0.1-0.1-0.1-0.1-0.2c-0.1-0.1-0.1-0.2-0.2-0.3l0,0l0,0
						L65,40.3l0,0l0,0L64.5,40l0,0c-0.1,0-0.2,0-0.2,0H64l0,0h-0.3l0,0c-0.2,0.1-0.4,0.2-0.6,0.3l0,0l0,0c-0.1,0.1-0.1,0.2-0.2,0.3
						L62.8,41c-0.1,0.1-0.1,0.3-0.2,0.5v0.1c0,0.1,0,0.3,0,0.4l0,0c0,0.1,0,0.3,0,0.3l0,0c0,0.1,0.1,0.3,0.2,0.4
						c0.1,0.2,0.3,0.4,0.5,0.5c0.1,0.1,0.3,0.1,0.4,0.2c0.1,0,0.3,0.1,0.4,0h0.2c-0.3,0,0.1,0,0.2,0l0.3-0.1
						c0.1-0.1,0.3-0.2,0.4-0.3c-0.2,0.3,0.1-0.1,0.1-0.1l0,0c0.1-0.1,0.1-0.2,0.1-0.3s0,0,0-0.2s0-0.1,0-0.2V42c0-0.2,0-0.3-0.1-0.5
						l0,0L65,41.3l0,0l-0.2-0.1c-0.1-0.1-0.2-0.1-0.3-0.2c-0.1,0-0.2,0-0.4,0h0.3l0,0l0.3,0.1L64.6,41c-0.1,0-0.2,0-0.3,0h-0.2l0,0
						h0.3h-0.2c-0.2,0-0.3,0-0.5,0l0,0H64h0h0.3h-0.1l0.3,0.1h-0.1L64.7,41.3L64.7,41.3l0.1,0.2v-0.1l0.1,0.3c0,0,0,0,0-0.1l0.1,0.3
						c0,0,0,0,0-0.1l0,0.5c0-0.1,0-0.1,0.1-0.2L65,42.4c0-0.1,0.1-0.1,0.1-0.2l-0.2,0.3l0,0l-0.3,0.2l0,0l-0.3,0.1h0.1H64l0,0h-0.3
						h0.1l-0.3-0.1h0.1l-0.3-0.2l0,0l-0.1-0.2v0.1L63,42v0.1v-0.3v0.1v-0.3v0.1l0.1-0.3v0.1l0.2-0.3c0,0,0,0-0.1,0.1l0.3-0.2h-0.1
						l0.3-0.1h-0.1h0.3h-0.1h0.3H64l0.3,0.1h-0.1l0.3,0.2l-0.1-0.1L64.7,41.3C64.6,41.3,64.6,41.3,64.7,41.3v0.3v-0.1v0.3v-0.1V42
						v-0.1l-0.1,0.3c0.1-0.1,0.1-0.2,0.1-0.3l-0.1,0.3l0.1-0.1l-0.2,0.3l0.1-0.1l-0.2,0.2h0.1l-0.3,0.1l0,0h-0.3H64h-0.3
						c0.1,0,0.2,0,0.3,0.1l-0.3-0.1l0.1,0.1l-0.2-0.2l0,0L63.4,42l0,0l-0.1-0.3c0,0,0,0,0,0.1v-0.3v0.1v-0.3c0,0.1,0,0.2-0.1,0.3
						l0.1-0.3c0,0.1,0,0.1-0.1,0.2l0.2-0.2l0,0l0.2-0.2l0,0l0.3-0.1l0,0h0.3l0,0h0.3l0,0l0.3,0.1c-0.1,0-0.1-0.1-0.2-0.1L64.7,41.3
						c-0.1-0.1-0.1-0.1-0.2-0.2L64.7,41.3L64.7,41.3l0.1,0.3l0,0v0.3c0-0.1,0-0.2-0.1-0.3v0.3v-0.1V42c0-0.1,0-0.1,0.1-0.2L64.7,42
						c0.1-0.1,0.1-0.3,0.1-0.5v-0.1L64.7,41.3L64.5,42l0,0l0.1-0.1c0.1-0.1,0.1-0.1,0.1-0.2c0-0.1,0-0.1,0-0.2
						C64.8,41.4,64.8,41.3,64.7,41.3L64.7,41.3z"/>
					<path class="st1" d="M56.6,25.5c-2.6,0.1-5.1,0.9-7.2,2.3c-1.9,1.4-3.5,3.3-4.4,5.5c-1.2,2.5-0.9,5.6-0.6,8.2
						c0.2,2.6,1,5.1,2.4,7.4c1.2,2,2.7,4.2,4.8,5.3s4.4,1.8,6.7,2.2c4.9,0.9,10.6,0.1,14.5-3.2c1-0.7,1.9-1.5,2.8-2.4
						c0.8-1,1.5-2.1,2-3.3c0.6-1.2,0.9-2.4,1.2-3.7c0.3-1.3,0.4-2.7,0.5-4.1c-0.1-1.2-0.4-2.3-0.8-3.4c-0.3-1.2-0.7-2.3-1.3-3.4
						c-0.7-1-1.6-1.9-2.6-2.7c-1-0.9-1.9-1.9-3-2.7c-1.8-1.3-3.8-2.1-6-2.4c-2.8-0.5-5.6-0.7-8.4-0.6c-2.6,0.2-5.2,0.9-7.6,2.1
						c-2.1,1.2-3.7,3.1-4.7,5.3c-0.5,1.4-0.8,2.9-0.9,4.4c-0.3,1.4-0.4,2.9-0.4,4.3c0,0.6,0.1,1.3,0.3,1.9c0.2,0.9,0.3,1.7,0.4,2.6
						c0.2,1.3,0.6,2.5,1.3,3.6c0.9,1.1,1.9,2.2,3,3.1c0.9,1,1.9,1.9,3.1,2.5c1.1,0.5,2.3,1,3.5,1.3c0.6,0.1,1.2,0.1,1.7,0.1
						c0.9,0,1.8,0.1,2.7,0.2c0.8,0.1,1.2-1.1,0.3-1.2c-1-0.2-2-0.3-3-0.2c-0.5,0.1-1,0-1.5-0.1c-0.4-0.1-0.8-0.4-1.3-0.5
						c-1.1-0.3-2.1-0.8-3-1.4c-0.9-0.8-1.8-1.7-2.6-2.6c-0.9-0.7-1.6-1.5-2.1-2.5c-0.5-1.2-0.8-2.4-0.8-3.6
						c-0.1-1.1-0.6-2.1-0.6-3.2c-0.1-1.3,0-2.6,0.3-3.8c0.1-1.2,0.3-2.3,0.6-3.4c0.4-1.2,1-2.3,1.8-3.3c1.4-2,3.6-2.9,5.8-3.5
						c2.4-0.6,4.8-0.8,7.3-0.7c2.3,0.1,4.6,0.5,6.7,1.2c0.9,0.3,1.8,0.7,2.6,1.2c0.9,0.6,1.8,1.3,2.5,2.1c1.6,1.6,3.4,2.9,3.9,5.2
						c0.2,1,0.7,1.9,0.9,2.9c0.2,1.2,0.1,2.4-0.1,3.5c-0.2,2.5-1,4.9-2.4,6.9c-0.7,0.8-1.4,1.6-2.3,2.2c-0.9,0.8-1.8,1.4-2.8,2
						c-2,1-4.3,1.7-6.5,1.8c-2.3,0.1-4.6-0.2-6.9-0.8c-2-0.5-4.1-1-5.6-2.5c-1.9-1.9-3.3-4.1-4.3-6.6c-0.8-2.8-1.2-5.7-1-8.7
						c0.4-4.3,3.2-8,7.2-9.5c1.3-0.7,2.7-1.1,4.2-1.4c0.1,0,0.1-0.1,0.1-0.2C56.7,25.5,56.6,25.5,56.6,25.5L56.6,25.5z"/>
					<path class="st1" d="M54.1,16.9c-1.9,0-3.7,0.4-5.4,1.1c-1.9,0.6-3.7,1.4-5.4,2.4c-3.1,2.2-5.6,5.2-7.2,8.7
						c-1.7,3.6-1.4,8-1.1,11.9c0.2,4.1,1.4,8,3.3,11.6c1,1.6,2.1,3.2,3.3,4.6c1.1,1.5,2.4,2.8,3.8,3.8c2.9,1.9,6.6,2.6,9.9,3.5
						c4,0.9,8.2,1,12.2,0.3c3.7-0.5,7.2-1.9,10.3-4.1c3.1-2.4,6-4.8,7.7-8.4c1-1.9,1.7-3.8,2.2-5.9c0.4-2.1,0.7-4.3,0.8-6.4
						c0-1.9-0.3-3.8-1.1-5.6c-0.6-1.8-0.8-3.6-2-5.2c-1-1.5-2.2-2.9-3.6-4c-1.4-1.2-2.8-2.6-4.2-3.9C76.3,20,74.7,19,73,18.4
						c-2-0.6-4.1-1.2-6.1-1.6c-4.2-0.7-8.5-1-12.8-0.9c-2,0.1-3.9,0.5-5.8,1.1c-1.9,0.5-3.8,1.2-5.5,2.1c-1.6,0.8-3.1,1.9-4.2,3.4
						c-1.2,1.5-2.3,3.2-3.2,5c-0.7,1.8-1.1,3.8-1.2,5.7c-0.2,2-0.7,4-0.7,6c0,1,0,2,0.2,3s0.5,2,0.8,3s0.1,2,0.3,3
						c0.2,0.9,0.4,1.9,0.8,2.8c1.4,3.7,4.5,5.7,7,8.5c1.3,1.3,2.8,2.3,4.6,2.9c1,0.3,2,0.6,2.9,1c0.8,0.4,1.7,0.7,2.6,0.8
						c1.9-0.1,3.9,0,5.8,0.2c0.8,0.1,1.2-1.1,0.3-1.2c-1.6-0.3-3.2-0.4-4.8-0.3c-0.9,0.1-1.7,0.1-2.5-0.2c-0.9-0.4-1.7-0.7-2.7-1
						c-1.8-0.5-3.5-1.4-5-2.7c-1.2-1.3-2.4-2.5-3.7-3.8c-1.4-1.2-2.5-2.7-3.2-4.3c-0.3-0.7-0.5-1.4-0.7-2.2c-0.2-1-0.3-2-0.3-3
						c-0.2-1.9-1-3.6-1-5.6c0-1.9,0.2-3.8,0.5-5.7c0.1-1.8,0.4-3.7,0.9-5.5c0.8-1.8,1.8-3.4,3-4.9c2.2-3.1,5.8-4.6,9.3-5.6
						c1.8-0.6,3.6-1,5.4-1.1c2-0.1,4.1,0,6.1,0c3.8,0.1,7.6,0.9,11.2,2.1c0.9,0.2,1.7,0.5,2.5,0.9c0.9,0.5,1.7,1.1,2.4,1.8
						c1.3,1.1,2.5,2.3,3.7,3.5c1.3,1,2.5,2.2,3.5,3.5c0.5,0.7,1,1.4,1.4,2.2c0.3,0.8,0.4,1.7,0.6,2.5c0.6,1.8,1.4,3.6,1.4,5.5
						c-0.1,1.9-0.3,3.8-0.6,5.7c-0.3,2-0.9,4-1.8,5.8c-0.7,1.7-1.7,3.4-3,4.8c-1.2,1.3-2.7,2.3-4,3.4c-1.4,1.1-2.9,2-4.6,2.6
						c-3.4,1.4-7,2.2-10.6,2.1c-2,0-3.9-0.1-5.8-0.4c-1.6-0.3-3.2-0.8-4.7-1.2c-1.6-0.4-3.1-0.9-4.6-1.6c-1.5-0.8-2.9-2-3.9-3.4
						c-2.3-2.8-4.6-5.9-5.8-9.5c-1.1-3.8-1.6-7.8-1.5-11.8c-0.1-2,0.2-4,0.8-5.8c0.7-1.7,1.7-3.3,2.8-4.8c1.1-1.6,2.4-3,4-4.1
						c1.7-1.1,3.5-2,5.4-2.6c1.7-0.8,3.4-1.3,5.3-1.5c0.1,0,0.1-0.1,0.1-0.2C54.2,17,54.2,17,54.1,16.9z"/>
					<path class="st1" d="M87.7,35.4c-0.6-0.3-1.1,0.2-1.4,0.7c-0.3,0.6-0.2,1.4,0.3,1.8c0.3,0.3,0.6,0.4,1,0.4s0.8-0.2,1-0.6
						c0.4-0.7,0.4-1.6,0-2.3c-0.3-0.6-0.9-1-1.6-1c-0.8,0.1-1.5,0.5-1.8,1.2c-0.4,0.7-0.5,1.6-0.1,2.3s1.2,1,1.9,0.8
						c0.7-0.2,1.2-0.6,1.5-1.2c0.3-0.6,0.4-1.3,0.3-1.9c0-0.8-0.4-1.5-1-2c-0.6-0.4-1.4-0.4-2.1,0c-0.6,0.4-1,1.1-1.1,1.7
						c-0.2,0.6-0.2,1.1-0.1,1.7c0.1,1.1,1,1.9,2.1,1.8c0.4,0,0.7-0.2,1-0.4c0.6-0.3,1.1-0.8,1.4-1.5s0.4-1.4,0.3-2.1
						c-0.1-0.7-0.5-1.4-1.1-1.8c-0.7-0.3-1.6-0.3-2.3,0.1c-0.7,0.4-1.2,0.9-1.6,1.5c-0.5,0.7-0.6,1.6-0.5,2.4
						c0.2,1.3,1.3,2.7,2.7,2.5c0.4,0,0.8-0.2,1.2-0.4c0.1,0,0.1-0.1,0.2-0.1c0.3-0.3,0.2-0.2,0.1-0.1l0.2-0.1
						c0.2-0.1,0.3-0.3,0.4-0.4c0.5-0.5,0.9-1.1,1-1.8s0.1-1.4,0-2.1c-0.2-0.7-0.8-1.3-1.5-1.5c-0.4-0.1-0.7-0.2-1.1-0.2
						c-0.5,0-0.9,0.1-1.3,0.4c-0.7,0.3-1.3,0.8-1.8,1.4c-0.7,1.3-0.5,3,0.5,4.1c0.5,0.6,1.2,0.9,2,0.9c0.8-0.1,1.6-0.4,2.2-0.9
						c0.5-0.5,0.9-1.2,1.1-1.9c0.3-0.7,0.3-1.5,0.2-2.2c-0.3-0.8-0.9-1.4-1.7-1.7c-0.7-0.1-1.4,0-2.1,0.3s-1.4,0.7-1.8,1.4
						c-0.1,0.2-0.2,0.5-0.3,0.7c0,0.1,0,0.2-0.1,0.3s0,0.2,0,0.2c0-0.1,0-0.2,0-0.1c-0.1,0.5-0.1,1,0,1.5c0.2,0.9,0.9,1.5,1.8,1.8
						c0.5,0.2,1.1,0,1.3-0.6c0.2-0.5,0-1.1-0.6-1.3c0.2,0.2,0.1,0,0,0s0-0.1,0,0c-0.1-0.1-0.1-0.2-0.2-0.3c0,0,0-0.1-0.1-0.1
						s0,0.1,0,0.1c0-0.1-0.1-0.3-0.1-0.4c0-0.1,0-0.1,0-0.2c0.1,0.2,0,0.2,0,0.1v-0.1c0,0.2,0-0.1,0-0.1s0-0.3,0-0.4v-0.1
						c0-0.1,0-0.1,0,0v0.1v-0.2c0-0.1,0.1-0.3,0,0s-0.1,0.1,0,0l0.1-0.1c0.1-0.1,0.1-0.1,0.2-0.2c0.2-0.2-0.3,0.3,0,0s-0.2,0.1,0,0
						l0.3-0.2l0.2-0.1c0.2-0.1,0,0,0,0l0.3-0.1l0.3-0.1c-0.2,0.1-0.2,0-0.1,0h0.2c0.1,0-0.2-0.1-0.1,0h0.1c0,0-0.2-0.1,0,0
						s0.1,0,0,0c0.1,0.1,0.1,0.1,0.2,0.2l-0.1-0.1l0.1,0.1V35c0.1,0.1,0,0.1,0,0s0,0.1,0,0.1c0.1,0.2,0,0,0-0.1S87.7,35.3,87.7,35.4
						C87.7,35.1,87.7,35.2,87.7,35.4c0,0,0,0,0,0.1l-0.1,0.4c0,0.1-0.1,0.3-0.1,0.4v0.1c-0.1,0.2,0,0,0,0c0,0.1-0.1,0.2-0.2,0.3
						l-0.1,0.1l-0.1,0.1l0.1-0.1c0,0.1-0.3,0.2-0.3,0.3s0.2-0.1,0,0l-0.2,0.1c-0.1,0.1-0.2,0.1-0.3,0.2c0.2-0.1,0.1,0,0,0l-0.2,0.1
						H86c-0.2,0,0,0,0.1,0s-0.1,0-0.2,0c-0.2,0,0-0.1,0.1,0h-0.1c-0.2,0,0.2,0.1,0,0c-0.1-0.1-0.2-0.1-0.3-0.2c0.1,0,0.2,0.1,0.1,0
						l0.3,0.2v-0.3v0.1c0-0.1-0.1-0.2-0.2-0.3c0-0.1-0.1-0.2-0.1-0.3c0.1,0.2,0.1,0.2,0,0s0-0.1,0-0.2v-0.1c-0.1-0.2,0,0.2,0,0.1
						s0-0.2,0-0.3s0-0.1,0-0.2v-0.1c0,0.1,0,0.2,0,0.1c0-0.1,0-0.2,0.1-0.3c0,0,0.1-0.2,0-0.1s0,0,0-0.1s0.1-0.1,0.1-0.1
						s-0.1,0.1,0,0c0.1,0,0.1-0.1,0.2-0.2c-0.1,0.1,0,0,0.1,0l0.6-0.4c0.1-0.1,0.2-0.1,0.3-0.2l0.1-0.1h-0.1c0,0,0.1,0-0.1,0
						c0.1,0,0.2,0,0.3,0c0,0-0.2,0,0,0h0.2l0.3,0.1c-0.2-0.1-0.1,0,0,0l0.2,0.1c0.2,0.1-0.1-0.1,0,0c0,0-0.1-0.2,0,0s0-0.1,0-0.1
						s0,0.1,0,0.2v0.1l0,0c0,0.1,0,0.3,0,0.4c0,0.2,0,0.4,0,0.6s0,0,0,0v0.2c0,0.1-0.1,0.3-0.1,0.4s0,0.1-0.1,0.1c0.1-0.2,0,0,0,0
						c0,0.1-0.1,0.2-0.2,0.3c0.1-0.2,0,0,0,0l-0.2,0.2c-0.1,0.1-0.2,0.2-0.3,0.3c0.1-0.1,0,0,0,0l-0.2,0.1l0,0l-0.2,0.1
						c-0.1,0-0.1,0-0.2,0c0,0,0.2,0,0,0h-0.2h0.1h-0.1c-0.2,0,0.1,0,0.1,0l-0.1-0.1c-0.1,0-0.1-0.1,0,0c-0.1-0.1-0.1-0.1-0.2-0.2
						c-0.1-0.1,0-0.1,0,0c0,0-0.1-0.1-0.1-0.2s0,0-0.1-0.1s0-0.1,0,0s0-0.1,0-0.1c-0.1-0.2-0.1-0.4-0.2-0.6c0-0.2,0,0.2,0,0
						s0-0.1,0-0.2s0-0.1,0-0.2c0-0.2,0,0.1,0,0s0-0.3,0.1-0.3s-0.1,0.1,0,0c0-0.1,0.1-0.1,0.1-0.2l0.2-0.3c-0.1,0.2-0.1,0,0,0
						l0.2-0.2l0.2-0.2l0.2-0.1c-0.1,0.1,0,0,0,0l0.1-0.1c0.2-0.1,0,0,0,0c0.1,0,0.2-0.1,0.3-0.1c0,0-0.2,0-0.1,0h0.2c0.2,0,0,0,0,0
						c0.1,0,0.1,0,0.2,0c0,0-0.2-0.1,0,0s-0.1-0.1,0,0c0,0-0.1-0.2,0,0l0.1,0.1c0.1,0.2,0-0.1,0,0s0,0.1,0,0.2v0.1v0.1v-0.1
						c0,0.2,0,0.4,0,0.7c0,0.2-0.1,0.1,0,0v0.1v0.1c0,0.2,0-0.1,0,0L87.4,36l-0.1,0.1c-0.1,0.1,0.2-0.2,0,0l-0.2,0.2L87,36.5
						c-0.1,0.1,0.2-0.1,0,0l-0.3,0.1c-0.1,0.1,0.2-0.1,0,0h-0.1c0,0-0.2,0.1,0,0s0,0,0,0s0-0.1,0.1,0c0,0-0.1,0-0.2,0
						c0.1,0,0.2,0.1,0.1,0s0-0.1,0,0l-0.1-0.1c-0.1-0.1,0.1,0.2,0,0.1c0-0.1-0.1-0.1-0.1-0.2c0.1,0.1,0.1,0.2,0,0.1l-0.1-0.2
						c0-0.1,0-0.2,0-0.2c0.1,0.2,0,0.2,0,0.1v-0.1c0-0.1,0-0.1,0-0.2c0-0.1,0-0.1,0-0.2c0-0.2-0.1,0.2,0,0.1s0.1-0.3,0.1-0.5
						s0.1-0.4,0-0.1V35c0.1-0.1,0.1-0.1,0,0c0,0,0.1-0.1,0.1-0.2c0,0,0-0.1,0.1-0.1c0.1-0.2-0.1,0.1,0,0l0.1-0.1c0,0-0.2,0.1,0,0
						c-0.2,0.1,0.1,0,0.1,0c-0.2,0-0.1,0,0,0s0.2,0,0,0h0.1c0.1,0,0.1,0,0,0s0.1,0.1,0,0c0.1,0.1,0,0,0,0l0.1,0.1l0.1,0.2
						c-0.1-0.1,0,0,0,0s0.1,0.3,0.1,0.4s0,0.3,0,0.1c0,0.1,0,0.2,0,0.3s0,0.2,0,0.3s0-0.2,0,0s0,0.1-0.1,0.2s0,0,0,0L87,36.3l0,0.3
						c0.1-0.1,0,0,0,0l-0.1,0.1c0,0-0.1,0.1,0,0l-0.1,0.1h-0.1h0.1h-0.1l0,0l0,0c-0.2,0,0.1,0,0,0s-0.1,0-0.1,0s0.2,0.1,0,0
						s0.1,0.1,0,0l-0.1-0.1c0.1,0.1,0.1,0.1,0,0s-0.1-0.1-0.1-0.1s0,0.1,0,0s0-0.2,0-0.1s0-0.1,0-0.1s0-0.2,0,0v-0.2
						c0,0,0.1-0.2,0,0c0-0.1,0.1-0.1,0.1-0.2l0.1-0.1c0.1-0.2-0.1,0.1,0,0l0.2-0.2c0.1-0.1,0,0,0,0l0.2-0.1c0,0-0.2,0,0,0l0,0h-0.1
						c0,0,0.2,0,0.1,0s0,0,0.1,0s0.1,0.1,0,0l0.1,0.1c-0.1-0.1,0,0,0,0s0.1,0.1,0,0c0.1,0.1,0.1,0.2,0.1,0.3
						c0.1,0.2,0.1,0.4,0.1,0.6l-0.1,0.1l0,0l0,0l0,0h0.1c0.1,0,0,0,0,0s0.1,0.1,0,0c0.1,0.1-0.2-0.2-0.1-0.1l-0.1-0.1
						c-0.1-0.2,0,0,0,0v-0.1c0,0.1,0,0,0-0.1c0,0.2,0,0,0-0.1c0,0.2,0,0.1,0,0v-0.1c0,0.1,0,0,0,0s0.1-0.2,0.1-0.3s0,0,0,0
						s0.1,0-0.1,0c0.3,0,0.5-0.5,0.2-0.7L87.7,35.4z"/>
					<path class="st1" d="M46.9,28c-0.4,0.1-0.7,0.3-1,0.5c-0.3,0.3-0.5,0.7-0.5,1.2s0.2,0.9,0.7,1.1s1.1,0.2,1.6-0.1
						c0.2-0.1,0.4-0.3,0.5-0.4c0.2-0.2,0.3-0.3,0.5-0.5c0.2-0.3,0.2-0.7,0.1-1c-0.1-0.2-0.3-0.4-0.4-0.6c-0.3-0.3-0.7-0.6-1.1-0.8
						c-0.5-0.1-0.9-0.1-1.4,0c-1,0.2-1.8,1.1-1.7,2.1c0,0.6,0.3,1.1,0.7,1.5c0.4,0.3,0.8,0.6,1.2,0.7c0.9,0.4,2,0.3,2.8-0.4
						c0.4-0.5,0.6-1.1,0.4-1.7c-0.1-0.4-0.4-0.9-0.7-1.2c-0.5-0.7-1.3-1.1-2.2-1.1c-0.5,0-1,0.2-1.4,0.5c-0.3,0.3-0.5,0.7-0.6,1.1
						c-0.2,0.9,0.1,1.8,0.7,2.5c0.4,0.3,0.8,0.5,1.2,0.7s0.8,0.2,1.2,0.2c0.5,0,1.1-0.2,1.5-0.6s0.6-0.9,0.5-1.5
						c0-0.4-0.1-0.8-0.3-1.2c-0.2-0.3-0.4-0.5-0.6-0.8c-0.5-0.5-1-0.8-1.7-1c-0.5-0.1-1-0.1-1.4,0.2c-0.4,0.2-0.8,0.6-0.9,1.1
						c-0.3,0.9,0,1.9,0.8,2.5c0.2,0.2,0.5,0.3,0.8,0.4c0.2,0.1,0.5,0.1,0.7,0.1c0.5,0,0.9-0.1,1.3-0.3c0.5-0.3,0.8-0.8,0.8-1.4
						c0.1-0.3,0.1-0.6,0-0.9s-0.2-0.6-0.4-0.8c-0.3-0.3-0.7-0.6-1.1-0.7c-0.4-0.2-0.9-0.3-1.3-0.2c-0.3,0-0.6,0.1-0.9,0.2
						c-0.3,0.2-0.5,0.4-0.7,0.7c-0.1,0.2-0.2,0.4-0.1,0.7c0,0.2,0.1,0.4,0.3,0.6c0.1,0.1,0.3,0.2,0.5,0.3c0.3,0.1,0.6,0,0.8-0.1
						c0.1-0.1,0.2-0.1,0.4-0.2l-0.3,0.1l0.2-0.1h-0.3c0.1,0,0.3,0,0.4,0h-0.3c0.2,0,0.4,0.1,0.6,0.2l-0.3-0.1
						c0.2,0.1,0.4,0.2,0.5,0.3l-0.2-0.2c0.1,0.1,0.1,0.1,0.2,0.2l-0.2-0.2l0.1,0.2l-0.1-0.3c0,0.1,0,0.1,0.1,0.2v-0.3
						c0,0.1,0,0.2,0,0.3v-0.3c0,0.1,0,0.2-0.1,0.3l0.1-0.3c0,0.1-0.1,0.1-0.1,0.2l0.2-0.2l-0.1,0.1l0.2-0.2c-0.1,0-0.1,0.1-0.2,0.1
						l0.3-0.1l-0.3,0.1h0.3c-0.1,0-0.3,0-0.4,0h0.3c-0.1,0-0.3-0.1-0.4-0.1l0.3,0.1c-0.1,0-0.2-0.1-0.3-0.2l0.2,0.2
						c-0.1-0.1-0.2-0.1-0.2-0.2l0.2,0.2c-0.1-0.1-0.2-0.2-0.2-0.3l0.1,0.3c0-0.1-0.1-0.2-0.1-0.3v0.3c0-0.1,0-0.2,0-0.3v0.3
						c0-0.1,0-0.2,0.1-0.2l-0.1,0.3c0-0.1,0.1-0.1,0.1-0.2l-0.2,0.2c0-0.1,0.1-0.1,0.2-0.2l-0.2,0.2c0,0,0.1-0.1,0.2-0.1l-0.3,0.1
						c0.1,0,0.1,0,0.2,0h-0.3h0.2h-0.3c0.1,0,0.2,0.1,0.3,0.1l-0.3-0.1c0.2,0.1,0.4,0.2,0.5,0.3l-0.2-0.2c0.2,0.2,0.4,0.4,0.6,0.6
						L47,29.9c0.1,0.1,0.2,0.3,0.3,0.4L47.2,30c0,0.1,0.1,0.2,0.1,0.3V30c0,0.1,0,0.2,0,0.2v-0.3c0,0.1,0,0.1,0,0.2l0.1-0.3L47.3,30
						l0.2-0.2c0,0.1-0.1,0.1-0.1,0.1l0.2-0.2l-0.2,0.1l0.3-0.1c-0.1,0-0.2,0.1-0.2,0.1h0.3c-0.2,0-0.3,0-0.5,0h0.3
						c-0.3,0-0.5-0.1-0.8-0.2l0.3,0.1c-0.2-0.1-0.4-0.2-0.5-0.3l0.2,0.2l-0.2-0.2l0.2,0.2c-0.1-0.1-0.1-0.2-0.2-0.3l0.1,0.3
						c-0.1-0.2-0.1-0.3-0.1-0.5v0.3c0-0.2,0-0.4,0-0.5v0.3c0-0.1,0-0.2,0.1-0.3l-0.1,0.3c0-0.1,0.1-0.1,0.1-0.2l-0.2,0.2
						c0-0.1,0.1-0.1,0.2-0.2l-0.2,0.2l0.2-0.1l-0.3,0.1c0.1,0,0.2-0.1,0.4-0.1h-0.3c0.1,0,0.3,0,0.4,0h-0.3c0.1,0,0.2,0.1,0.4,0.1
						l-0.3-0.1c0.1,0.1,0.2,0.1,0.3,0.2l-0.2-0.2c0.2,0.2,0.4,0.3,0.5,0.5L47,29.8c0.1,0.1,0.2,0.3,0.3,0.5L47.2,30
						c0,0.1,0.1,0.2,0.1,0.2V30c0,0.1,0,0.2-0.1,0.3V30c0,0.1,0,0.1-0.1,0.2l0.1-0.3c0,0.1-0.1,0.1-0.1,0.1l0.2-0.2L47.2,30l0.2-0.2
						c-0.1,0-0.1,0.1-0.2,0.1l0.3-0.1h-0.2h0.3c-0.1,0-0.2,0-0.4,0h0.3c-0.4-0.1-0.7-0.2-1.1-0.3l0.3,0.1c-0.1-0.1-0.2-0.1-0.3-0.2
						l0.2,0.2c-0.1-0.1-0.2-0.3-0.3-0.4l0.2,0.2c-0.1-0.1-0.1-0.1-0.2-0.2l0.1,0.3c0-0.1-0.1-0.2-0.1-0.3v0.3c0-0.1,0-0.2,0-0.3v0.3
						c0-0.1,0-0.2,0.1-0.3l-0.1,0.3c0-0.1,0.1-0.1,0.1-0.2l-0.1,0.2c0.1-0.1,0.1-0.1,0.2-0.2l-0.2,0.2c0.1-0.1,0.2-0.1,0.3-0.2
						l-0.2,0.1c0.2-0.1,0.3-0.1,0.5-0.1h-0.3H47h-0.3c0.1,0,0.2,0,0.3,0h-0.3c0.1,0,0.2,0,0.3,0.1l-0.2-0.1l0.3,0.1l0.1,0.1
						c-0.2-0.1-0.1,0,0,0s0.1,0.1,0.2,0.2s0,0-0.1-0.1l0,0c0-0.1-0.1-0.2-0.1-0.2c0-0.2,0-0.2,0-0.1c0.1-0.2,0-0.1,0,0
						c0.1-0.1,0.1-0.1,0-0.1v0.1c-0.1,0.1-0.1,0.2-0.2,0.2l-0.1,0.1l0.1-0.1c0,0-0.1,0-0.1,0.1H47h-0.1h-0.1c0.1,0,0.2,0,0.1,0l0,0
						h-0.1c-0.2,0,0.1,0.1,0,0s0,0,0.1,0.1c0,0,0,0,0.1,0.1c-0.1-0.1,0.1,0.2,0,0s0,0.2,0,0.1v-0.1c0-0.1,0,0,0,0.1v-0.1v-0.1v-0.1
						c0,0.1,0,0.1,0,0l0.1-0.1c0.1-0.1-0.1,0.1,0,0s0.1-0.2,0-0.1l0,0l0.1-0.1c-0.1,0.1,0,0,0,0l0.2-0.1c0.2-0.1,0.3-0.4,0.2-0.7
						C47.3,28.1,47,28,46.7,28H46.9z"/>
					<path class="st1" d="M44.2,25.2L44.2,25.2L44.2,25.2l-0.1,0.1l0,0h0.1V25.2C44.2,25.3,44.3,25.2,44.2,25.2
						C44.2,25.3,44.2,25.3,44.2,25.2h0.2H44.2c0.2,0,0.4-0.1,0.5-0.1h-0.2c0.1,0,0.1,0,0.2,0h-0.2h0.1L44.5,25l0,0l-0.2-0.1l0,0
						l-0.1-0.1l0,0v-0.2l0,0v-0.2l0,0v-0.1c0,0.1,0,0.2,0,0.3v-0.3c0,0.1,0,0.1,0,0.2v-0.2c-0.1,0.2-0.2,0.4-0.4,0.6l0.1-0.2
						L43.7,25c-0.1,0.1-0.1,0.1-0.2,0.2l0.2-0.1l0,0l-0.2,0.1c-0.1,0.1-0.1,0.2-0.2,0.3c-0.1,0.2-0.1,0.4,0,0.6
						c0.1,0.3,0.3,0.5,0.5,0.6c0.1,0,0.1,0.1,0.2,0.1l0.2,0.1c0.2,0,0.3,0.1,0.5,0.1h0.1c0.1,0,0.3,0,0.4-0.1
						c0.1-0.1,0.3-0.1,0.4-0.2c0.3-0.2,0.5-0.5,0.4-0.9c-0.1-0.3-0.3-0.5-0.6-0.6h-0.1c-0.2-0.1-0.4-0.1-0.5-0.1h-0.3h0.2
						c-0.1,0-0.1,0-0.2,0l0.2,0.1h-0.1l0.2,0.1l0,0l0.1,0.2l0,0l0.1,0.2l0,0l-0.2,0.9l0.1-0.2c0.1-0.1,0.2-0.3,0.3-0.4
						c0.2-0.3,0.3-0.5,0.4-0.8c0.1-0.2,0.1-0.3,0.1-0.5c0-0.4-0.3-0.7-0.6-0.9c-0.4-0.1-0.9,0.1-1.2,0.5c-0.1,0.1-0.2,0.2-0.3,0.3
						c-0.1,0.1-0.1,0.2-0.2,0.3c0,0.1,0,0.2,0,0.3c0,0.1,0.1,0.2,0.1,0.2l-0.1-0.2l0,0v0.1c0,0,0,0,0,0.1c0.1,0.2,0.2,0.2,0.4,0.2
						C44.1,25.5,44.3,25.4,44.2,25.2L44.2,25.2z"/>
					<path class="st1" d="M46,23.5c-0.1,0.2-0.2,0.5-0.1,0.7c0.1,0.2,0.2,0.4,0.3,0.5s0.2,0.2,0.3,0.3c0.1,0.2,0.2,0.3,0.4,0.4
						c0.1,0.1,0.3,0.1,0.5,0.1c0.1,0,0.3-0.1,0.4-0.2c0.1-0.1,0.2-0.3,0.1-0.5V25c0-0.1,0-0.2-0.1-0.3c0-0.1-0.1-0.1-0.1-0.2
						c0,0,0,0-0.1-0.1s-0.1-0.1-0.2-0.2l0.1,0.1L47.2,24H47l-0.2-0.1l0.1,0.1c-0.1,0-0.1-0.1-0.2-0.2l0.1,0.1l-0.1-0.1v0.1
						c0-0.1-0.1-0.2-0.1-0.2l0,0l0,0v-0.1c0-0.1-0.2-0.2-0.3-0.3C46.2,23.3,46,23.4,46,23.5L46,23.5z"/>
					<path class="st1" d="M47.1,23.9c-0.2,0.1-0.5,0.2-0.7,0.3c-0.1,0-0.2,0.1-0.2,0.1L46,24.5c-0.1,0-0.1,0.1-0.2,0.1l-0.1,0.1
						l-0.1,0.1l0,0v-0.1c0,0,0,0.1-0.1,0.1l0.1-0.1l0,0l0.1-0.1l0,0c-0.1,0-0.1,0.1-0.2,0.2c-0.1,0.1-0.1,0.2-0.1,0.3
						c0,0.1,0,0.2,0.1,0.2c0.1,0.1,0.1,0.2,0.3,0.2c0.1,0,0.2,0,0.4,0c0.1,0,0.2-0.1,0.3-0.1c0.1-0.1,0.2-0.1,0.3-0.3V25l0.2,0
						l-0.1,0.1c0.1-0.1,0.2-0.2,0.3-0.3c0.1-0.1,0.2-0.2,0.3-0.3l0.1-0.1v-0.1c0-0.1,0-0.2,0-0.3C47.4,23.9,47.3,23.8,47.1,23.9
						L47.1,23.9z"/>
					<path class="st1" d="M48.2,23.5L48.2,23.5L48.2,23.5C48.2,23.5,48.2,23.4,48.2,23.5v0.1c0,0.1,0-0.1,0,0c0,0.2,0,0.3,0,0.5
						c0,0.3,0,0.5,0,0.8v-0.2c0,0.2,0,0.4,0,0.6v-0.2c0,0.1-0.1,0.3-0.1,0.4l1.1-0.3c0,0.2,0,0.3,0,0.2c0,0.1,0,0.1,0,0v-0.1
						c0-0.1,0-0.3,0-0.4v-0.2l0,0c0,0.1,0,0.1-0.1,0.2l0,0H49h0c0.1,0,0.1,0,0.2,0h0.1c-0.2,0-0.1,0,0,0c0.4,0.1,0.8,0,1.1-0.4
						c0.1-0.3,0-0.6-0.2-0.7s-0.3-0.1-0.5,0c-0.1,0,0,0,0,0l0,0h0.1c0,0-0.1,0,0,0s-0.1,0,0,0h-0.2h-0.3c-0.2,0-0.3,0.1-0.4,0.2
						c-0.1,0.1-0.1,0.1-0.2,0.2c0,0.1-0.1,0.2-0.1,0.3c0,0.2,0,0,0,0v0.2v0.1c0,0,0-0.1,0,0c0,0,0,0,0,0.1s0,0,0,0
						c0,0.1-0.1,0.2-0.1,0.2v0.1c0,0.1,0,0,0.1-0.1c-0.2,0.2-0.3,0.6,0,0.8c0.2,0.2,0.4,0.2,0.6,0.2c0.2-0.1,0.4-0.2,0.5-0.5
						c0.1-0.2,0.1-0.4,0.1-0.6c0-0.3-0.1-0.5-0.2-0.8c-0.1-0.2-0.1-0.4-0.2-0.6c-0.1-0.3-0.3-0.5-0.6-0.6c-0.2,0-0.3,0.1-0.3,0.2
						s0,0.1,0,0.2L48.2,23.5z"/>
					<path class="st1" d="M49.6,23.5C49.6,23.5,49.6,23.6,49.6,23.5v0.1c0,0.1-0.1,0.2-0.1,0.3c-0.1,0.2-0.1,0.3-0.1,0.5V25
						c0,0.1,0,0.3,0.1,0.4c0.1,0.3,0.3,0.5,0.6,0.5s0.5-0.2,0.6-0.5v-0.1c0-0.1,0-0.3,0-0.5c0-0.1,0-0.2-0.1-0.3
						c-0.1-0.2-0.1-0.4-0.2-0.6V24c-0.1-0.2-0.1-0.4-0.2-0.6c0-0.1-0.2-0.2-0.3-0.2C49.8,23.2,49.7,23.3,49.6,23.5L49.6,23.5z"/>
					<path class="st1" d="M51.2,23.4C51.2,23.4,51.2,23.3,51.2,23.4L51.2,23.4L51.2,23.4l-0.3,0.2c0.1,0,0.1,0,0.2,0
						C51.2,23.5,51.2,23.4,51.2,23.4L51.2,23.4L51.2,23.4l-0.1,0.1l0,0H51h0.1H51l0,0h-0.1l0,0l-0.1-0.1l0,0l-0.1-0.1l0,0l0.1-0.1
						l0.1,0.1l-0.1-0.1l0,0l0,0l0,0V23v0.1V23v0.1l0.1-0.2V23l0.1-0.1c-0.1,0.1-0.1,0.2-0.2,0.3l-0.1,0.1c0,0.1-0.1,0.1-0.1,0.2
						s0,0.3,0,0.4s0.1,0.3,0.2,0.4c0.1,0.1,0.1,0.1,0.2,0.2c0.1,0.1,0.2,0.1,0.3,0.1c0.2,0,0.3,0,0.5,0c0.1,0,0.1-0.1,0.2-0.1
						c0.1-0.1,0.2-0.1,0.2-0.2c0.1-0.2,0.1-0.4,0-0.6c0-0.1-0.1-0.1-0.2-0.2l-0.1-0.1c0,0-0.1-0.1-0.2-0.1h-0.1l0,0l0,0l0.2,0.1
						l-0.2-0.2l0.1,0.1l-0.1-0.1l0.1,0.1l0,0l0.1,0.2l0,0v0.2l0,0v0.2l0,0l0,0.1l0.1-0.1c0.1-0.1,0.1-0.2,0.1-0.3c0-0.2,0-0.3,0-0.5
						c0-0.1,0-0.1-0.1-0.2l0,0c0-0.1-0.1-0.1-0.1-0.1l-0.1-0.1l0,0c0,0-0.1-0.1-0.2-0.1h-0.2l0,0h-0.2c-0.2,0.1-0.3,0.2-0.4,0.3V23
						v0.1c0,0.1,0,0.2,0,0.3v-0.1c0,0.1,0,0.1,0,0.2s0.1,0.1,0.2,0.1l-0.2-0.2c0,0.1,0,0.1,0.1,0.2l0.1,0.1c0.1,0,0.1,0,0.2,0
						c0.1,0,0.1,0,0.2-0.1c0.1,0,0.1-0.1,0.1-0.2L51.2,23.4z"/>
					<path class="st1" d="M53.4,23.1c-0.2-0.1-0.5-0.1-0.8,0c-0.1,0.1-0.2,0.1-0.3,0.2c-0.1,0-0.1,0.1-0.2,0.1
						c-0.1,0.1-0.2,0.3-0.3,0.5c0,0.2,0,0.4,0,0.6c0.1,0.3,0.3,0.6,0.6,0.8c0.2,0.1,0.4,0.2,0.6,0.2c0.3,0.1,0.6,0.2,0.9,0.1
						c0.3-0.1,0.6-0.4,0.8-0.7c0.2-0.3,0.3-0.7,0.2-1c0-0.1-0.1-0.2-0.1-0.3c0,0,0-0.1-0.1-0.1c-0.1-0.1-0.2-0.3-0.3-0.4
						s-0.3-0.2-0.4-0.3l-0.1-0.1l-0.2-0.1c-0.1,0-0.2,0-0.3,0h0.2l0,0c-0.1,0-0.3,0-0.4,0c-0.1,0-0.2,0.1-0.3,0.2s-0.2,0.2-0.2,0.3
						c0,0.1,0,0.3,0,0.4c0,0.2,0.1,0.3,0.3,0.5c0.1,0.1,0.1,0.2,0.2,0.2c0,0,0,0,0.1,0.1l0.2,0.2l-0.2-0.2c0.1,0.1,0.1,0.1,0.1,0.2
						l-0.1-0.2v0.1v-0.2c0,0,0,0,0,0.1v-0.2v0.1l0.1-0.2c0,0.1-0.1,0.2-0.1,0.3l0.1-0.2l-0.1,0.2l0.2-0.1h-0.1l0.2-0.1l0,0h0.2h-0.1
						h0.2h-0.2L53.3,24h0.2c-0.1,0-0.2,0-0.3-0.1l0.2,0.1c-0.1,0-0.1-0.1-0.2-0.1l0.2,0.1l-0.1-0.1l0.1,0.1l-0.2-0.2l0.1,0.1v-0.1
						l0.1,0.2l0,0v0.2v-0.1l-0.1,0.2v-0.1v0.1c0-0.1,0-0.1,0.1-0.2s0.1-0.2,0.2-0.3v-0.1c0,0,0-0.1,0,0s0,0,0,0
						C53.6,23.5,53.5,23.2,53.4,23.1L53.4,23.1z"/>
					<path class="st2" d="M108,44.6c5.8-3.6,11.5-7.1,17.3-10.7c2.5,0.2,5,0.3,7.6,0.5c-5.5,5.4-11,10.8-16.6,16.2
						C113.5,48.6,110.7,46.6,108,44.6z"/>
					<path class="st2" d="M108,44.6c-5.8-2.1-10.8-1.8-14.9-1.6c-7.2,0.5-8.6,2-16.3,2.4c-2.9,0.1-5.9,0.1-8.8-0.1
						c0,0.7-0.2,1.3-0.5,1.9c-0.3,0.7-0.8,1.3-1.4,1.7c2.5,1.7,5.1,3.2,7.8,4.5c3.4,1.6,20.8,9.4,34.1,1.1c2.6-1.7,5-3.9,6.8-6.4
						C112.7,46.7,110.4,45.5,108,44.6z"/>
					<path class="st3" d="M86.4,121.7c-15.1,0.3-30.3,0.7-45.4,1c8.2-24.6,16.3-49.2,24.5-73.9l48.1-1.5
						C104.5,72.3,95.5,97,86.4,121.7z"/>
					<path class="st4" d="M112.9,93.6c-7.2,4.9-14.3,9.8-21.5,14.6c2.4-6.7,6.2-17,8.7-23.7c4.5-12.4,9.1-24.7,13.6-37.1
						c6.7-4.5,13.4-9.1,20.2-13.6c-4,11.3-8,22.6-12,34C118.9,76.4,115.9,85,112.9,93.6z"/>
				</g>
			</g>
		</g>
	</g>
</g>
</svg>
