<svg xmlns="http://www.w3.org/2000/svg" xmlns:xlink="http://www.w3.org/1999/xlink" viewBox="0 0 24 24"><defs><style>.cls-1{fill:url(#Безымянный_градиент_7);}</style><linearGradient id="Безымянный_градиент_7" x1="20.69" y1="1.87" x2="3.14" y2="22.33" gradientUnits="userSpaceOnUse"><stop offset="0" stop-color="#f7ba77"/><stop offset="1" stop-color="#fdb65a"/></linearGradient></defs><g id="Слой_2" data-name="Слой 2"><g id="Слой_1-2" data-name="Слой 1"><path class="cls-1" d="M22.33,1.68C20.65,0,17.93,0,12.5,0h-1C6.06,0,3.35,0,1.67,1.68S0,6.08,0,11.5v1c0,5.4,0,8.12,1.68,9.8S6.08,24,11.5,24h1c5.44,0,8.15,0,9.83-1.68S24,17.92,24,12.5v-1C24,6.08,24,3.36,22.33,1.68ZM17.22,17.29a5,5,0,0,0-4.14-3.57v3.57h-.31c-5.47,0-8.59-3.75-8.72-10H6.79c.09,4.58,2.11,6.52,3.71,6.92V7.3h2.58v4c1.58-.17,3.24-2,3.8-3.95h2.58a7.63,7.63,0,0,1-3.51,5,7.92,7.92,0,0,1,4.11,5Z"/></g></g></svg>